<svg width="772" height="490" viewBox="0 0 772 490" fill="none" xmlns="http://www.w3.org/2000/svg">
<path d="M760.002 371.372C732.066 412.019 699.581 479.197 642.572 474.794C621.507 473.024 604.65 456.048 601.329 435.577C596.711 407.344 606.629 381.517 614.842 354.214C625.715 320.898 639.592 288.602 653.219 256.193C667.846 218.542 690.481 177.509 682.292 136.249C673.92 96.0104 627.672 84.1862 595.687 104.68C541.226 150.57 468.681 254.015 420.681 302.628C405.757 316.517 381.075 315.178 368.882 297.09C358.19 280.704 359.577 258.894 363.513 241.033C375.229 192.556 402.345 116.186 404.87 69.1392C407.919 36.8439 382.69 18.37 353.367 15.238C295.267 10.6309 226.11 73.996 186.641 112.306C155.748 143.852 128.313 179.438 103.062 216.749C56.0631 289.533 26.0119 358.549 63.6839 399.786C78.8119 416.445 106.565 427.656 130.27 422.777C176.427 415.401 198.175 372.393 206.137 329.749C214.167 292.029 215.305 253.856 207.957 215.977C185.617 96.3508 87.4792 61.4683 15.0015 168.612" stroke="#FF8833" stroke-opacity="0.05" stroke-width="30" stroke-miterlimit="10" stroke-linecap="round"/>
</svg>
