<svg width="23" height="23" viewBox="0 0 23 23" fill="none" xmlns="http://www.w3.org/2000/svg">
<path d="M20.5976 3.54921C18.916 3.26038 14.7654 2.8689 11.5531 2.8689H10.7279C7.61909 2.8689 3.63076 3.23558 1.85256 3.52137C1.69597 4.6658 1.55852 7.00947 1.55591 8.43664C1.55852 10.0617 1.73729 12.8795 1.91868 13.7543C2.23796 15.1954 3.63511 16.5155 5.07968 16.7957C5.81915 16.9435 8.5095 17.121 10.3125 17.1628V19.0467L7.48295 20.734C7.38972 20.7895 7.30836 20.8629 7.2435 20.95C7.17864 21.037 7.13156 21.1359 7.10494 21.2412C7.07832 21.3464 7.07269 21.4558 7.08837 21.5632C7.10404 21.6706 7.14071 21.7739 7.19629 21.8671C7.25187 21.9603 7.32527 22.0417 7.4123 22.1065C7.49932 22.1714 7.59827 22.2185 7.70349 22.2451C7.80871 22.2717 7.91814 22.2773 8.02554 22.2617C8.13294 22.246 8.23619 22.2093 8.32942 22.1537L11.1394 20.4765L13.9489 22.152C14.1372 22.2643 14.3624 22.2972 14.5749 22.2435C14.7875 22.1898 14.97 22.0538 15.0823 21.8656C15.1946 21.6773 15.2275 21.4521 15.1738 21.2396C15.1201 21.027 14.9841 20.8445 14.7958 20.7322L11.9659 19.0449V17.165C13.7654 17.1302 16.6032 16.9475 17.367 16.7939C18.8116 16.5138 20.2087 15.1936 20.5276 13.7525C20.7094 12.8774 20.8877 10.0596 20.8908 8.4349C20.8877 7.02078 20.7524 4.70364 20.5976 3.54921ZM11.0828 10.4963C11.0628 10.59 11.0146 10.6754 10.9446 10.7409C10.8746 10.8063 10.7862 10.8488 10.6914 10.8625C10.6015 10.8744 10.5137 10.8984 10.4304 10.9339C9.94102 11.1418 9.70569 11.7012 9.89056 12.174C9.92071 12.2647 9.9225 12.3624 9.89569 12.4541C9.86887 12.5458 9.81474 12.6271 9.74049 12.6873C9.44821 12.9375 9.121 13.1439 8.76918 13.2997C8.68169 13.3393 8.58313 13.3472 8.49048 13.3219C8.39782 13.2967 8.31687 13.2399 8.26156 13.1614C8.17693 13.0433 8.06533 12.947 7.93604 12.8807C7.80675 12.8143 7.6635 12.7798 7.51818 12.7799C7.36789 12.7792 7.2198 12.8161 7.08739 12.8872C6.95498 12.9583 6.84244 13.0614 6.76001 13.1871C6.72171 13.2448 6.66947 13.292 6.60812 13.3242C6.54676 13.3565 6.47828 13.3727 6.40898 13.3715C6.35792 13.3696 6.30752 13.3593 6.25978 13.341C5.87543 13.1841 5.51861 12.9667 5.20278 12.6973C5.12497 12.6361 5.06898 12.5515 5.04312 12.4559C5.01725 12.3604 5.02291 12.2591 5.05924 12.167C5.10025 12.0711 5.12453 11.9688 5.13101 11.8647C5.14417 11.6122 5.0602 11.3642 4.89633 11.1716C4.73246 10.979 4.50111 10.8565 4.24974 10.829C4.15138 10.8177 4.05914 10.7755 3.98629 10.7084C3.91345 10.6413 3.86375 10.5529 3.84434 10.4558C3.81065 10.2727 3.79376 10.0869 3.79388 9.90078C3.79416 9.67832 3.8191 9.45658 3.86826 9.23961C3.89024 9.1455 3.94072 9.06046 4.0128 8.99609C4.08488 8.93171 4.17507 8.89113 4.27105 8.87989C4.36542 8.86949 4.45783 8.84577 4.54553 8.80942C5.03705 8.60628 5.2789 8.04907 5.09969 7.57364C5.07002 7.4812 5.06942 7.38188 5.09797 7.28909C5.12651 7.1963 5.18283 7.11449 5.25933 7.05471C5.5588 6.80905 5.89358 6.60991 6.25239 6.46401C6.33711 6.42811 6.43137 6.42144 6.5203 6.44507C6.60923 6.4687 6.68775 6.52128 6.74348 6.5945C6.82863 6.70729 6.93879 6.79878 7.06529 6.86178C7.19179 6.92478 7.33118 6.95757 7.47251 6.95757C7.61383 6.95757 7.75322 6.92478 7.87972 6.86178C8.00622 6.79878 8.11638 6.70729 8.20153 6.5945C8.25719 6.52131 8.33563 6.46876 8.42449 6.44513C8.51334 6.42149 8.60753 6.42814 8.69219 6.46401C9.08103 6.62218 9.44155 6.84255 9.75963 7.11648C9.83261 7.17557 9.88615 7.25523 9.9133 7.34513C9.94044 7.43503 9.93995 7.53101 9.91187 7.62062C9.88817 7.68684 9.87226 7.75559 9.86446 7.82549C9.8389 8.0789 9.91134 8.33248 10.0669 8.53415C10.2225 8.73582 10.4493 8.87027 10.7009 8.9099C10.7937 8.92404 10.88 8.96594 10.9485 9.03007C11.0169 9.0942 11.0644 9.17757 11.0846 9.26919C11.174 9.67363 11.174 10.0927 11.0846 10.4971L11.0828 10.4963ZM15.3021 12.0665H13.2399C13.0207 12.0665 12.8105 11.9795 12.6555 11.8245C12.5005 11.6695 12.4134 11.4593 12.4134 11.2401C12.4134 11.0209 12.5005 10.8107 12.6555 10.6557C12.8105 10.5007 13.0207 10.4136 13.2399 10.4136H15.3035C15.5226 10.4136 15.7329 10.5007 15.8878 10.6557C16.0428 10.8107 16.1299 11.0209 16.1299 11.2401C16.1299 11.4593 16.0428 11.6695 15.8878 11.8245C15.7329 11.9795 15.5226 12.0665 15.3035 12.0665H15.3021ZM17.6971 8.97123H13.2399C13.0207 8.97123 12.8105 8.88416 12.6555 8.72917C12.5005 8.57417 12.4134 8.36396 12.4134 8.14477C12.4134 7.92558 12.5005 7.71536 12.6555 7.56037C12.8105 7.40538 13.0207 7.31831 13.2399 7.31831H17.6985C17.9176 7.31831 18.1279 7.40538 18.2828 7.56037C18.4378 7.71536 18.5249 7.92558 18.5249 8.14477C18.5249 8.36396 18.4378 8.57417 18.2828 8.72917C18.1279 8.88416 17.9176 8.97123 17.6985 8.97123H17.6971Z" fill="#4D8C57"/>
<path d="M7.47247 8.67251C7.22995 8.67251 6.99287 8.74443 6.79122 8.87916C6.58958 9.0139 6.43241 9.20541 6.3396 9.42947C6.24679 9.65353 6.22251 9.90008 6.26982 10.1379C6.31714 10.3758 6.43392 10.5943 6.60541 10.7658C6.7769 10.9373 6.99539 11.0541 7.23325 11.1014C7.47111 11.1487 7.71766 11.1244 7.94172 11.0316C8.16578 10.9388 8.35729 10.7816 8.49203 10.58C8.62676 10.3783 8.69868 10.1412 8.69868 9.89872C8.69685 9.57407 8.56708 9.26324 8.33751 9.03368C8.10795 8.80411 7.79712 8.67434 7.47247 8.67251ZM21.2309 2.85248C21.1619 2.85251 21.0932 2.84566 21.0256 2.83203C19.3974 2.50667 14.5331 2.04907 11.1515 2.08822H11.1285C7.74346 2.05124 2.88082 2.50667 1.25443 2.83203C1.11974 2.85976 0.980891 2.8606 0.84587 2.83451C0.71085 2.80841 0.582315 2.7559 0.46765 2.67999C0.352984 2.60407 0.254447 2.50625 0.1777 2.39214C0.100952 2.27803 0.0475064 2.14988 0.0204321 2.01505C-0.0066422 1.88022 -0.00681128 1.74137 0.0199346 1.60648C0.0466804 1.47159 0.0998141 1.34331 0.176284 1.22901C0.252753 1.11472 0.351051 1.01665 0.465531 0.940459C0.580012 0.864264 0.708418 0.811439 0.843374 0.785017C2.75729 0.402235 7.88005 -0.0336154 11.1394 0.00205294C12.6905 -0.0140413 14.7127 0.0699098 16.8376 0.239552C18.7828 0.395275 20.5023 0.599715 21.4371 0.786757C21.6892 0.839543 21.9129 0.983676 22.0652 1.19144C22.2174 1.3992 22.2875 1.65592 22.2619 1.91224C22.2363 2.16855 22.1169 2.40635 21.9266 2.57992C21.7362 2.75349 21.4885 2.85056 21.2309 2.85248Z" fill="#FF8833"/>
</svg>
