<svg width="19" height="19" viewBox="0 0 19 19" fill="none" xmlns="http://www.w3.org/2000/svg">
<path d="M6.71171 10.4822C6.71171 10.2442 6.51866 10.0514 6.28046 10.0514H4.77554C4.5376 10.0514 4.34451 10.2442 4.34451 10.4822V11.9869C4.34451 12.2253 4.5376 12.4182 4.77554 12.4182H6.28046C6.51866 12.4182 6.71171 12.2253 6.71171 11.9869V10.4822ZM10.4727 10.4822C10.4727 10.2442 10.2796 10.0514 10.0419 10.0514H8.53677C8.29884 10.0514 8.10575 10.2442 8.10575 10.4822V11.9869C8.10575 12.2253 8.29884 12.4182 8.53677 12.4182H10.0419C10.2796 12.4182 10.4727 12.2253 10.4727 11.9869V10.4822ZM14.2339 10.4822C14.2339 10.2442 14.0408 10.0514 13.8029 10.0514H12.298C12.0598 10.0514 11.8667 10.2442 11.8667 10.4822V11.9869C11.8667 12.2253 12.0598 12.4182 12.298 12.4182H13.8029C14.0408 12.4182 14.2339 12.2253 14.2339 11.9869V10.4822ZM6.71171 14.2436C6.71171 14.0052 6.51866 13.8125 6.28046 13.8125H4.77554C4.5376 13.8125 4.34451 14.0052 4.34451 14.2436V15.7481C4.34451 15.9862 4.5376 16.1791 4.77554 16.1791H6.28046C6.51866 16.1791 6.71171 15.9862 6.71171 15.7481V14.2436ZM10.4727 14.2436C10.4727 14.0052 10.2796 13.8125 10.0419 13.8125H8.53677C8.29884 13.8125 8.10575 14.0052 8.10575 14.2436V15.7481C8.10575 15.9862 8.29884 16.1791 8.53677 16.1791H10.0419C10.2796 16.1791 10.4727 15.9862 10.4727 15.7481V14.2436ZM14.2339 14.2436C14.2339 14.0052 14.0408 13.8125 13.8031 13.8125H12.298C12.0598 13.8125 11.8667 14.0052 11.8667 14.2436V15.7481C11.8667 15.9862 12.0598 16.1791 12.298 16.1791H13.8031C14.0408 16.1791 14.2339 15.9862 14.2339 15.7481V14.2436Z" fill="#4D8C57"/>
<path d="M16.925 2.11567V4.41402C16.925 5.45285 16.0822 6.28999 15.0436 6.28999H13.8567C12.818 6.28999 11.9641 5.45285 11.9641 4.41402V2.10742H6.61461V4.41402C6.61461 5.45285 5.76074 6.28999 4.72214 6.28999H3.53506C2.49642 6.28999 1.65372 5.45285 1.65372 4.41402V2.11567C0.745941 2.14304 0 2.89419 0 3.81746V17.2869C0 18.2275 0.762405 19 1.70303 19H16.8756C17.8149 19 18.5787 18.2259 18.5787 17.2869V3.81746C18.5787 2.89419 17.8328 2.14304 16.925 2.11567ZM16.3737 16.4481C16.3737 16.8546 16.0441 17.1844 15.6375 17.1844H2.90876C2.5021 17.1844 2.17251 16.8546 2.17251 16.4481V9.49066C2.17251 9.08401 2.50207 8.75422 2.90876 8.75422H15.6374C16.0441 8.75422 16.3737 9.08401 16.3737 9.49066L16.3737 16.4481Z" fill="#4D8C57"/>
<path d="M3.53066 5.05773H4.70462C5.06096 5.05773 5.34987 4.76924 5.34987 4.4129V0.645055C5.34987 0.288685 5.06096 0 4.70462 0H3.53066C3.17429 0 2.88541 0.288685 2.88541 0.645055V4.4129C2.88541 4.76924 3.17429 5.05773 3.53066 5.05773ZM13.8414 5.05773H15.0153C15.3714 5.05773 15.6604 4.76924 15.6604 4.4129V0.645055C15.6604 0.288685 15.3715 0 15.0153 0H13.8414C13.4851 0 13.1962 0.288685 13.1962 0.645055V4.4129C13.1962 4.76924 13.4851 5.05773 13.8414 5.05773Z" fill="#4D8C57"/>
</svg>
