<svg width="79" height="16" viewBox="0 0 79 16" fill="none" xmlns="http://www.w3.org/2000/svg">
<g clip-path="url(#clip0_203_8003)">
<path d="M36.6102 1.60063C36.4882 2.51766 37.0508 3.20127 37.9276 3.20127C38.8045 3.20127 39.5491 2.51766 39.6712 1.60063C39.7933 0.683604 39.2305 0 38.3535 0C37.4768 0 36.7322 0.683604 36.6102 1.60063Z" fill="#1B005E"/>
<path d="M36.6321 3.95154L35.8801 9.60289L38.2844 9.50557L39.0233 3.95154H36.6321Z" fill="#1B005E"/>
<path fill-rule="evenodd" clip-rule="evenodd" d="M30.3173 12.405C32.2139 12.405 33.8259 11.3383 34.632 9.72263L35.8571 9.77555L35.5361 12.1881H37.9275L38.2348 9.87823L39.5026 9.93299L38.7342 15.7063H41.1257L41.7135 11.2879C42.11 12.0215 42.8561 12.405 43.797 12.405C45.0685 12.405 46.5616 11.7115 47.454 10.2764L48.3699 10.316C48.526 11.5628 49.626 12.405 51.3711 12.405C53.3957 12.405 54.8857 11.2712 55.1121 9.57051C55.3718 7.61975 53.6761 7.30295 52.5663 7.13623L52.4696 7.12059C51.7986 7.01255 51.2865 6.93011 51.35 6.45259C51.3946 6.11915 51.6758 5.80235 52.2655 5.80235C52.744 5.80235 53.0339 6.01911 53.0468 6.40259H55.3741C55.5237 4.91867 54.4699 3.73487 52.5089 3.73487C50.5479 3.73487 49.1331 4.90199 48.9112 6.56931C48.6473 8.55343 50.3952 8.83687 51.4569 9.00363L51.5155 9.01303L51.5972 9.02603L51.5979 9.02615C52.2473 9.12919 52.7372 9.20691 52.6688 9.72059C52.6223 10.0707 52.3475 10.3375 51.6142 10.3375C50.9606 10.3375 50.6866 10.1208 50.7282 9.68723L33.804 9.68687L34.6666 9.65199C34.8988 9.16779 35.0594 8.63595 35.1348 8.06991C35.4675 5.56891 33.958 3.73487 31.471 3.73487C31.4324 3.73487 31.394 3.73531 31.3557 3.73619L31.3634 3.73079L23.8245 3.7308C23.7165 3.73003 23.6139 3.73003 23.5178 3.7308H23.8245C25.7604 3.74459 29.4499 4.00391 28.9752 4.42639C27.7357 5.18035 26.8634 6.49247 26.6535 8.06991C26.3207 10.5709 27.8303 12.405 30.3173 12.405ZM30.6279 10.0707C31.7119 10.0707 32.554 9.25371 32.7115 8.06991C32.8691 6.88611 32.2444 6.06911 31.1604 6.06911C30.0763 6.06911 29.2342 6.88611 29.0767 8.06991C28.9192 9.25371 29.5438 10.0707 30.6279 10.0707Z" fill="#1B005E"/>
<path d="M45.7765 8.06991C45.7179 8.51243 45.5633 8.90367 45.3362 9.22015L47.9814 9.11307C48.0724 8.81899 48.142 8.50471 48.1866 8.16995C48.5393 5.51891 47.0231 3.73486 44.5201 3.73486C42.113 3.73486 40.1078 5.38551 39.7393 8.15327L39.5665 9.45367L42.3376 9.34151C42.1486 9.00603 42.0752 8.57083 42.1418 8.06991C42.2994 6.88611 43.1416 6.06911 44.2256 6.06911C45.3097 6.06911 45.9342 6.88611 45.7765 8.06991Z" fill="#1B005E"/>
<path d="M64.4307 10.9223L64.879 7.55303C65.2321 4.90199 66.854 3.73486 68.767 3.73486C69.8829 3.73486 70.7636 4.18503 71.238 5.05207C71.9433 4.18503 72.928 3.73486 74.0597 3.73486C75.973 3.73486 77.2843 4.90199 76.9316 7.55303L76.3148 12.1882H73.9232L74.5401 7.55303C74.6868 6.45259 74.2275 6.06911 73.5101 6.06911C72.8085 6.06911 72.2476 6.45259 72.1009 7.55303L71.484 12.1882H69.0929L69.7097 7.55303C69.856 6.45259 69.3972 6.06911 68.6956 6.06911C67.9782 6.06911 67.4169 6.45259 67.2706 7.55303L66.6537 12.1882H65.2207L65.2211 12.1892H61.8706C63.2609 12.0404 64.3291 11.6385 64.4285 10.9188L64.4307 10.9223Z" fill="#1B005E"/>
<path d="M59.329 12.4049C57.0014 12.4049 55.6255 11.0043 55.9959 8.2199L56.4147 5.07422C56.4816 4.26166 55.8757 4.16014 54.5391 3.95654H56.5633L56.564 3.95154H58.9556L58.3874 8.2199C58.2143 9.52042 58.7469 10.0706 59.6397 10.0706C60.5325 10.0706 61.2114 9.52042 61.3845 8.2199L61.9526 3.95154H64.3438L63.7757 8.2199C63.4075 10.9877 61.6567 12.4049 59.329 12.4049Z" fill="#1B005E"/>
<path d="M18.6037 11.2133C18.4347 11.018 18.2888 10.802 18.1679 10.5676L16.4605 10.4694C15.5774 11.6588 14.1902 12.4049 12.6039 12.4049C10.1169 12.4049 8.60734 10.5709 8.94016 8.06991C9.27298 5.56891 11.2707 3.73486 13.7576 3.73486C16.2446 3.73486 17.7542 5.56891 17.4214 8.06991C17.3453 8.64159 17.1822 9.17843 16.9463 9.66647L13.8704 9.83227C14.4693 9.50739 14.8913 8.87307 14.9982 8.06991C15.1557 6.88611 14.5311 6.06911 13.447 6.06911C12.363 6.06911 11.5209 6.88611 11.3634 8.06991C11.2454 8.95607 11.5658 9.63671 12.1891 9.92291L9.49029 10.0684H21.8301V10.0699C22.8857 10.0409 23.7002 9.23219 23.8549 8.06991C24.0124 6.88611 23.3877 6.06911 22.3037 6.06911C21.2196 6.06911 20.3776 6.88611 20.22 8.06991C20.1442 8.64007 20.2497 9.12515 20.5007 9.47483L17.8369 9.61843C17.7397 9.14327 17.7233 8.62291 17.7968 8.06991C18.1296 5.56891 20.1273 3.73486 22.6143 3.73486C25.1013 3.73486 26.6109 5.56891 26.2781 8.06991C25.9566 10.4857 24.0817 12.2793 21.7129 12.3986C22.2707 12.7303 23.081 12.9985 23.6766 13.1955C23.8754 13.2613 24.0502 13.3192 24.1837 13.3688C24.7246 13.51 25.0703 14.0371 24.9866 14.6658C24.8886 15.4026 24.238 15.9999 23.5335 15.9999H19.7066C18.4557 15.9999 17.5403 15.0584 17.4879 13.8159L12.7678 13.3323H17.5103L17.5104 13.3317H21.5913C20.6582 12.9543 19.6722 12.1993 19.0383 11.6295C18.8802 11.5043 18.7353 11.3653 18.6042 11.2139L18.6037 11.2133Z" fill="#1B005E"/>
<path d="M0 1.28384L1.95338 1.61216L0.54603 12.1881H8.05479L8.38761 9.68714H3.46147L4.57969 1.28381L0 1.28384Z" fill="#1B005E"/>
<path d="M79 3.15079C79 3.68226 78.5922 4.11311 78.0887 4.11311C77.5856 4.11311 77.1777 3.68226 77.1777 3.15079C77.1777 2.61932 77.5856 2.18848 78.0887 2.18848C78.5922 2.18848 79 2.61932 79 3.15079Z" fill="#1B005E"/>
</g>
<defs>
<clipPath id="clip0_203_8003">
<rect width="79" height="16" fill="white"/>
</clipPath>
</defs>
</svg>
