<svg width="84" height="16" viewBox="0 0 84 16" fill="none" xmlns="http://www.w3.org/2000/svg">
<g clip-path="url(#clip0_203_8054)">
<path d="M80.9462 4.09436L80.9925 4.11012C81.5946 4.12584 82.1198 4.55076 82.2741 5.133L82.2898 5.19596L83.8493 11.648H81.7799L80.8535 7.80824L80.1277 10.153C79.9115 10.7982 79.3246 11.2546 78.6452 11.2546C77.9967 11.2546 77.4099 10.8297 77.1936 10.216L77.1626 10.153L76.4368 7.80824L75.5105 11.648H73.4564L75.0006 5.19596L75.0163 5.133C75.1863 4.51928 75.7264 4.09436 76.3599 4.09436L76.4062 4.11012C76.9774 4.12584 77.4715 4.50352 77.6725 5.0386L77.6878 5.0858L78.6452 8.15444L79.6025 5.0858L79.6183 5.0386C79.8188 4.47204 80.344 4.09436 80.9462 4.09436Z" fill="#19214F"/>
<path d="M69.6619 11.648C67.6078 11.648 65.9557 9.96416 65.9557 7.8712V4.09436H67.9477V7.8712C67.9477 8.83112 68.7198 9.61796 69.6619 9.61796C70.5882 9.61796 71.3603 8.83112 71.3603 7.8712V4.09436H73.3681V7.8712C73.3681 9.96416 71.7003 11.648 69.6619 11.648Z" fill="#19214F"/>
<path d="M65.5926 4.09436V6.14016C64.7279 6.14016 63.9711 6.7224 63.7242 7.5722L63.369 8.7682C62.8748 10.4835 61.3306 11.648 59.5854 11.648V9.61796C60.4349 9.61796 61.207 9.03572 61.4539 8.18592L61.7938 6.98992C62.288 5.27464 63.8322 4.09436 65.5926 4.09436Z" fill="#19214F"/>
<path d="M57.5847 7.3676C57.909 7.3676 58.1869 7.10008 58.1869 6.75388C58.1869 6.4234 57.909 6.14016 57.5847 6.14016H55.3764V7.3676H57.5847ZM57.5847 4.09436C59.021 4.09436 60.1946 5.29036 60.1946 6.75388C60.1946 8.2174 59.021 9.4134 57.5847 9.4134H55.3764V11.648H53.3843V5.93556C53.3843 4.92844 54.1874 4.09436 55.1758 4.09436H57.5847Z" fill="#19214F"/>
<path d="M50.4161 4.09436H52.4081V11.648H50.4161V4.09436Z" fill="#19214F"/>
<path d="M45.924 6.04576H45.5225C44.5188 6.04576 43.7157 6.86408 43.7157 7.87124C43.7157 8.89412 44.5188 9.71244 45.5225 9.71244H45.924C46.9277 9.71244 47.7308 8.89412 47.7308 7.87124C47.7308 6.86408 46.9277 6.04576 45.924 6.04576ZM45.5225 4H45.924C48.024 4 49.7229 5.73104 49.7229 7.87124C49.7229 10.0272 48.024 11.7582 45.924 11.7582H45.5225C43.4225 11.7582 41.7236 10.0272 41.7236 7.87124C41.7236 5.73104 43.4225 4 45.5225 4Z" fill="#19214F"/>
<path d="M40.8774 6.14016H36.9859C36.0439 6.14016 35.2718 6.927 35.2718 7.8712C35.2718 8.83112 36.0439 9.61796 36.9859 9.61796H38.9162C39.117 9.58648 39.2869 9.4134 39.2869 9.19308V9.00424H36.2756V6.95848H39.6268C40.5531 6.95848 41.2789 7.71384 41.2789 8.64228V9.19308C41.2789 10.5307 40.2442 11.6165 38.9317 11.648H36.9859C34.932 11.648 33.2797 9.96416 33.2797 7.8712C33.2797 5.79396 34.932 4.09436 36.9859 4.09436H40.8774V6.14016Z" fill="#19214F"/>
<path d="M29.1274 6.04576H28.7259C27.7221 6.04576 26.9191 6.86408 26.9191 7.87124C26.9191 8.89412 27.7221 9.71244 28.7259 9.71244H29.1274C30.1312 9.71244 30.9341 8.89412 30.9341 7.87124C30.9341 6.86408 30.1312 6.04576 29.1274 6.04576ZM28.7259 4H29.1274C31.2276 4 32.9262 5.73104 32.9262 7.87124C32.9262 10.0272 31.2276 11.7582 29.1274 11.7582H28.7259C26.6257 11.7582 24.927 10.0272 24.927 7.87124C24.927 5.73104 26.6257 4 28.7259 4Z" fill="#19214F"/>
<path d="M18.4486 8.59508V4.09436H20.4407V8.59508C20.4407 9.1616 20.8885 9.61796 21.4445 9.61796H24.4558V11.648H21.4445C19.7921 11.648 18.4486 10.2789 18.4486 8.59508Z" fill="#19214F"/>
<path d="M2.98801 1.00447C4.33389 0.243575 5.86976 -0.0973888 7.40429 0.0239991C8.93874 0.145392 10.4044 0.723884 11.6189 1.68728C12.8334 2.65072 13.7431 3.95701 14.2351 5.44312C14.727 6.92924 14.7798 8.53004 14.3861 10.0463L14.3072 10.3287C13.8883 11.7318 13.0983 12.9927 12.0214 13.9713L11.8025 14.1627C10.6939 15.0978 9.35269 15.7057 7.92485 15.917L7.63886 15.9541C6.67231 16.0604 5.69814 15.9815 4.76508 15.7267L6.10558 14.3607C6.63302 14.4202 7.16842 14.4123 7.69907 14.3338C8.91758 14.1535 10.0574 13.6122 10.9765 12.7771C11.8955 11.9421 12.5533 10.8498 12.8682 9.63688C13.1634 8.49972 13.1449 7.30304 12.8172 6.17828L12.7474 5.95448C12.3538 4.7656 11.6261 3.72052 10.6545 2.94978C9.74365 2.22728 8.65616 1.77566 7.51239 1.64197L7.28276 1.61931C6.05514 1.5222 4.82639 1.79498 3.74967 2.40369C3.03253 2.80915 2.40465 3.35255 1.89668 3.99861H0C0.710636 2.74514 1.74209 1.70887 2.98801 1.00447Z" fill="#3754FA"/>
<path d="M4.20578 3.06049C5.11035 2.56782 6.13241 2.3433 7.15587 2.41166C8.1793 2.48005 9.16375 2.83882 9.99743 3.4476C10.831 4.05637 11.4809 4.89073 11.8734 5.85621C12.2659 6.82177 12.3851 7.88049 12.218 8.91165C12.0509 9.94277 11.6039 10.906 10.9277 11.6917C10.2515 12.4775 9.37276 13.0548 8.3913 13.3581L8.20654 13.412C7.76326 13.532 7.30868 13.5932 6.85343 13.598L9.49527 10.9062C9.58351 10.8211 9.66853 10.7322 9.74904 10.6386C10.2324 10.077 10.5519 9.38849 10.6713 8.65149C10.7907 7.91453 10.7053 7.15801 10.4248 6.46793C10.1443 5.77781 9.6798 5.18153 9.08399 4.74645L8.97129 4.66673C8.40037 4.27985 7.73889 4.05165 7.05315 4.00581L6.91628 3.99877C6.85508 3.99687 6.79373 3.99698 6.73265 3.99799H2.95233C3.3228 3.62842 3.74421 3.31193 4.20578 3.06049Z" fill="#3754FA"/>
<path d="M3.3405 12.6613C3.17042 12.8348 3.19393 13.1226 3.38983 13.2651C3.54469 13.3776 3.75672 13.3596 3.89128 13.2226L7.90364 9.13377C8.51841 8.50729 8.51841 7.49145 7.90364 6.86497C7.60843 6.56417 7.20789 6.39513 6.79045 6.39513H2.40426C2.229 6.39513 2.07451 6.51297 2.02506 6.68429C1.95077 6.94201 2.14039 7.20009 2.40399 7.20029L6.56439 7.20385C7.35089 7.20425 7.74459 8.17329 7.18835 8.74017L3.3405 12.6613ZM5.00148 14.3539C4.32438 15.0438 3.25715 15.1342 2.47774 14.5674C1.49189 13.8505 1.37396 12.4027 2.23027 11.5299L4.90665 8.80257L2.40317 8.80037C1.09174 8.79953 0.148784 7.51481 0.518829 6.23269C0.764812 5.38045 1.5325 4.79529 2.40426 4.79529H6.79045C7.62432 4.79529 8.42421 5.13273 9.01385 5.73357C10.2418 6.98493 10.2418 9.01381 9.01385 10.2651L5.00148 14.3539Z" fill="#3754FA"/>
</g>
<defs>
<clipPath id="clip0_203_8054">
<rect width="84" height="16" fill="white"/>
</clipPath>
</defs>
</svg>
