<svg width="56" height="42" viewBox="0 0 56 42" fill="none" xmlns="http://www.w3.org/2000/svg">
<path d="M36.9003 25.7428C39.4712 22.9148 40.9156 19.0792 40.9156 15.0798C40.9156 11.0804 39.4712 7.24475 36.9003 4.41677C34.3294 1.58876 30.8425 7.1912e-07 27.2067 0C23.5709 -7.1912e-07 20.084 1.58875 17.513 4.41676L22.0368 9.3928C22.7506 10.178 23.9033 10.1388 24.8114 9.65374C25.551 9.25874 26.3689 9.04783 27.2067 9.04783C28.661 9.04783 30.0558 9.68336 31.0841 10.8146C32.1125 11.9458 32.6902 13.48 32.6902 15.0798C32.6902 16.0013 32.4986 16.9011 32.1395 17.7146C31.6985 18.7135 31.6628 19.9815 32.3766 20.7667L36.9003 25.7428Z" fill="#297AFF"/>
<path d="M33.8948 29.2532H27.3482C26.4025 29.2532 25.4954 28.807 24.8266 28.0128L16.2173 17.7892C15.5485 16.9951 15.1728 15.9179 15.1728 14.7948V7.02075L33.8948 29.2532Z" fill="#34C2FF"/>
<path d="M22.1936 29.2532H17.9811C16.4301 29.2532 15.1728 27.5769 15.1728 25.5088V19.8922L22.1936 29.2532Z" fill="#34C2FF"/>
<path d="M51.8437 33.6205C54.1227 33.6205 55.9781 35.6306 55.9781 38.0996V41.2677H53.9613V38.0996C53.9613 37.1929 53.4571 36.4063 52.7512 36.0348V41.2677H50.7344V38.0996C50.7344 37.1929 50.23 36.4063 49.5241 36.0348V41.2677H47.5073V33.6205H48.6166C49.3829 33.6205 50.109 33.8608 50.7344 34.265V33.6205H51.8437Z" fill="#0F2D5E"/>
<path d="M46.7064 38.0996C46.7064 39.8475 45.3852 41.2677 43.7817 41.2677C42.1683 41.2677 40.8573 39.8475 40.8573 38.0996V33.6205H42.8742V38.0996C42.8742 38.6458 43.2776 39.0828 43.7817 39.0828C44.2759 39.0828 44.6896 38.6458 44.6896 38.0996V33.6205H46.7064V38.0996Z" fill="#0F2D5E"/>
<path d="M40.2422 38.8097C40.2422 40.1534 39.2337 41.2459 37.9934 41.2459H34.9983V39.061H37.9934C38.1144 39.061 38.2254 38.9517 38.2254 38.8097C38.2254 38.6786 38.1144 38.5694 37.9934 38.5694H37.1766C35.9161 38.5694 34.8976 37.466 34.8976 36.1004C34.8976 34.7348 35.9161 33.6205 37.1766 33.6205H40.1413V35.8054H37.1766C37.0254 35.8054 36.9144 35.9365 36.9144 36.1004C36.9144 36.2533 37.0254 36.3844 37.1766 36.3844H37.9934C39.2337 36.3844 40.2422 37.4769 40.2422 38.8097Z" fill="#0F2D5E"/>
<path d="M31.9435 33.6205C33.3555 33.6205 34.515 34.8768 34.515 36.4063C34.515 37.9466 33.3555 39.192 31.9435 39.192H31.1872V41.2677H29.1703V33.6205H31.9435ZM31.9435 37.0071C32.2462 37.0071 32.4982 36.7449 32.4982 36.4063C32.4982 36.0785 32.2462 35.8054 31.9435 35.8054H31.1872V37.0071H31.9435Z" fill="#0F2D5E"/>
<path d="M28.2624 41.2677H26.2456V33.6205H28.2624V41.2677Z" fill="#0F2D5E"/>
<path d="M25.6263 37.4441C25.6263 39.5526 24.0329 41.2677 22.0968 41.2677C20.1504 41.2677 18.5672 39.5526 18.5672 37.4441C18.5672 35.3466 20.1504 33.6205 22.0968 33.6205C24.0329 33.6205 25.6263 35.3466 25.6263 37.4441ZM23.6095 37.4441C23.6095 36.5483 22.9236 35.8054 22.0968 35.8054C21.2597 35.8054 20.584 36.5483 20.584 37.4441C20.584 38.3509 21.2597 39.0828 22.0968 39.0828C22.9236 39.0828 23.6095 38.3509 23.6095 37.4441Z" fill="#0F2D5E"/>
<path d="M17.9805 36.9525V41.2677H15.4592C13.5131 41.2677 11.9298 39.5526 11.9298 37.4441C11.9298 35.3466 13.5131 33.6205 15.4592 33.6205H17.9805V35.8054H15.4592C14.6224 35.8054 13.9468 36.5483 13.9468 37.4441C13.9468 38.3509 14.6224 39.0828 15.4592 39.0828H15.9636V36.9525H17.9805Z" fill="#0F2D5E"/>
<path d="M11.6029 37.4441C11.6029 39.5526 10.0096 41.2677 8.07345 41.2677C6.12715 41.2677 4.54395 39.5526 4.54395 37.4441C4.54395 35.3466 6.12715 33.6205 8.07345 33.6205C10.0096 33.6205 11.6029 35.3466 11.6029 37.4441ZM9.58607 37.4441C9.58607 36.5483 8.90036 35.8054 8.07345 35.8054C7.23644 35.8054 6.5608 36.5483 6.5608 37.4441C6.5608 38.3509 7.23644 39.0828 8.07345 39.0828C8.90036 39.0828 9.58607 38.3509 9.58607 37.4441Z" fill="#0F2D5E"/>
<path d="M4.33624 39.0828V41.2677H1.81516C0.80674 41.2677 0 40.3938 0 39.3013V33.6205H2.01685V39.0828H4.33624Z" fill="#0F2D5E"/>
</svg>
