<svg width="71" height="19" viewBox="0 0 71 19" fill="none" xmlns="http://www.w3.org/2000/svg">
<path fill-rule="evenodd" clip-rule="evenodd" d="M0 2.05507L1.24629 1.51257C5.87938 -0.504188 11.1423 -0.504188 15.7754 1.51257L17.0217 2.05507V10.4383C17.0217 15.1387 13.2113 18.9492 8.51085 18.9492C3.81043 18.9492 0 15.1387 0 10.4383V2.05507ZM2.69651 3.82797V7.49663C2.98407 7.42703 3.26646 7.33508 3.54105 7.22134C4.23626 6.93338 4.86793 6.5113 5.40002 5.97921C5.93211 5.44712 6.35418 4.81545 6.64215 4.12024C6.82212 3.68576 6.94751 3.23177 7.01624 2.76868C5.5454 2.91107 4.09011 3.26418 2.69651 3.82797ZM2.69699 10.515C2.98439 10.5846 3.26661 10.6765 3.54105 10.7902C4.23626 11.0782 4.86793 11.5002 5.40002 12.0323C5.93211 12.5644 6.35418 13.1961 6.64215 13.8913C6.92894 14.5836 7.07711 15.3255 7.07833 16.0748C4.58362 15.4427 2.73169 13.198 2.69699 10.515ZM8.42658 11.512C8.10413 11.0127 7.72899 10.5478 7.30674 10.1256C6.8845 9.70335 6.4196 9.32822 5.9204 9.00577C6.4196 8.68332 6.8845 8.30818 7.30674 7.88593C7.72899 7.46369 8.10413 6.99879 8.42658 6.49958C8.74903 6.99879 9.12417 7.46369 9.54642 7.88593C9.96866 8.30818 10.4336 8.68332 10.9328 9.00577C10.4336 9.32822 9.96866 9.70335 9.54642 10.1256C9.12417 10.5478 8.74903 11.0127 8.42658 11.512ZM9.77483 16.1149C12.3662 15.5404 14.3072 13.2368 14.3251 10.4768C13.9793 10.5496 13.6401 10.6543 13.3121 10.7902C12.6169 11.0782 11.9852 11.5002 11.4531 12.0323C10.9211 12.5644 10.499 13.1961 10.211 13.8913C9.92304 14.5865 9.77483 15.3316 9.77483 16.0841V16.1149ZM13.3121 7.22134C13.6402 7.35722 13.9794 7.462 14.3252 7.53476V3.82797C12.8777 3.24236 11.3636 2.88406 9.83463 2.75309C9.90285 3.22159 10.029 3.68089 10.211 4.12024C10.499 4.81545 10.9211 5.44712 11.4531 5.97921C11.9852 6.5113 12.6169 6.93338 13.3121 7.22134Z" fill="#193070"/>
<path fill-rule="evenodd" clip-rule="evenodd" d="M37.2704 17.2767C36.8659 17.2767 36.5019 17.1796 36.1783 16.9855C35.8547 16.7859 35.5986 16.5162 35.4098 16.1765C35.2264 15.8313 35.1348 15.443 35.1348 15.0116C35.1348 14.5747 35.2264 14.1864 35.4098 13.8467C35.5986 13.5069 35.852 13.24 36.1702 13.0458C36.4938 12.8463 36.8605 12.7465 37.2704 12.7465C37.6425 12.7465 37.9742 12.8274 38.2654 12.9892C38.5039 13.1216 38.7007 13.292 38.8559 13.5004V11.0558H39.4627V17.1796H38.8559V16.473C38.7107 16.7027 38.5165 16.887 38.2735 17.0259C37.9769 17.1931 37.6425 17.2767 37.2704 17.2767ZM37.3028 16.6699C37.594 16.6699 37.8555 16.5971 38.0874 16.4515C38.3247 16.3059 38.5108 16.109 38.6456 15.861C38.7858 15.6075 38.8559 15.3244 38.8559 15.0116C38.8559 14.6988 38.7858 14.4183 38.6456 14.1703C38.5108 13.9168 38.3247 13.7172 38.0874 13.5716C37.8555 13.426 37.594 13.3532 37.3028 13.3532C37.0169 13.3532 36.7581 13.426 36.5262 13.5716C36.2943 13.7172 36.1109 13.9141 35.9761 14.1622C35.8466 14.4102 35.7819 14.6934 35.7819 15.0116C35.7819 15.3244 35.8466 15.6075 35.9761 15.861C36.1109 16.109 36.2916 16.3059 36.5181 16.4515C36.75 16.5971 37.0115 16.6699 37.3028 16.6699Z" fill="#788199"/>
<path fill-rule="evenodd" clip-rule="evenodd" d="M41.3395 16.9854C41.6685 17.1796 42.0352 17.2767 42.4397 17.2767C42.7363 17.2767 43.006 17.2281 43.2487 17.131C43.4967 17.0286 43.7098 16.8965 43.8877 16.7346C44.0657 16.5674 44.1978 16.3867 44.2841 16.1926L43.7664 15.9176C43.6316 16.1441 43.4563 16.3328 43.2406 16.4838C43.0249 16.6348 42.7579 16.7103 42.4397 16.7103C42.1647 16.7103 41.9058 16.6402 41.6631 16.5C41.4258 16.3598 41.2371 16.1629 41.0969 15.9095C40.988 15.7003 40.9319 15.463 40.9285 15.1976H44.3408C44.3515 15.1275 44.3596 15.0601 44.365 14.9953C44.3704 14.9252 44.3731 14.8632 44.3731 14.8093C44.3731 14.5504 44.3273 14.2996 44.2356 14.057C44.1439 13.8089 44.0118 13.5878 43.8392 13.3936C43.6666 13.1941 43.4563 13.0377 43.2082 12.9244C42.9655 12.8058 42.6878 12.7465 42.375 12.7465C41.9813 12.7465 41.6254 12.8435 41.3072 13.0377C40.9944 13.2318 40.7463 13.4988 40.5629 13.8385C40.3796 14.1729 40.2879 14.5585 40.2879 14.9953C40.2879 15.4322 40.3823 15.8232 40.571 16.1683C40.7598 16.5135 41.016 16.7858 41.3395 16.9854ZM40.9381 14.6313C40.9582 14.4401 41.0084 14.2675 41.0888 14.1136C41.2182 13.8601 41.3962 13.6633 41.6227 13.5231C41.8546 13.3828 42.1053 13.3127 42.375 13.3127C42.6446 13.3127 42.8873 13.3828 43.1031 13.5231C43.3188 13.6579 43.4833 13.8439 43.5965 14.0812C43.6818 14.2479 43.7238 14.4313 43.7227 14.6313H40.9381Z" fill="#788199"/>
<path d="M45.2001 12.8435H45.8068V13.3717C45.9173 13.2011 46.0603 13.0628 46.2355 12.9568C46.4728 12.8166 46.7317 12.7465 47.0121 12.7465C47.3465 12.7465 47.6485 12.8408 47.9181 13.0296C48.1266 13.1755 48.2884 13.3552 48.4034 13.5688C48.5144 13.3339 48.6735 13.1488 48.8808 13.0134C49.1505 12.8354 49.4471 12.7465 49.7706 12.7465C50.0619 12.7465 50.3288 12.8166 50.5715 12.9568C50.8196 13.097 51.0164 13.2912 51.162 13.5392C51.3131 13.7819 51.3886 14.057 51.3886 14.3644V17.1796H50.7818V14.599C50.7818 14.3347 50.7333 14.1109 50.6362 13.9275C50.5446 13.7442 50.4178 13.6039 50.256 13.5069C50.0942 13.4044 49.9082 13.3532 49.6978 13.3532C49.4929 13.3532 49.3069 13.4044 49.1397 13.5069C48.9725 13.6039 48.8404 13.7469 48.7433 13.9356C48.6462 14.119 48.5977 14.3401 48.5977 14.599V17.1796H47.991V14.599C47.991 14.3347 47.9424 14.1109 47.8453 13.9275C47.7537 13.7442 47.6269 13.6039 47.4651 13.5069C47.3033 13.4044 47.1173 13.3532 46.907 13.3532C46.6966 13.3532 46.5079 13.4044 46.3407 13.5069C46.1789 13.6039 46.0495 13.7469 45.9524 13.9356C45.8553 14.119 45.8068 14.3401 45.8068 14.599V17.1796H45.2001V12.8435Z" fill="#788199"/>
<path d="M52.3142 18.9594C52.2279 18.9594 52.1389 18.9513 52.0472 18.9351C51.9609 18.9243 51.8746 18.9027 51.7884 18.8704V18.3041C51.8423 18.3095 51.9097 18.3176 51.9906 18.3284C52.0769 18.3446 52.1632 18.3527 52.2495 18.3527C52.5137 18.3527 52.716 18.296 52.8562 18.1828C52.9964 18.0749 53.1339 17.8646 53.2687 17.5518L53.4255 17.1829L51.6913 12.8436H52.3465L53.7661 16.4229L55.1779 12.8436H55.8493L53.8674 17.7298C53.7811 17.9401 53.6705 18.1396 53.5357 18.3284C53.4063 18.5171 53.2418 18.6681 53.0422 18.7814C52.8427 18.9 52.6 18.9594 52.3142 18.9594Z" fill="#788199"/>
<path fill-rule="evenodd" clip-rule="evenodd" d="M31.4436 17.123C31.6593 17.2254 31.9047 17.2767 32.1799 17.2767C32.4334 17.2767 32.6653 17.2389 32.8754 17.1634C33.0911 17.0825 33.2772 16.9773 33.4336 16.8479C33.542 16.7576 33.6309 16.6613 33.7006 16.5589V17.1796H34.3074V14.2026C34.3074 13.9167 34.2373 13.666 34.0969 13.4502C33.9621 13.2291 33.7707 13.0566 33.5228 12.9325C33.2799 12.8085 32.9996 12.7465 32.6813 12.7465C32.4388 12.7465 32.204 12.7923 31.9775 12.884C31.751 12.9703 31.5487 13.0889 31.3708 13.2399C31.1984 13.3909 31.0715 13.5581 30.9906 13.7415L31.5408 14.0408C31.6377 13.8305 31.786 13.6606 31.9857 13.5311C32.1851 13.3963 32.417 13.3289 32.6813 13.3289C32.9833 13.3289 33.2288 13.4098 33.4176 13.5716C33.6062 13.7334 33.7006 13.9437 33.7006 14.2026V14.4264L32.1312 14.6879C31.813 14.7419 31.5514 14.8336 31.3467 14.963C31.1416 15.0924 30.9906 15.2515 30.8935 15.4403C30.7966 15.6236 30.748 15.8286 30.748 16.0551C30.748 16.2924 30.8099 16.5027 30.9339 16.6861C31.0581 16.8695 31.2279 17.0151 31.4436 17.123ZM33.7006 14.9765V15.3027C33.7006 15.567 33.6387 15.807 33.5145 16.0227C33.3905 16.2384 33.2179 16.411 32.9969 16.5404C32.7758 16.6645 32.517 16.7265 32.2202 16.7265C31.9775 16.7265 31.7779 16.6591 31.6215 16.5243C31.4707 16.3894 31.3952 16.225 31.3952 16.0308C31.3952 15.8313 31.4626 15.6587 31.5973 15.5131C31.7375 15.3675 31.964 15.2677 32.2768 15.2138L33.7006 14.9765Z" fill="#788199"/>
<path d="M28.3793 17.2767C27.9533 17.2767 27.5785 17.1769 27.2549 16.9773C26.9313 16.7777 26.6778 16.5081 26.4945 16.1683C26.3111 15.8232 26.2194 15.4349 26.2194 15.0034C26.2194 14.572 26.3111 14.1864 26.4945 13.8466C26.6778 13.5069 26.9313 13.2399 27.2549 13.0458C27.5785 12.8462 27.9533 12.7465 28.3793 12.7465C28.649 12.7465 28.9024 12.795 29.1397 12.8921C29.377 12.9891 29.5874 13.1213 29.7707 13.2885C29.9541 13.4502 30.0916 13.639 30.1833 13.8547L29.6332 14.1379C29.5253 13.906 29.3609 13.7172 29.1397 13.5716C28.9186 13.426 28.6652 13.3532 28.3793 13.3532C28.0935 13.3532 27.8346 13.426 27.6027 13.5716C27.3762 13.7118 27.1956 13.9087 27.0607 14.1621C26.9313 14.4102 26.8666 14.6933 26.8666 15.0115C26.8666 15.3243 26.9313 15.6075 27.0607 15.8609C27.1956 16.109 27.3762 16.3058 27.6027 16.4515C27.8346 16.5971 28.0935 16.6699 28.3793 16.6699C28.6652 16.6699 28.9159 16.5971 29.1316 16.4515C29.3528 16.3058 29.5199 16.1117 29.6332 15.869L30.1833 16.1683C30.0916 16.3787 29.9541 16.5674 29.7707 16.7346C29.5874 16.9018 29.377 17.034 29.1397 17.131C28.9024 17.2281 28.649 17.2767 28.3793 17.2767Z" fill="#788199"/>
<path fill-rule="evenodd" clip-rule="evenodd" d="M23.1872 11.1528L20.9868 17.1796H21.6663L22.1922 15.7072H24.886L25.4037 17.1796H26.0832L23.8829 11.1528H23.1872ZM24.6595 15.1005H22.4025L23.5347 11.9125L24.6595 15.1005Z" fill="#788199"/>
<path d="M21.5352 1.39099V8.5844H26.0734V7.28089H23.0317V1.39099H21.5352Z" fill="#0C193E"/>
<path d="M44.3903 8.58444H45.8386V3.3125H44.3903V8.58444Z" fill="#0C193E"/>
<path d="M44.3903 1.39099V2.83934H45.8386V1.39099H44.3903Z" fill="#0C193E"/>
<path fill-rule="evenodd" clip-rule="evenodd" d="M46.6088 10.5156V3.31252H47.9606V3.85944C48.1168 3.67564 48.3098 3.52873 48.5398 3.41873C48.8423 3.27067 49.1868 3.19666 49.5731 3.19666C50.0751 3.19666 50.5288 3.31896 50.9345 3.56357C51.34 3.80817 51.6619 4.13967 51.9 4.55809C52.1381 4.97006 52.2573 5.43352 52.2573 5.94849C52.2573 6.45702 52.1381 6.92048 51.9 7.33889C51.6683 7.75731 51.3496 8.08881 50.9441 8.33342C50.5386 8.57802 50.0783 8.70033 49.5633 8.70033C49.2028 8.70033 48.8681 8.63596 48.5592 8.50722C48.3689 8.4222 48.2016 8.31299 48.0571 8.1796V10.5156H46.6088ZM49.3895 7.39682C49.6599 7.39682 49.898 7.33567 50.1041 7.21337C50.3101 7.09107 50.471 6.92048 50.5868 6.70162C50.7027 6.48277 50.7605 6.23172 50.7605 5.94849C50.7605 5.66526 50.7027 5.41743 50.5868 5.20501C50.471 4.98616 50.3101 4.81557 50.1041 4.69327C49.898 4.56453 49.6599 4.50015 49.3895 4.50015C49.132 4.50015 48.9003 4.56131 48.6943 4.68361C48.4948 4.80591 48.3371 4.97648 48.2213 5.19536C48.1117 5.41421 48.0571 5.66526 48.0571 5.94849C48.0571 6.23172 48.1117 6.48277 48.2213 6.70162C48.3371 6.92048 48.4948 7.09107 48.6943 7.21337C48.9003 7.33567 49.132 7.39682 49.3895 7.39682Z" fill="#0C193E"/>
<path d="M53.3665 8.2948C53.7978 8.56515 54.303 8.70033 54.8824 8.70033C55.2943 8.70033 55.6516 8.63274 55.9541 8.49756C56.2567 8.35595 56.4918 8.16283 56.6591 7.91824C56.8329 7.67361 56.9198 7.38718 56.9198 7.05888C56.9198 6.67909 56.8039 6.36047 56.5721 6.10298C56.3404 5.83906 56.0057 5.64272 55.568 5.51398L54.7279 5.26294C54.5991 5.22433 54.4898 5.18248 54.3996 5.13741C54.316 5.09237 54.2548 5.04086 54.2162 4.98294C54.1776 4.925 54.1583 4.86062 54.1583 4.78982C54.1583 4.65464 54.2097 4.54843 54.3128 4.47119C54.4222 4.39394 54.5702 4.35533 54.7569 4.35533C55.0144 4.35533 55.2429 4.42291 55.4425 4.55809C55.6484 4.68683 55.79 4.86062 55.8673 5.07949L56.939 4.5774C56.7781 4.13967 56.5014 3.80173 56.1087 3.56357C55.7224 3.31896 55.2719 3.19666 54.7569 3.19666C54.3642 3.19666 54.0167 3.26746 53.714 3.40907C53.4115 3.54425 53.1766 3.73414 53.0092 3.97874C52.8419 4.22337 52.7583 4.5098 52.7583 4.8381C52.7583 5.21145 52.8741 5.53651 53.1058 5.81331C53.3375 6.08367 53.669 6.27999 54.1003 6.40231L54.9982 6.65334C55.1142 6.68553 55.2107 6.72416 55.2879 6.76921C55.3651 6.81427 55.4231 6.86577 55.4617 6.9237C55.5005 6.9752 55.5197 7.03956 55.5197 7.11682C55.5197 7.26487 55.4649 7.38074 55.3555 7.46442C55.2461 7.54809 55.0884 7.58994 54.8824 7.58994C54.5991 7.58994 54.3418 7.50948 54.1099 7.34855C53.8782 7.18762 53.6948 6.96554 53.5596 6.68231L52.4976 7.1844C52.6519 7.64788 52.9416 8.01801 53.3665 8.2948Z" fill="#0C193E"/>
<path d="M62.9858 3.31252H64.3376V3.94937C64.4366 3.75669 64.5749 3.60233 64.7529 3.48631C65.049 3.29321 65.4029 3.19666 65.815 3.19666C66.2527 3.19666 66.6357 3.3093 66.964 3.53459C67.1592 3.66226 67.3117 3.81621 67.4216 3.99646C67.5611 3.7925 67.7273 3.62889 67.9199 3.50562C68.2417 3.29964 68.6183 3.19666 69.0496 3.19666C69.4293 3.19666 69.7642 3.28033 70.0537 3.4477C70.3498 3.61505 70.5816 3.85 70.7489 4.15255C70.9163 4.44866 71 4.79626 71 5.19536V8.58446H69.5517V5.50433C69.5517 5.29835 69.5131 5.12134 69.4359 4.97328C69.3649 4.82523 69.262 4.70936 69.1268 4.62567C68.9916 4.54199 68.8275 4.50015 68.6343 4.50015C68.4478 4.50015 68.2836 4.54199 68.1421 4.62567C68.0067 4.70936 67.9006 4.82523 67.8234 4.97328C67.7526 5.12134 67.7172 5.29835 67.7172 5.50433V8.58446H66.2688V5.50433C66.2688 5.29835 66.2302 5.12134 66.1529 4.97328C66.0821 4.82523 65.9791 4.70936 65.844 4.62567C65.7088 4.54199 65.5447 4.50015 65.3515 4.50015C65.1648 4.50015 65.0006 4.54199 64.8591 4.62567C64.7239 4.70936 64.6177 4.82523 64.5404 4.97328C64.4696 5.12134 64.4342 5.29835 64.4342 5.50433V8.58446H62.9858V3.31252Z" fill="#0C193E"/>
<path d="M59.3878 8.7003C58.963 8.7003 58.5993 8.61019 58.2968 8.42996C58.0007 8.24328 57.7753 7.9858 57.621 7.6575C57.4664 7.32922 57.3892 6.94621 57.3892 6.5085V3.3125H58.8376V6.39262C58.8376 6.59218 58.8762 6.76919 58.9534 6.92368C59.0371 7.07173 59.1529 7.1876 59.301 7.27129C59.449 7.35497 59.6164 7.3968 59.8031 7.3968C59.9962 7.3968 60.1636 7.35497 60.3052 7.27129C60.4533 7.1876 60.5659 7.07173 60.6431 6.92368C60.7268 6.76919 60.7686 6.59218 60.7686 6.39262V3.3125H62.217V8.58444H60.8652V7.94289C60.7423 8.17437 60.5686 8.35281 60.3437 8.47823C60.0734 8.62629 59.7547 8.7003 59.3878 8.7003Z" fill="#0C193E"/>
<path fill-rule="evenodd" clip-rule="evenodd" d="M41.0074 8.70033C40.4859 8.70033 40.0095 8.58124 39.5782 8.34307C39.1533 8.1049 38.8122 7.77984 38.5547 7.36786C38.3038 6.94945 38.1782 6.47633 38.1782 5.94849C38.1782 5.41421 38.3038 4.94109 38.5547 4.52912C38.8122 4.11714 39.1533 3.79208 39.5782 3.55391C40.0095 3.31574 40.4859 3.19666 41.0074 3.19666C41.5286 3.19666 42.0019 3.31574 42.4267 3.55391C42.8514 3.79208 43.1895 4.11714 43.4405 4.52912C43.698 4.94109 43.8267 5.41421 43.8267 5.94849C43.8267 6.47633 43.698 6.94945 43.4405 7.36786C43.1895 7.77984 42.8514 8.1049 42.4267 8.34307C42.0019 8.58124 41.5286 8.70033 41.0074 8.70033ZM41.0074 7.39682C41.2713 7.39682 41.4998 7.33567 41.6928 7.21337C41.8923 7.09107 42.0469 6.92048 42.1562 6.70162C42.2722 6.48277 42.3302 6.23172 42.3302 5.94849C42.3302 5.66526 42.2722 5.41743 42.1562 5.20501C42.0469 4.98616 41.8923 4.81557 41.6928 4.69327C41.4998 4.56453 41.2713 4.50015 41.0074 4.50015C40.7434 4.50015 40.5117 4.56453 40.3122 4.69327C40.1125 4.81557 39.9549 4.98616 39.8389 5.20501C39.7296 5.41743 39.6748 5.66526 39.6748 5.94849C39.6748 6.23172 39.7296 6.48277 39.8389 6.70162C39.9549 6.92048 40.1125 7.09107 40.3122 7.21337C40.5117 7.33567 40.7434 7.39682 41.0074 7.39682Z" fill="#0C193E"/>
<path fill-rule="evenodd" clip-rule="evenodd" d="M33.8773 10.5059C34.2248 10.6411 34.6015 10.7087 35.0069 10.7087C35.5154 10.7087 35.9629 10.6057 36.3491 10.3997C36.7418 10.1937 37.0507 9.90728 37.2761 9.54037C37.5012 9.1799 37.614 8.76792 37.614 8.30444V3.31252H36.2622V3.86623C36.1031 3.67962 35.9229 3.53365 35.7215 3.42839C35.4382 3.27389 35.1067 3.19666 34.7268 3.19666C34.2442 3.19666 33.8129 3.30608 33.433 3.52494C33.0533 3.74379 32.754 4.04634 32.5351 4.43257C32.3162 4.81235 32.2068 5.25006 32.2068 5.74571C32.2068 6.24138 32.3162 6.68553 32.5351 7.07819C32.754 7.46442 33.0565 7.77016 33.4428 7.99547C33.8289 8.21433 34.2666 8.32376 34.7558 8.32376C35.1357 8.32376 35.4672 8.25296 35.7503 8.11134C35.9039 8.03109 36.0424 7.92909 36.1656 7.80534V8.30444C36.1656 8.52975 36.1174 8.72608 36.0208 8.89344C35.9307 9.06081 35.7987 9.18632 35.6249 9.27001C35.451 9.36013 35.2451 9.40519 35.0069 9.40519C34.7044 9.40519 34.4437 9.33437 34.2248 9.19276C34.006 9.05114 33.8611 8.85804 33.7903 8.61343L32.4481 9.08655C32.5577 9.41485 32.7346 9.69807 32.9793 9.93623C33.2303 10.1809 33.5296 10.3707 33.8773 10.5059ZM35.596 6.85612C35.4156 6.95911 35.2033 7.01061 34.9586 7.01061C34.714 7.01061 34.4951 6.95911 34.3021 6.85612C34.1154 6.74669 33.9673 6.59863 33.8579 6.41195C33.7549 6.22529 33.7033 6.00965 33.7033 5.76503C33.7033 5.51398 33.7549 5.29513 33.8579 5.10846C33.9673 4.91534 34.1154 4.76729 34.3021 4.6643C34.4951 4.55487 34.714 4.50015 34.9586 4.50015C35.1969 4.50015 35.406 4.55487 35.5862 4.6643C35.7665 4.76729 35.9081 4.91534 36.0111 5.10846C36.1142 5.29513 36.1656 5.51398 36.1656 5.76503C36.1656 6.01607 36.1142 6.23494 36.0111 6.42161C35.9145 6.60829 35.7761 6.75313 35.596 6.85612Z" fill="#0C193E"/>
<path fill-rule="evenodd" clip-rule="evenodd" d="M29.0364 8.70033C28.515 8.70033 28.0387 8.58124 27.6075 8.34307C27.1826 8.1049 26.8415 7.77984 26.584 7.36786C26.3328 6.94945 26.2075 6.47633 26.2075 5.94849C26.2075 5.41421 26.3328 4.94109 26.584 4.52912C26.8415 4.11714 27.1826 3.79208 27.6075 3.55391C28.0387 3.31574 28.515 3.19666 29.0364 3.19666C29.5579 3.19666 30.0309 3.31574 30.4558 3.55391C30.8807 3.79208 31.2186 4.11714 31.4697 4.52912C31.7272 4.94109 31.856 5.41421 31.856 5.94849C31.856 6.47633 31.7272 6.94945 31.4697 7.36786C31.2186 7.77984 30.8807 8.1049 30.4558 8.34307C30.0309 8.58124 29.5579 8.70033 29.0364 8.70033ZM29.0364 7.39682C29.3004 7.39682 29.5289 7.33567 29.722 7.21337C29.9216 7.09107 30.0761 6.92048 30.1855 6.70162C30.3014 6.48277 30.3592 6.23172 30.3592 5.94849C30.3592 5.66526 30.3014 5.41743 30.1855 5.20501C30.0761 4.98616 29.9216 4.81557 29.722 4.69327C29.5289 4.56453 29.3004 4.50015 29.0364 4.50015C28.7725 4.50015 28.5408 4.56453 28.3412 4.69327C28.1417 4.81557 27.984 4.98616 27.8682 5.20501C27.7588 5.41743 27.704 5.66526 27.704 5.94849C27.704 6.23172 27.7588 6.48277 27.8682 6.70162C27.984 6.92048 28.1417 7.09107 28.3412 7.21337C28.5408 7.33567 28.7725 7.39682 29.0364 7.39682Z" fill="#0C193E"/>
</svg>
