<svg width="554" height="277" viewBox="0 0 554 277" fill="none" xmlns="http://www.w3.org/2000/svg">
<path d="M0.328895 0C5.00718 11.8081 13.1518 22.7687 24.8307 30.5073L25.895 31.1968L26.1687 31.3713L26.4301 31.5643C55.2018 52.848 85.968 53.0793 118.913 45.8371C135.502 42.1902 152.211 36.7465 169.353 31.3029C186.303 25.9206 203.671 20.5416 220.784 17.4575C220.784 17.4575 221.243 17.3491 221.543 17.3209C221.843 17.2927 222.315 17.3136 222.315 17.3136C249.324 17.0851 269.01 33.2687 276.488 54.762C283.925 76.1366 279.195 102.227 259.474 122.336L259.373 122.438L259.27 122.537C232.021 148.623 210.023 184.408 224.856 221.366L225.213 222.24L225.251 222.33L225.287 222.422C230.828 236.572 238.771 245.857 247.607 251.483C256.465 257.123 266.769 259.437 277.592 258.732C299.459 257.307 323.031 243.501 337.894 221.208L338.344 220.533L338.907 219.948C345.428 213.175 351.823 202.146 358.629 188.518C365.058 175.647 372.259 159.561 379.301 146.055C386.476 132.294 394.606 118.87 404.331 109.789C414.265 100.515 426.799 95.035 441.561 99.3687L442.265 99.5824L442.269 99.5835C457.204 104.271 463.289 115.971 466.442 127.031C467.982 132.433 468.982 138.217 469.913 143.327C470.822 148.318 471.684 152.78 472.908 156.807L473.158 157.607L473.191 157.71L473.221 157.814C484.907 197.411 530.61 206.238 554 178.379L554 202.66C519.432 225.653 469.266 208.496 455.826 162.952C454.092 157.497 453.009 151.746 452.068 146.58C451.077 141.136 450.242 136.363 449 132.008C446.59 123.555 443.322 118.933 436.845 116.899C429.874 114.715 423.655 116.57 416.707 123.057C409.393 129.885 402.436 140.919 395.383 154.447C388.197 168.229 382.03 182.264 374.855 196.629C368.208 209.937 360.94 222.97 352.537 231.936C334.9 257.971 306.704 275.019 278.77 276.839C264.575 277.764 250.354 274.741 237.869 266.792C225.383 258.842 215.178 246.311 208.43 229.121C188.306 180.685 218.274 136.715 246.594 109.555C261.58 94.227 264.45 75.3622 259.359 60.7275C254.368 46.3833 241.642 35.5909 223.217 35.459C207.662 38.3296 191.605 43.275 174.84 48.5988C157.987 53.9505 140.384 59.697 122.806 63.5611C87.5047 71.3215 50.602 71.8725 15.9066 46.3447C9.88789 42.4935 4.58965 37.9991 0 33.0455L0.000153216 3.64602C0.000153216 2.40126 0.113057 1.18241 0.328895 0Z" fill="white" fill-opacity="0.04"/>
</svg>
