<svg width="19" height="19" viewBox="0 0 19 19" fill="none" xmlns="http://www.w3.org/2000/svg">
<path d="M9.50007 2.84998C8.18482 2.84998 6.89911 3.23999 5.80553 3.9707C4.71194 4.70141 3.85959 5.74 3.35627 6.95513C2.85295 8.17026 2.72126 9.50735 2.97785 10.7973C3.23444 12.0873 3.86779 13.2722 4.79781 14.2022C5.72783 15.1323 6.91274 15.7656 8.20272 16.0222C9.49269 16.2788 10.8298 16.1471 12.0449 15.6438C13.26 15.1404 14.2986 14.2881 15.0293 13.1945C15.7601 12.1009 16.1501 10.8152 16.1501 9.49997C16.1482 7.73685 15.447 6.04647 14.2003 4.79975C12.9536 3.55304 11.2632 2.85182 9.50007 2.84998ZM12.5274 11.7926C12.4685 11.8673 12.3934 11.9277 12.3079 11.9694C12.2224 12.0111 12.1285 12.0329 12.0334 12.0333C11.8902 12.0345 11.7512 11.9851 11.6407 11.894L9.1074 9.99397C9.03276 9.93499 8.97237 9.85996 8.9307 9.77444C8.88904 9.68891 8.86717 9.5951 8.86674 9.49997V5.06664C8.86674 4.89867 8.93346 4.73758 9.05223 4.61881C9.17101 4.50003 9.3321 4.43331 9.50007 4.43331C9.66804 4.43331 9.82913 4.50003 9.9479 4.61881C10.0667 4.73758 10.1334 4.89867 10.1334 5.06664V9.19597L12.4261 10.906C12.492 10.9568 12.547 11.0203 12.5879 11.0928C12.6288 11.1653 12.6548 11.2452 12.6642 11.3279C12.6737 11.4106 12.6664 11.4943 12.6429 11.5741C12.6194 11.654 12.5801 11.7283 12.5274 11.7926Z" fill="#4D8C57"/>
<path d="M9.5 0C7.62108 0 5.78435 0.557165 4.22209 1.60104C2.65982 2.64491 1.44218 4.12861 0.723149 5.86451C0.00411629 7.6004 -0.184015 9.51054 0.182544 11.3534C0.549104 13.1962 1.45389 14.8889 2.78249 16.2175C4.11109 17.5461 5.80383 18.4509 7.64665 18.8175C9.48946 19.184 11.3996 18.9959 13.1355 18.2769C14.8714 17.5578 16.3551 16.3402 17.399 14.7779C18.4428 13.2156 19 11.3789 19 9.5C18.997 6.98137 17.9951 4.56676 16.2142 2.78582C14.4332 1.00488 12.0186 0.00301693 9.5 0ZM9.5 17.4591C7.92584 17.4591 6.38703 16.9923 5.07816 16.1177C3.7693 15.2432 2.74916 14.0001 2.14675 12.5458C1.54435 11.0915 1.38673 9.49117 1.69384 7.94726C2.00094 6.40334 2.75897 4.98517 3.87207 3.87207C4.98517 2.75897 6.40335 2.00094 7.94726 1.69383C9.49117 1.38673 11.0915 1.54434 12.5458 2.14675C14.0002 2.74916 15.2432 3.76929 16.1178 5.07816C16.9923 6.38703 17.4591 7.92584 17.4591 9.5C17.4571 11.6103 16.6179 13.6335 15.1257 15.1257C13.6335 16.6179 11.6103 17.4571 9.5 17.4591Z" fill="#4D8C57"/>
</svg>
