<svg width="20" height="20" viewBox="0 0 20 20" fill="none" xmlns="http://www.w3.org/2000/svg">
<path d="M11.8322 9.99997L19.6199 2.21211C20.1267 1.70554 20.1267 0.886449 19.6199 0.379933C19.1134 -0.126644 18.2943 -0.126644 17.7878 0.379933L9.99987 8.16773L2.21229 0.379933C1.70547 -0.126644 0.886688 -0.126644 0.380113 0.379933C-0.126704 0.886509 -0.126704 1.70554 0.380113 2.21211L8.16764 9.99997L0.380174 17.7878C-0.126644 18.2943 -0.126644 19.1134 0.380174 19.6199C0.500336 19.7405 0.643125 19.836 0.800337 19.9012C0.957549 19.9663 1.12608 19.9998 1.29626 19.9996C1.6279 19.9996 1.95967 19.8726 2.21235 19.6199L9.99987 11.8322L17.7878 19.6199C17.9079 19.7404 18.0507 19.836 18.2079 19.9011C18.3651 19.9663 18.5337 19.9997 18.7038 19.9996C19.0355 19.9996 19.3673 19.8726 19.6199 19.6199C20.1267 19.1134 20.1267 18.2943 19.6199 17.7878L11.8322 9.99997Z" fill="#FF8833"/>
</svg>
