<svg width="10" height="10" viewBox="0 0 10 10" fill="none" xmlns="http://www.w3.org/2000/svg">
<path d="M5.91614 4.99999L9.81 1.10606C10.0634 0.852768 10.0634 0.443224 9.81 0.189966C9.55672 -0.0633221 9.14717 -0.0633221 8.89391 0.189966L4.99995 4.08386L1.10615 0.189966C0.852737 -0.0633221 0.443346 -0.0633221 0.190057 0.189966C-0.0633525 0.443255 -0.0633525 0.852768 0.190057 1.10606L4.08383 4.99999L0.190088 8.89388C-0.0633221 9.14717 -0.0633221 9.55672 0.190088 9.80997C0.250169 9.87023 0.321564 9.91801 0.40017 9.95059C0.478776 9.98316 0.563044 9.99988 0.648133 9.99979C0.813955 9.99979 0.979837 9.93631 1.10618 9.80997L4.99995 5.91608L8.89391 9.80997C8.954 9.87022 9.0254 9.918 9.104 9.95057C9.18261 9.98314 9.26687 9.99987 9.35196 9.99979C9.51778 9.99979 9.68366 9.93631 9.81 9.80997C10.0634 9.55669 10.0634 9.14717 9.81 8.89388L5.91614 4.99999Z" fill="#294342"/>
</svg>
