<svg width="18" height="18" viewBox="0 0 18 18" fill="none" xmlns="http://www.w3.org/2000/svg">
<path d="M10.649 9.00016L17.6579 1.99094C18.114 1.53501 18.114 0.797821 17.6579 0.341947C17.202 -0.113982 16.4648 -0.113982 16.009 0.341947L8.99988 7.35111L1.99106 0.341947C1.53492 -0.113982 0.798019 -0.113982 0.342102 0.341947C-0.114034 0.797875 -0.114034 1.53501 0.342102 1.99094L7.35087 9.00016L0.342157 16.0093C-0.113979 16.4653 -0.113979 17.2025 0.342157 17.6583C0.450302 17.7668 0.578812 17.8528 0.720303 17.9114C0.861794 17.9701 1.01348 18.0002 1.16663 18C1.46511 18 1.7637 17.8857 1.99111 17.6583L8.99988 10.6492L16.009 17.6583C16.1171 17.7668 16.2457 17.8528 16.3871 17.9114C16.5286 17.97 16.6803 18.0001 16.8335 18C17.1319 18 17.4305 17.8857 17.6579 17.6583C18.114 17.2024 18.114 16.4653 17.6579 16.0093L10.649 9.00016Z" fill="white"/>
</svg>
