<svg width="34" height="41" viewBox="0 0 34 41" fill="none" xmlns="http://www.w3.org/2000/svg">
<path d="M0 35C0 35.5569 0.221249 36.091 0.615076 36.4849C1.0089 36.8787 1.54305 37.1 2.1 37.1H4.9V32.2H1.4C1.4 32.2 0 32.2 0 35Z" fill="#DE7326"/>
<path d="M33.5992 7.7V37.8C33.5992 38.5426 33.3042 39.2548 32.7791 39.7799C32.254 40.305 31.5418 40.6 30.7992 40.6H6.99922C6.25661 40.6 5.54442 40.305 5.01932 39.7799C4.49422 39.2548 4.19922 38.5426 4.19922 37.8V2.8C4.19922 2.05739 4.49422 1.3452 5.01932 0.820101C5.54442 0.294999 6.25661 0 6.99922 0H25.8992L33.5992 7.7Z" fill="#E8ECEF"/>
<path d="M33.5984 7.7H26.5984C26.2134 7.7 25.8984 7.385 25.8984 7V0L33.5984 7.7Z" fill="#C7D0DD"/>
<path d="M2.1 32.9H27.3C27.857 32.9 28.3911 32.6788 28.7849 32.2849C29.1788 31.8911 29.4 31.357 29.4 30.8V21C29.4 20.4431 29.1788 19.9089 28.7849 19.5151C28.3911 19.1213 27.857 18.9 27.3 18.9H2.1C1.54305 18.9 1.0089 19.1213 0.615076 19.5151C0.221249 19.9089 0 20.4431 0 21V35C0 34.4431 0.221249 33.9089 0.615076 33.5151C1.0089 33.1213 1.54305 32.9 2.1 32.9Z" fill="#FF8833"/>
<path d="M23.9993 21.7294C23.9113 21.703 23.8189 21.6942 23.7274 21.7036C23.636 21.7129 23.5472 21.7401 23.4663 21.7837C23.3854 21.8274 23.3138 21.8865 23.2558 21.9578C23.1977 22.029 23.1542 22.111 23.1278 22.1991L21.6984 26.964L20.269 22.1991C20.2098 22.0285 20.087 21.8874 19.9262 21.8051C19.7654 21.7229 19.579 21.7059 19.406 21.7578C19.233 21.8096 19.0867 21.9262 18.9976 22.0833C18.9085 22.2404 18.8835 22.4258 18.9278 22.6009L21.0278 29.6009C21.0714 29.7448 21.1602 29.8709 21.2809 29.9605C21.4017 30.0501 21.5481 30.0984 21.6984 30.0984C21.8488 30.0984 21.9952 30.0501 22.1159 29.9605C22.2367 29.8709 22.3254 29.7448 22.369 29.6009L24.469 22.6009C24.5221 22.4231 24.5025 22.2314 24.4144 22.068C24.3264 21.9046 24.1771 21.7828 23.9993 21.7294ZM7.69844 23.1C8.47054 23.1 9.09844 23.7279 9.09844 24.5C9.09844 24.6857 9.17219 24.8637 9.30346 24.995C9.43474 25.1263 9.61279 25.2 9.79844 25.2C9.98409 25.2 10.1621 25.1263 10.2934 24.995C10.4247 24.8637 10.4984 24.6857 10.4984 24.5C10.4984 22.9558 9.24264 21.7 7.69844 21.7C6.15424 21.7 4.89844 22.9558 4.89844 24.5V27.3C4.89844 28.8442 6.15424 30.1 7.69844 30.1C9.24264 30.1 10.4984 28.8442 10.4984 27.3C10.4984 27.1144 10.4247 26.9363 10.2934 26.805C10.1621 26.6738 9.98409 26.6 9.79844 26.6C9.61279 26.6 9.43474 26.6738 9.30346 26.805C9.17219 26.9363 9.09844 27.1144 9.09844 27.3C9.09844 28.0721 8.47054 28.7 7.69844 28.7C6.92634 28.7 6.29844 28.0721 6.29844 27.3V24.5C6.29844 23.7279 6.92634 23.1 7.69844 23.1ZM14.8678 25.221C13.6519 24.9165 13.2984 24.7394 13.2984 24.15C13.2984 23.5809 13.9396 23.1 14.6984 23.1C15.6889 23.1 16.1614 23.8735 16.1894 23.9218C16.2825 24.0794 16.4335 24.1942 16.6101 24.2418C16.7868 24.2894 16.975 24.266 17.1346 24.1765C17.2942 24.087 17.4124 23.9386 17.4639 23.763C17.5154 23.5875 17.4962 23.3987 17.4102 23.2372C17.3752 23.1742 16.5366 21.7007 14.6984 21.7007C13.1542 21.7007 11.8984 22.7997 11.8984 24.1507C11.8984 25.9224 13.4811 26.3179 14.529 26.5797C15.7449 26.8842 16.0984 27.0613 16.0984 27.6507C16.0984 28.2198 15.4572 28.7007 14.6984 28.7007C13.6988 28.7007 13.2263 27.9118 13.2102 27.8845C13.1657 27.8042 13.1057 27.7334 13.0337 27.6762C12.9618 27.6191 12.8793 27.5766 12.791 27.5513C12.7026 27.5261 12.6102 27.5184 12.5189 27.5289C12.4276 27.5393 12.3393 27.5676 12.2589 27.6122C12.1786 27.6568 12.1078 27.7168 12.0507 27.7887C11.9935 27.8606 11.9511 27.9431 11.9258 28.0315C11.9005 28.1198 11.8928 28.2123 11.9033 28.3035C11.9137 28.3948 11.9421 28.4832 11.9866 28.5635C12.0216 28.6265 12.8602 30.1 14.6984 30.1C16.2426 30.1 17.4984 29.001 17.4984 27.65C17.4984 25.8783 15.9157 25.4828 14.8678 25.221Z" fill="white"/>
</svg>
