<svg width="11" height="11" viewBox="0 0 11 11" fill="none" xmlns="http://www.w3.org/2000/svg">
<path fill-rule="evenodd" clip-rule="evenodd" d="M11 5.5C11 8.53765 8.53765 11 5.5 11C2.46235 11 0 8.53765 0 5.5C0 2.46235 2.46235 0 5.5 0C8.53765 0 11 2.46235 11 5.5ZM5.5 4.95C5.64587 4.95 5.78576 5.00795 5.88891 5.11109C5.99205 5.21424 6.05 5.35413 6.05 5.5V8.25C6.05 8.39587 5.99205 8.53576 5.88891 8.63891C5.78576 8.74205 5.64587 8.8 5.5 8.8C5.35413 8.8 5.21424 8.74205 5.11109 8.63891C5.00795 8.53576 4.95 8.39587 4.95 8.25V5.5C4.95 5.35413 5.00795 5.21424 5.11109 5.11109C5.21424 5.00795 5.35413 4.95 5.5 4.95ZM5.5 3.85C5.64587 3.85 5.78576 3.79205 5.88891 3.68891C5.99205 3.58576 6.05 3.44587 6.05 3.3C6.05 3.15413 5.99205 3.01424 5.88891 2.91109C5.78576 2.80795 5.64587 2.75 5.5 2.75C5.35413 2.75 5.21424 2.80795 5.11109 2.91109C5.00795 3.01424 4.95 3.15413 4.95 3.3C4.95 3.44587 5.00795 3.58576 5.11109 3.68891C5.21424 3.79205 5.35413 3.85 5.5 3.85Z" fill="white"/>
</svg>
