<svg width="14" height="14" viewBox="0 0 14 14" fill="none" xmlns="http://www.w3.org/2000/svg">
<path d="M13.2834 3.91605C13.2521 3.2083 13.1377 2.72177 12.9737 2.30014C12.8046 1.85262 12.5444 1.45196 12.2035 1.11887C11.8704 0.780608 11.4671 0.517751 11.0248 0.351274C10.6007 0.187346 10.1167 0.0728567 9.40898 0.0416845C8.69595 0.00780608 8.4696 0 6.66119 0C4.85278 0 4.62643 0.00780608 3.91605 0.0390304C3.20833 0.0702547 2.72177 0.184796 2.30027 0.34862C1.85262 0.517751 1.45196 0.777954 1.11887 1.11887C0.780608 1.45193 0.517881 1.85525 0.351274 2.29759C0.187346 2.72177 0.0728828 3.2057 0.0416845 3.9134C0.0078321 4.62643 0 4.85278 0 6.66119C0 8.4696 0.0078321 8.69597 0.0390304 9.40633C0.0702547 10.1141 0.184796 10.6006 0.34875 11.0222C0.517881 11.4698 0.780608 11.8704 1.11887 12.2035C1.45196 12.5418 1.85527 12.8046 2.29762 12.9711C2.72175 13.135 3.20567 13.2495 3.91353 13.2807C4.62378 13.312 4.85026 13.3197 6.65866 13.3197C8.46707 13.3197 8.69342 13.312 9.4038 13.2807C10.1115 13.2495 10.5981 13.1351 11.0196 12.9711C11.4623 12.7999 11.8643 12.5382 12.2 12.2026C12.5356 11.867 12.7974 11.4649 12.9686 11.0222C13.1324 10.5981 13.247 10.1141 13.2782 9.40633C13.3094 8.69597 13.3172 8.4696 13.3172 6.66119C13.3172 4.85278 13.3145 4.6264 13.2834 3.91605ZM12.0839 9.35429C12.0552 10.0048 11.946 10.3561 11.8549 10.5902C11.6311 11.1705 11.1705 11.6311 10.5903 11.8549C10.3561 11.946 10.0023 12.0552 9.35429 12.0838C8.65174 12.1151 8.44105 12.1228 6.66384 12.1228C4.88663 12.1228 4.67329 12.1151 3.97327 12.0838C3.32276 12.0552 2.97149 11.946 2.73731 11.8549C2.44856 11.7482 2.18573 11.579 1.97236 11.3578C1.75119 11.1419 1.58206 10.8817 1.47532 10.5929C1.38425 10.3587 1.27499 10.0048 1.24645 9.35694C1.21512 8.65439 1.20742 8.44358 1.20742 6.66637C1.20742 4.88916 1.21512 4.67582 1.24645 3.97592C1.27499 3.32542 1.38425 2.97414 1.47532 2.73996C1.58206 2.45108 1.75119 2.1883 1.97502 1.97489C2.19088 1.75371 2.45108 1.58458 2.73996 1.47798C2.97414 1.38691 3.32807 1.27762 3.97592 1.24897C4.67847 1.21775 4.88929 1.20994 6.66637 1.20994C8.44623 1.20994 8.65692 1.21775 9.35694 1.24897C10.0074 1.27765 10.3587 1.38688 10.5929 1.47795C10.8817 1.58458 11.1445 1.75371 11.3578 1.97489C11.579 2.19088 11.7482 2.45108 11.8549 2.73996C11.946 2.97414 12.0552 3.32794 12.0839 3.97592C12.1151 4.67847 12.1229 4.88916 12.1229 6.66637C12.1229 8.44358 12.1151 8.65174 12.0839 9.35429Z" fill="#FF8833"/>
<path d="M6.65995 3.2395C4.77093 3.2395 3.23828 4.77204 3.23828 6.66116C3.23828 8.55028 4.77093 10.0828 6.65995 10.0828C8.54902 10.0828 10.0816 8.55028 10.0816 6.66116C10.0816 4.77204 8.54902 3.2395 6.65995 3.2395ZM6.65995 8.88069C5.43444 8.88069 4.44037 7.88677 4.44037 6.66116C4.44037 5.43555 5.43444 4.44163 6.65992 4.44163C7.88553 4.44163 8.87948 5.43555 8.87948 6.66116C8.87948 7.88677 7.8855 8.88069 6.65995 8.88069ZM11.0158 3.10419C11.0158 3.54534 10.6581 3.90301 10.2169 3.90301C9.77574 3.90301 9.41807 3.54534 9.41807 3.10419C9.41807 2.66299 9.77574 2.30542 10.2169 2.30542C10.6581 2.30542 11.0158 2.66296 11.0158 3.10419Z" fill="#FF8833"/>
</svg>
