<svg width="12" height="12" viewBox="0 0 12 12" fill="none" xmlns="http://www.w3.org/2000/svg">
<path d="M11.8 11.8V7.47824C11.8 5.35424 11.3427 3.73175 8.86474 3.73175C7.66999 3.73175 6.87349 4.38075 6.54899 5.00025H6.51949V3.9235H4.17425V11.8H6.62274V7.89124C6.62274 6.85874 6.81449 5.87049 8.08299 5.87049C9.33674 5.87049 9.35149 7.03574 9.35149 7.95024V11.7852H11.8V11.8ZM0.19175 3.9235H2.64025V11.8H0.19175V3.9235ZM1.416 0C0.634249 0 0 0.634249 0 1.416C0 2.19775 0.634249 2.84675 1.416 2.84675C2.19775 2.84675 2.832 2.19775 2.832 1.416C2.832 0.634249 2.19775 0 1.416 0Z" fill="#FF8833"/>
</svg>
