<svg width="73" height="60" viewBox="0 0 73 60" fill="none" xmlns="http://www.w3.org/2000/svg">
<path d="M22.2017 34.9824C22.537 34.6471 22.537 34.0882 22.2017 33.7529L19.5194 31.0706L22.9841 27.6059C23.3194 27.2706 23.3194 26.7118 22.9841 26.3765C22.6488 26.0412 22.09 26.0412 21.7547 26.3765L18.29 29.8412L15.1606 26.7118C14.8253 26.3765 14.2665 26.3765 13.9312 26.7118C13.5959 27.0471 13.5959 27.6059 13.9312 27.9412L17.0606 31.0706L13.9312 34.2C13.5959 34.5353 13.5959 35.0941 13.9312 35.4294C14.2665 35.7647 14.8253 35.7647 15.1606 35.4294L18.29 32.3L20.9723 34.9824C21.4194 35.3176 21.8665 35.3176 22.2017 34.9824ZM21.8665 46.0471C21.5312 46.3824 21.5312 46.9412 21.9782 47.2765C22.3135 47.6118 22.8723 47.6118 23.2076 47.1647C28.6841 41.1294 38.0723 41.2412 43.437 46.8294C43.7723 47.1647 44.3312 47.1647 44.6665 46.8294C45.0017 46.4941 45.0017 45.9353 44.6665 45.6C38.5194 39.3412 28.0135 39.2294 21.8665 46.0471Z" fill="#FF8833"/>
<path d="M63.6655 52.7529L66.5714 23.1353C66.6831 21.9059 66.2361 20.6765 65.4537 19.7823C64.6714 18.8882 63.442 18.3294 62.2126 18.3294V10.6176C62.2126 7.71175 59.9773 5.36469 57.0714 5.25293L10.0184 4.58234C7.00079 4.58234 4.76549 6.9294 4.65373 9.72351V11.7353C3.31255 12.0706 2.30667 12.9647 1.74785 14.3059C1.07726 15.0882 0.6302 16.0941 0.40667 16.8765C-0.152153 18.8882 -0.0403885 21.0117 0.183141 23.1353C1.07726 32.9706 1.97138 42.6941 2.75373 52.5294C3.08902 56.7765 4.20667 58.5647 10.3537 58.9C27.9008 59.7941 45.4478 59.6823 62.9949 59.347C63.6655 59.347 64.4478 59.347 65.0067 59.0117C65.6773 58.6764 66.1243 58.0059 66.0126 57.3353C65.6773 55.8823 63.2184 56.1059 61.7655 55.9941C62.7714 55.3235 63.442 54.2059 63.6655 52.7529ZM10.0184 6.37057L57.0714 7.04116C58.9714 7.04116 60.6478 8.71763 60.5361 10.6176V18.4412H44.1067C42.8773 18.4412 41.6478 17.8823 40.7537 16.9882L38.1831 14.0823C36.842 12.6294 34.942 11.7353 32.9302 11.7353H6.3302V9.94704C6.3302 7.82351 8.00667 6.25881 10.0184 6.37057ZM59.3067 55.1H8.90079C7.55961 55.1 6.3302 54.0941 6.21843 52.6412L2.97726 16.2059C2.86549 14.6412 4.09491 13.3 5.65961 13.3H32.9302C34.4949 13.3 35.9478 13.9706 36.9537 15.0882L39.5243 17.9941C40.642 19.3353 42.3184 20.1176 44.1067 20.1176H62.2126C62.9949 20.1176 63.6655 20.4529 64.2243 21.0117C64.7831 21.5706 65.0067 22.3529 64.8949 23.0235L61.989 52.6412C61.8773 53.9823 60.6479 55.1 59.3067 55.1Z" fill="#FF8833"/>
<path d="M47.5741 29.6176L50.0329 27.1588C50.3682 26.8235 50.3682 26.2647 50.0329 25.9294C49.6976 25.5941 49.1388 25.5941 48.8035 25.9294L46.3447 28.3882L43.2153 25.2588C42.88 24.9235 42.3211 24.9235 41.9858 25.2588C41.6506 25.5941 41.6506 26.1529 41.9858 26.4882L45.1153 29.6176L42.2094 32.5235C41.8741 32.8588 41.8741 33.4177 42.2094 33.7529C42.5447 34.0882 43.1035 34.0882 43.4388 33.7529L46.3447 30.8471L49.4741 33.9765C49.8094 34.3118 50.3682 34.3118 50.7035 33.9765C51.0388 33.6412 51.0388 33.0824 50.7035 32.7471L47.5741 29.6176ZM62.7741 0.335294C61.7682 1.67647 60.9858 3.01765 60.427 4.58235C60.3153 5.02941 60.5388 5.47647 60.9858 5.58824C61.4329 5.7 61.88 5.47647 61.9917 5.02941C62.4388 3.68824 63.1094 2.34706 64.0035 1.22941C64.3388 0.894117 64.227 0.335294 63.8917 0C63.5564 0 63.1094 -3.33085e-07 62.7741 0.335294ZM69.927 3.57647C69.7035 3.24118 69.1447 3.01765 68.8094 3.35294L63.5564 6.70588C63.2211 6.92941 63.1094 7.48824 63.3329 7.82353C63.5564 8.15882 64.1153 8.38235 64.4506 8.04706L69.7035 4.69412C70.0388 4.47059 70.1505 3.91176 69.927 3.57647ZM71.4917 9.61176L65.5682 10.0588C65.1211 10.0588 64.7858 10.5059 64.7858 10.9529C64.7858 11.4 65.2329 11.7353 65.68 11.7353L71.6035 11.2882C72.0505 11.2882 72.3858 10.8412 72.3858 10.3941C72.2741 9.94706 71.9388 9.61176 71.4917 9.61176Z" fill="#FF8833"/>
</svg>
