<svg width="9" height="12" viewBox="0 0 9 12" fill="none" xmlns="http://www.w3.org/2000/svg">
<path fill-rule="evenodd" clip-rule="evenodd" d="M2.2838 5.6794L0.546326 1.3664C0.41713 1.04408 0.570982 0.676938 0.889952 0.546394C1.08834 0.465205 1.30422 0.494114 1.46992 0.605497L8.22321 5.15491C8.50986 5.34803 8.58735 5.73941 8.39623 6.02909C8.34859 6.10153 8.2864 6.16327 8.21361 6.21038L1.46992 10.7533C1.18328 10.9464 0.795939 10.8681 0.604818 10.5785C0.479602 10.3887 0.469706 10.1552 0.558412 9.96246L2.2838 5.6794Z" fill="#FF8833" stroke="#294342" stroke-miterlimit="22.9256" stroke-linecap="round" stroke-linejoin="round"/>
<path d="M5.84473 5.6792L3.56445 7.21533L4.1084 5.86572L4.18359 5.6792L4.1084 5.49268L3.56445 4.14307L5.84473 5.6792Z" fill="#FF8833" stroke="#294342"/>
</svg>
