<svg width="14" height="14" viewBox="0 0 14 14" fill="none" xmlns="http://www.w3.org/2000/svg">
<g clip-path="url(#clip0_260_3322)">
<path d="M13.9381 2.99517C13.8976 2.92915 13.8394 2.87572 13.7702 2.84087C13.701 2.80603 13.6234 2.79114 13.5462 2.79788L12.8481 2.8587L13.5154 1.51358C13.5542 1.43544 13.5675 1.34713 13.5535 1.26104C13.5395 1.17494 13.4989 1.09539 13.4374 1.03356C13.3759 0.971726 13.2965 0.930713 13.2105 0.916279C13.1245 0.901845 13.0361 0.914716 12.9578 0.953084L11.1917 1.81799C10.1006 1.24197 8.73748 1.41295 7.79948 2.26742C7.01663 2.98054 6.60513 4.07722 6.68186 5.17086C4.63575 4.96578 2.9038 3.79462 1.87967 1.90227C1.84623 1.8405 1.79775 1.78816 1.73872 1.7501C1.67968 1.71204 1.612 1.68949 1.54194 1.68454C1.47187 1.67958 1.40169 1.69239 1.33789 1.72176C1.27409 1.75114 1.21873 1.79613 1.17693 1.85258C0.541737 2.71069 0.497167 3.88723 0.995124 4.85517C0.857858 4.8205 0.711788 4.77358 0.549803 4.71947C0.48156 4.69665 0.408576 4.69186 0.337935 4.70556C0.267294 4.71926 0.201395 4.751 0.146633 4.79768C0.0918718 4.84436 0.0501072 4.9044 0.0253929 4.97198C0.000678516 5.03956 -0.00614627 5.11238 0.00558083 5.18338C0.20262 6.37797 0.899229 7.29607 1.99965 7.8395C1.85638 7.8894 1.71002 7.92996 1.56149 7.9609C1.48895 7.97601 1.42173 8.01016 1.36675 8.05985C1.31176 8.10953 1.271 8.17295 1.24863 8.2436C1.22626 8.31424 1.22311 8.38957 1.23948 8.46184C1.25586 8.53412 1.29118 8.60073 1.34182 8.65483C2.13426 9.50189 3.27898 9.9188 4.09208 10.1188C3.16758 10.8428 2.16962 10.9639 0.719471 10.9141C0.551608 10.9091 0.396952 11.0036 0.326378 11.1558C0.291868 11.2302 0.280062 11.3132 0.292434 11.3943C0.304806 11.4754 0.340807 11.5511 0.39594 11.6119C1.00046 12.2782 3.20289 13.0296 5.51814 13.0859C5.60971 13.0881 5.70312 13.0893 5.79849 13.0893C7.4241 13.0893 9.57253 12.7408 11.1146 11.1987C12.2819 10.0315 13.0119 8.68784 13.2845 7.2051C13.5047 6.00752 13.3655 5.04852 13.2987 4.58762C13.2938 4.55374 13.2885 4.51778 13.2843 4.48633L13.9372 3.43387C13.9781 3.36803 13.9998 3.29212 14 3.21465C14.0001 3.13717 13.9787 3.06117 13.9381 2.99517ZM12.4723 4.70749C12.5962 5.56127 12.9732 8.15936 10.5242 10.6083C9.10071 12.0318 7.02729 12.2874 5.53842 12.2512C4.26801 12.2203 3.13165 11.9773 2.30806 11.7002C2.64245 11.6592 2.94044 11.596 3.22172 11.5085C3.99717 11.2675 4.65227 10.8338 5.28331 10.1437C5.3349 10.0872 5.37001 10.0177 5.3848 9.94272C5.39959 9.86771 5.3935 9.79007 5.36719 9.71828C5.34088 9.64649 5.29535 9.58331 5.23559 9.53562C5.17582 9.48793 5.10411 9.45758 5.02827 9.44786C4.63017 9.39683 3.43399 9.19547 2.49206 8.54573C2.7635 8.43472 3.02529 8.29578 3.27526 8.12997C3.34239 8.08543 3.39519 8.02242 3.42731 7.94854C3.45943 7.87467 3.4695 7.79308 3.45629 7.71361C3.44309 7.63414 3.40717 7.56019 3.35289 7.50068C3.2986 7.44116 3.22825 7.39862 3.15033 7.37818C2.37937 7.17606 1.44892 6.72379 1.01987 5.71418C1.29385 5.76219 1.59176 5.77381 1.9095 5.70258C1.98183 5.68638 2.04855 5.6512 2.10279 5.60067C2.15703 5.55014 2.19683 5.48608 2.21812 5.41508C2.2394 5.34407 2.2414 5.26868 2.2239 5.19664C2.2064 5.12461 2.17003 5.05854 2.11854 5.00521C1.58468 4.45226 1.38505 3.65541 1.55633 2.97354C2.11726 3.79333 2.82789 4.48327 3.64208 4.99337C4.68363 5.64593 5.89928 6.00656 7.15767 6.03618C7.22099 6.03756 7.2838 6.02457 7.34138 5.99817C7.39896 5.97178 7.4498 5.93267 7.49008 5.88379C7.5303 5.83484 7.55885 5.77738 7.57357 5.71576C7.58829 5.65414 7.58879 5.58997 7.57504 5.52813C7.35853 4.55483 7.66733 3.51724 8.36175 2.8847C9.08198 2.22859 10.1464 2.12906 10.9503 2.64282C11.0106 2.6814 11.0799 2.70379 11.1515 2.70784C11.223 2.71189 11.2944 2.69747 11.3587 2.66595L12.2212 2.24355L11.7698 3.15357C11.7368 3.21998 11.7222 3.29395 11.7273 3.3679C11.7324 3.44185 11.7571 3.51311 11.7989 3.57434C11.8406 3.63561 11.8979 3.68464 11.9649 3.7164C12.0319 3.74815 12.1062 3.76148 12.18 3.755L12.7882 3.70203L12.508 4.15362C12.414 4.30518 12.4335 4.43966 12.4723 4.70749Z" fill="#FF8833"/>
</g>
<defs>
<clipPath id="clip0_260_3322">
<rect width="14" height="14" fill="white"/>
</clipPath>
</defs>
</svg>
