<svg width="15" height="15" viewBox="0 0 15 15" fill="none" xmlns="http://www.w3.org/2000/svg">
<path fill-rule="evenodd" clip-rule="evenodd" d="M0.793 10.8575C0.2855 9.8475 0 8.7065 0 7.5C0 6.2935 0.2855 5.1525 0.793 4.1425C2.0255 1.6865 4.5675 0 7.5 0C10.4325 0 12.9745 1.6865 14.207 4.1425C14.7145 5.1525 15 6.2935 15 7.5C15 8.7065 14.7145 9.8475 14.207 10.8575C12.9745 13.3135 10.4325 15 7.5 15C4.5675 15 2.0255 13.3135 0.793 10.8575ZM1.493 5.0135C1.1755 5.7795 1 6.6195 1 7.5C1 8.3805 1.1755 9.2205 1.493 9.9865C2.3095 9.67 3.272 9.416 4.3345 9.245C4.2795 8.686 4.25 8.1015 4.25 7.5C4.25 6.8985 4.2795 6.314 4.3345 5.755C3.272 5.584 2.3095 5.33 1.493 5.0135ZM13.0505 4.118C12.2136 2.74739 10.9004 1.73381 9.3625 1.2715C9.432 1.3795 9.4995 1.494 9.5645 1.615C9.991 2.4115 10.332 3.4995 10.537 4.764C11.471 4.6125 12.3215 4.392 13.0505 4.118ZM5.6375 1.2715C4.09959 1.73381 2.78637 2.74739 1.9495 4.118C2.6785 4.3925 3.529 4.6125 4.463 4.764C4.668 3.4995 5.009 2.4115 5.4355 1.615C5.5005 1.494 5.568 1.3795 5.6375 1.2715ZM13.507 9.9865C13.8245 9.2205 14 8.3805 14 7.5C14 6.6195 13.8245 5.7795 13.507 5.0135C12.6905 5.33 11.728 5.584 10.6655 5.755C10.7205 6.314 10.75 6.8985 10.75 7.5C10.75 8.1015 10.7205 8.686 10.6655 9.245C11.728 9.416 12.6905 9.67 13.507 9.9865ZM1.9495 10.882C2.78637 12.2526 4.09959 13.2662 5.6375 13.7285C5.56568 13.6167 5.49829 13.5021 5.4355 13.385C5.009 12.5885 4.668 11.5005 4.463 10.236C3.529 10.3875 2.6785 10.608 1.9495 10.882ZM9.3625 13.7285C10.9004 13.2662 12.2136 12.2526 13.0505 10.882C12.3215 10.608 11.471 10.3875 10.537 10.236C10.332 11.5005 9.991 12.5885 9.5645 13.385C9.4995 13.506 9.432 13.6205 9.3625 13.7285ZM7.5 1C7.3075 1 7.1275 1.0915 6.9545 1.2385C6.7225 1.4355 6.5105 1.726 6.317 2.0875C5.935 2.8005 5.635 3.77 5.452 4.8955C6.107 4.964 6.793 5 7.5 5C8.207 5 8.893 4.9635 9.548 4.8955C9.365 3.77 9.065 2.8005 8.683 2.0875C8.4895 1.726 8.2775 1.4355 8.0455 1.2385C7.8725 1.0915 7.6925 1 7.5 1ZM7.5 14C7.6925 14 7.8725 13.9085 8.0455 13.7615C8.2775 13.5645 8.4895 13.274 8.683 12.9125C9.065 12.1995 9.365 11.23 9.548 10.1045C8.893 10.0365 8.207 10 7.5 10C6.793 10 6.107 10.0365 5.452 10.1045C5.635 11.23 5.935 12.1995 6.317 12.9125C6.5105 13.274 6.7225 13.5645 6.9545 13.7615C7.1275 13.9085 7.3075 14 7.5 14ZM9.675 9.1135C9.724 8.5965 9.75 8.056 9.75 7.5C9.75 6.944 9.724 6.4035 9.675 5.8865C8.9795 5.9605 8.2505 6 7.5 6C6.7495 6 6.0205 5.9605 5.325 5.8865C5.276 6.4035 5.25 6.944 5.25 7.5C5.25 8.056 5.276 8.5965 5.325 9.1135C6.0205 9.0395 6.7495 9 7.5 9C8.2505 9 8.9795 9.0395 9.675 9.1135Z" fill="#FF8833"/>
</svg>
