<svg width="10" height="18" viewBox="0 0 10 18" fill="none" xmlns="http://www.w3.org/2000/svg">
<path d="M2.62574 9.86841H0.459505C0.109406 9.86841 0 9.73712 0 9.4089V6.76128C0 6.41118 0.131287 6.30178 0.459505 6.30178H2.62574V4.37623C2.62574 3.50099 2.77891 2.6695 3.21653 1.90366C3.67604 1.11594 4.33247 0.590791 5.16396 0.284455C5.71098 0.0875245 6.25801 0 6.84881 0H8.99316C9.2995 0 9.43078 0.131287 9.43078 0.437623V2.93208C9.43078 3.23841 9.2995 3.3697 8.99316 3.3697C8.40237 3.3697 7.81158 3.3697 7.22078 3.39158C6.62999 3.39158 6.32366 3.67604 6.32366 4.28871C6.30178 4.94514 6.32366 5.5797 6.32366 6.25801H8.86187C9.21197 6.25801 9.34326 6.3893 9.34326 6.7394V9.38702C9.34326 9.73712 9.23385 9.84653 8.86187 9.84653H6.32366V16.9798C6.32366 17.3518 6.21425 17.4831 5.82039 17.4831H3.08524C2.75703 17.4831 2.62574 17.3518 2.62574 17.0235V9.86841Z" fill="#FF8833"/>
</svg>
