<svg width="13" height="13" viewBox="0 0 13 13" fill="none" xmlns="http://www.w3.org/2000/svg">
<path d="M6.20679 3.93018C4.95056 3.93018 3.93018 4.95056 3.93018 6.20679C3.93018 7.46303 4.95056 8.48589 6.20679 8.48589C7.46303 8.48589 8.48589 7.46303 8.48589 6.20679C8.48589 4.95056 7.46303 3.93018 6.20679 3.93018Z" fill="#FF8833"/>
<path d="M9.64272 0H2.77067C1.24382 0 0 1.24382 0 2.77067V9.64272C0 11.1721 1.24382 12.4134 2.77067 12.4134H9.64272C11.1721 12.4134 12.4134 11.1721 12.4134 9.64272V2.77067C12.4134 1.24382 11.1721 0 9.64272 0ZM6.2067 10.2286C3.98966 10.2286 2.18476 8.42373 2.18476 6.2067C2.18476 3.98966 3.98966 2.18724 6.2067 2.18724C8.42373 2.18724 10.2286 3.98966 10.2286 6.2067C10.2286 8.42373 8.42373 10.2286 6.2067 10.2286ZM10.313 2.91715C9.84382 2.91715 9.46149 2.5373 9.46149 2.06807C9.46149 1.59885 9.84382 1.21651 10.313 1.21651C10.7823 1.21651 11.1646 1.59885 11.1646 2.06807C11.1646 2.5373 10.7823 2.91715 10.313 2.91715Z" fill="#FF8833"/>
</svg>
