<svg width="9" height="12" viewBox="0 0 9 12" fill="none" xmlns="http://www.w3.org/2000/svg">
<path fill-rule="evenodd" clip-rule="evenodd" d="M2.2838 5.67943L0.546326 1.36643C0.41713 1.04411 0.570982 0.676969 0.889952 0.546425C1.08834 0.465235 1.30422 0.494144 1.46992 0.605528L8.22321 5.15494C8.50986 5.34806 8.58735 5.73944 8.39623 6.02912C8.34859 6.10156 8.2864 6.1633 8.21361 6.21041L1.46992 10.7534C1.18328 10.9465 0.795939 10.8682 0.604818 10.5785C0.479602 10.3887 0.469706 10.1552 0.558412 9.96249L2.2838 5.67943Z" fill="#FF8833" stroke="#294342" stroke-miterlimit="22.9256" stroke-linecap="round" stroke-linejoin="round"/>
<path d="M5.8457 5.67932L3.56543 7.21545L4.10938 5.86584L4.18457 5.67932L4.10938 5.4928L3.56543 4.14319L5.8457 5.67932Z" fill="#FF8833" stroke="#294342"/>
</svg>
