<svg width="14" height="19" viewBox="0 0 14 19" fill="none" xmlns="http://www.w3.org/2000/svg">
<path d="M7 0C3.14067 0 0 3.21879 0 7.17618C0 12.7992 6.342 18.605 6.61189 18.8489C6.71857 18.946 6.85668 18.9999 6.99985 19C7.14303 19.0001 7.28124 18.9466 7.38811 18.8496C7.658 18.605 14 12.7992 14 7.17618C14 3.21879 10.8593 0 7 0ZM7 11.0829C4.85567 11.0829 3.11111 9.30726 3.11111 7.12472C3.11111 4.94218 4.85567 3.16654 7 3.16654C9.14433 3.16654 10.8889 4.94218 10.8889 7.12472C10.8889 9.30726 9.14433 11.0829 7 11.0829Z" fill="#4D8C57"/>
</svg>
