<svg width="22" height="22" viewBox="0 0 22 22" fill="none" xmlns="http://www.w3.org/2000/svg">
<path d="M19.0985 4.17313C18.1218 3.19998 16.7992 2.65356 15.4204 2.65356C14.0416 2.65356 12.719 3.19998 11.7423 4.17313L10.9998 4.91563L10.2573 4.17313C9.28053 3.19998 7.95793 2.65356 6.57915 2.65356C5.20036 2.65356 3.87776 3.19998 2.90102 4.17313C1.92745 5.15104 1.38086 6.47478 1.38086 7.85469C1.38086 9.23461 1.92745 10.5583 2.90102 11.5363L10.5116 19.1469C10.5756 19.2113 10.6516 19.2625 10.7354 19.2974C10.8192 19.3323 10.909 19.3502 10.9998 19.3502C11.0905 19.3502 11.1804 19.3323 11.2642 19.2974C11.3479 19.2625 11.424 19.2113 11.4879 19.1469L19.0985 11.5363C20.0721 10.5583 20.6187 9.23461 20.6187 7.85469C20.6187 6.47478 20.0721 5.15104 19.0985 4.17313Z" fill="white"/>
</svg>
