<svg width="15" height="15" viewBox="0 0 15 15" fill="none" xmlns="http://www.w3.org/2000/svg">
<path fill-rule="evenodd" clip-rule="evenodd" d="M14.9903 1.02073C15.0145 0.858365 14.9933 0.692458 14.9291 0.541383C14.8648 0.390308 14.76 0.25996 14.6263 0.164773C14.4925 0.0695855 14.335 0.0132736 14.1713 0.0020729C14.0075 -0.00912782 13.8438 0.0252196 13.6983 0.101312L0.477647 7.0423C0.323401 7.12259 0.196144 7.24643 0.111688 7.39843C0.0272316 7.55043 -0.0107019 7.7239 0.00260076 7.89728C0.0159034 8.07066 0.0798557 8.23631 0.186512 8.37365C0.293168 8.51099 0.437827 8.61396 0.602515 8.66978L4.71061 10.0782L12.3841 2.90631L6.17415 10.5798L12.1706 12.6356C12.2937 12.6775 12.4246 12.692 12.5539 12.678C12.6833 12.6639 12.808 12.6217 12.9192 12.5543C13.0305 12.4868 13.1256 12.3958 13.1979 12.2877C13.2702 12.1795 13.3179 12.0568 13.3377 11.9282L14.9903 1.02073ZM5.291 11.0144V13.2955C5.29107 13.4667 5.34063 13.6343 5.43371 13.7781C5.52679 13.9219 5.65943 14.0357 5.81566 14.1058C5.9719 14.176 6.14507 14.1995 6.31436 14.1736C6.48365 14.1476 6.64183 14.0733 6.76989 13.9596L8.74964 12.2003L5.291 11.0144Z" fill="#4D8C57"/>
</svg>
