<svg width="18" height="18" viewBox="0 0 18 18" fill="none" xmlns="http://www.w3.org/2000/svg">
<path d="M8.99982 0C4.02988 0 0 4.02909 0 8.99943C0 13.9698 4.02948 17.9989 8.99982 17.9989C13.9706 17.9989 17.9996 13.9698 17.9996 8.99943C17.9996 4.02909 13.9706 0 8.99982 0ZM8.99982 2.69093C9.78931 2.69088 10.5465 3.00445 11.1048 3.56266C11.663 4.12087 11.9767 4.878 11.9768 5.66748C11.9768 6.45697 11.6633 7.21414 11.105 7.77242C10.5468 8.33071 9.7897 8.64438 9.00022 8.64443C8.21074 8.64448 7.45357 8.33091 6.89528 7.7727C6.337 7.21449 6.02332 6.45736 6.02327 5.66788C6.02322 4.8784 6.33679 4.12123 6.895 3.56294C7.45321 3.00466 8.21034 2.69099 8.99982 2.69093ZM8.99785 15.6459C7.42079 15.6477 5.89515 15.0851 4.69678 14.0599C4.55732 13.9409 4.44531 13.7931 4.36847 13.6266C4.29162 13.4602 4.25177 13.2791 4.25165 13.0957C4.25165 11.4287 5.60087 10.0945 7.26833 10.0945H10.7321C12.4 10.0945 13.744 11.4287 13.744 13.0957C13.7442 13.279 13.7044 13.4601 13.6277 13.6265C13.5509 13.7929 13.4388 13.9407 13.2993 14.0595C12.101 15.0851 10.5751 15.6479 8.99785 15.6459Z" fill="#294342"/>
</svg>
