<svg width="134" height="26" viewBox="0 0 134 26" fill="none" xmlns="http://www.w3.org/2000/svg">
<path d="M11.5533 1.72708L13.3233 0L26.6466 13L13.3233 26L11.5533 24.2729L23.1066 13L11.5533 1.72708Z" fill="#556658"/>
<path d="M9.24266 3.98167L11.0127 2.25458L22.0253 13L11.0127 23.7454L9.24266 22.0184L18.4852 13L9.24266 3.98167Z" fill="#556658"/>
<path d="M0 13L8.70199 4.50917L17.404 13L8.70199 21.4908L6.93199 19.7638L13.8639 13L8.70199 7.96334L1.77004 14.727L0 13Z" fill="#556658"/>
<path d="M8.70199 9.01836L6.93199 10.7454L9.24266 13L4.62131 17.5092L6.39134 19.2362L12.7827 13L8.70199 9.01836Z" fill="#556658"/>
<path d="M4.08069 16.9816L2.31066 15.2546L6.37283 11.291L8.14288 13.0181L4.08069 16.9816Z" fill="#556658"/>
<path d="M129.506 8.34483C130.363 8.34483 131.129 8.51864 131.802 8.86639C132.488 9.21408 133.023 9.7292 133.406 10.4118C133.802 11.0943 134 11.9185 134 12.8844V19.1625H131.763V13.2127C131.763 12.2598 131.519 11.5322 131.03 11.0299C130.542 10.5148 129.875 10.2572 129.03 10.2572C128.186 10.2572 127.513 10.5148 127.011 11.0299C126.523 11.5322 126.278 12.2598 126.278 13.2127V19.1625H124.041V13.2127C124.041 12.2598 123.798 11.5322 123.309 11.0299C122.821 10.5148 122.154 10.2572 121.31 10.2572C120.465 10.2572 119.792 10.5148 119.29 11.0299C118.802 11.5322 118.558 12.2598 118.558 13.2127V19.1625H116.301V8.51864H118.558V9.73563C118.927 9.29779 119.396 8.95654 119.963 8.71182C120.531 8.46716 121.138 8.34483 121.785 8.34483C122.656 8.34483 123.435 8.52507 124.121 8.88569C124.807 9.24625 125.335 9.76787 125.705 10.4504C126.035 9.80648 126.55 9.29779 127.249 8.9243C127.949 8.53794 128.701 8.34483 129.506 8.34483Z" fill="#556658"/>
<path d="M114.016 8.51864V19.1625H111.759V17.9068C111.402 18.3447 110.934 18.6924 110.353 18.95C109.786 19.1947 109.179 19.317 108.532 19.317C107.674 19.317 106.902 19.1431 106.216 18.7955C105.542 18.4477 105.008 17.9326 104.612 17.2501C104.229 16.5675 104.038 15.7433 104.038 14.7774V8.51864H106.275V14.449C106.275 15.402 106.519 16.1361 107.008 16.6512C107.496 17.1535 108.162 17.4046 109.007 17.4046C109.851 17.4046 110.518 17.1535 111.007 16.6512C111.508 16.1361 111.759 15.402 111.759 14.449V8.51864H114.016Z" fill="#556658"/>
<path d="M98.2135 19.3364C97.3555 19.3364 96.5834 19.1883 95.8973 18.8921C95.2238 18.583 94.6895 18.1709 94.2938 17.6558C93.8975 17.1278 93.6863 16.5418 93.6603 15.8979H95.9965C96.0359 16.3486 96.2537 16.7285 96.6494 17.0376C97.0584 17.3338 97.5667 17.4819 98.1742 17.4819C98.8078 17.4819 99.2961 17.366 99.6391 17.1342C99.9955 16.8895 100.173 16.5804 100.173 16.207C100.173 15.8077 99.9756 15.5115 99.5798 15.3184C99.1968 15.1252 98.5833 14.9127 97.7386 14.6809C96.9199 14.462 96.2537 14.2495 95.7387 14.0434C95.2238 13.8374 94.7755 13.5218 94.3924 13.0968C94.0234 12.6719 93.8382 12.1117 93.8382 11.4163C93.8382 10.8496 94.01 10.3345 94.3531 9.8709C94.6962 9.39438 95.1845 9.0209 95.818 8.75049C96.4649 8.48003 97.2036 8.34483 98.0357 8.34483C99.2761 8.34483 100.273 8.6539 101.025 9.27205C101.79 9.87733 102.199 10.708 102.253 11.764H99.9955C99.9556 11.2874 99.7577 10.9076 99.4013 10.6242C99.0449 10.3409 98.5633 10.1993 97.9564 10.1993C97.3622 10.1993 96.9072 10.3087 96.5901 10.5277C96.2737 10.7466 96.1151 11.0363 96.1151 11.397C96.1151 11.6802 96.2204 11.9185 96.4315 12.1117C96.6427 12.3048 96.9005 12.4594 97.2036 12.5753C97.5074 12.6783 97.9564 12.8135 98.55 12.981C99.342 13.187 99.9889 13.3995 100.491 13.6184C101.005 13.8245 101.447 14.1335 101.817 14.5457C102.187 14.9578 102.378 15.5051 102.391 16.1877C102.391 16.7929 102.219 17.3338 101.876 17.8103C101.533 18.2868 101.045 18.6603 100.411 18.9307C99.791 19.2011 99.0582 19.3364 98.2135 19.3364Z" fill="#556658"/>
<path d="M83.7864 10.0834C84.1688 9.594 84.6904 9.1819 85.3505 8.84708C86.01 8.5122 86.7561 8.34483 87.5875 8.34483C88.5375 8.34483 89.4022 8.57662 90.1809 9.0402C90.973 9.49097 91.5932 10.1284 92.0422 10.9526C92.4905 11.7768 92.715 12.7234 92.715 13.7923C92.715 14.8612 92.4905 15.8206 92.0422 16.6705C91.5932 17.5077 90.973 18.1644 90.1809 18.641C89.4022 19.1045 88.5375 19.3364 87.5875 19.3364C86.7561 19.3364 86.0167 19.1754 85.3699 18.8534C84.723 18.5186 84.1954 18.1065 83.7864 17.6171V24.2237H81.5294V8.51864H83.7864V10.0834ZM90.4187 13.7923C90.4187 13.0582 90.2602 12.4272 89.9431 11.8992C89.64 11.3583 89.231 10.9526 88.716 10.6822C88.2144 10.3989 87.6735 10.2572 87.0926 10.2572C86.525 10.2572 85.9841 10.3989 85.4691 10.6822C84.9675 10.9655 84.5585 11.3776 84.2414 11.9185C83.9383 12.4594 83.7864 13.0968 83.7864 13.8309C83.7864 14.565 83.9383 15.2089 84.2414 15.7626C84.5585 16.3036 84.9675 16.7157 85.4691 16.999C85.9841 17.2823 86.525 17.424 87.0926 17.424C87.6735 17.424 88.2144 17.2823 88.716 16.999C89.231 16.7028 89.64 16.2778 89.9431 15.724C90.2602 15.1703 90.4187 14.5263 90.4187 13.7923Z" fill="#556658"/>
<path d="M78.1506 7.10846C77.7409 7.10846 77.3979 6.97326 77.1207 6.7028C76.8436 6.43239 76.705 6.09755 76.705 5.69832C76.705 5.2991 76.8436 4.96426 77.1207 4.69383C77.3979 4.42338 77.7409 4.28816 78.1506 4.28816C78.5463 4.28816 78.8827 4.42338 79.1599 4.69383C79.437 4.96426 79.5756 5.2991 79.5756 5.69832C79.5756 6.09755 79.437 6.43239 79.1599 6.7028C78.8827 6.97326 78.5463 7.10846 78.1506 7.10846ZM79.2591 8.51864V19.1625H77.0021V8.51864H79.2591Z" fill="#556658"/>
<path d="M69.8016 19.3364C68.7723 19.3364 67.8417 19.111 67.0103 18.6603C66.1787 18.1966 65.5254 17.5527 65.0503 16.7285C64.5752 15.8915 64.3376 14.9256 64.3376 13.8309C64.3376 12.7492 64.5817 11.7897 65.0701 10.9526C65.5584 10.1156 66.225 9.47167 67.0696 9.02089C67.9143 8.57018 68.8583 8.34483 69.9008 8.34483C70.9434 8.34483 71.8873 8.57018 72.732 9.02089C73.5767 9.47167 74.2429 10.1156 74.7312 10.9526C75.2195 11.7897 75.464 12.7492 75.464 13.8309C75.464 14.9127 75.2135 15.8722 74.7119 16.7092C74.2103 17.5463 73.5234 18.1966 72.6527 18.6603C71.7947 19.111 70.8448 19.3364 69.8016 19.3364ZM69.8016 17.424C70.3825 17.424 70.9234 17.2887 71.425 17.0183C71.94 16.7478 72.3556 16.3422 72.6727 15.8013C72.9892 15.2604 73.1477 14.6036 73.1477 13.8309C73.1477 13.0582 72.9958 12.4079 72.6921 11.8799C72.389 11.339 71.9859 10.9333 71.4843 10.6629C70.9833 10.3925 70.4417 10.2572 69.8608 10.2572C69.2806 10.2572 68.739 10.3925 68.2381 10.6629C67.7491 10.9333 67.3601 11.339 67.0696 11.8799C66.7792 12.4079 66.6339 13.0582 66.6339 13.8309C66.6339 14.9771 66.931 15.8657 67.5253 16.4967C68.1321 17.1149 68.8909 17.424 69.8016 17.424Z" fill="#556658"/>
<path d="M57.8697 19.3364C56.8402 19.3364 55.9097 19.111 55.0782 18.6603C54.2467 18.1966 53.5934 17.5527 53.1182 16.7285C52.6431 15.8915 52.4056 14.9256 52.4056 13.8309C52.4056 12.7492 52.6497 11.7897 53.1381 10.9526C53.6264 10.1156 54.2929 9.47167 55.1376 9.02089C55.9823 8.57018 56.926 8.34483 57.9687 8.34483C59.0114 8.34483 59.9551 8.57018 60.7998 9.02089C61.6445 9.47167 62.3111 10.1156 62.7994 10.9526C63.2877 11.7897 63.5319 12.7492 63.5319 13.8309C63.5319 14.9127 63.2811 15.8722 62.7796 16.7092C62.278 17.5463 61.5917 18.1966 60.7206 18.6603C59.8627 19.111 58.9124 19.3364 57.8697 19.3364ZM57.8697 17.424C58.4505 17.424 58.9916 17.2887 59.4932 17.0183C60.0079 16.7478 60.4236 16.3422 60.7404 15.8013C61.0572 15.2604 61.2155 14.6036 61.2155 13.8309C61.2155 13.0582 61.0638 12.4079 60.7602 11.8799C60.4566 11.339 60.0541 10.9333 59.5525 10.6629C59.051 10.3925 58.5098 10.2572 57.9291 10.2572C57.3484 10.2572 56.8073 10.3925 56.3057 10.6629C55.8173 10.9333 55.428 11.339 55.1376 11.8799C54.8473 12.4079 54.7021 13.0582 54.7021 13.8309C54.7021 14.9771 54.999 15.8657 55.593 16.4967C56.2001 17.1149 56.959 17.424 57.8697 17.424Z" fill="#556658"/>
<path d="M45.9377 19.3364C44.9082 19.3364 43.9778 19.111 43.1463 18.6603C42.3147 18.1966 41.6614 17.5527 41.1863 16.7285C40.7111 15.8915 40.4735 14.9256 40.4735 13.8309C40.4735 12.7492 40.7177 11.7897 41.206 10.9526C41.6944 10.1156 42.3609 9.47167 43.2056 9.02089C44.0503 8.57018 44.994 8.34483 46.0367 8.34483C47.0794 8.34483 48.0231 8.57018 48.8678 9.02089C49.7124 9.47167 50.379 10.1156 50.8674 10.9526C51.3557 11.7897 51.5999 12.7492 51.5999 13.8309C51.5999 14.9127 51.3491 15.8722 50.8475 16.7092C50.346 17.5463 49.6597 18.1966 48.7886 18.6603C47.9307 19.111 46.9804 19.3364 45.9377 19.3364ZM45.9377 17.424C46.5185 17.424 47.0596 17.2887 47.5611 17.0183C48.0759 16.7478 48.4916 16.3422 48.8084 15.8013C49.1252 15.2604 49.2835 14.6036 49.2835 13.8309C49.2835 13.0582 49.1318 12.4079 48.8282 11.8799C48.5246 11.339 48.122 10.9333 47.6205 10.6629C47.119 10.3925 46.5778 10.2572 45.9971 10.2572C45.4163 10.2572 44.8752 10.3925 44.3737 10.6629C43.8854 10.9333 43.496 11.339 43.2056 11.8799C42.9152 12.4079 42.7701 13.0582 42.7701 13.8309C42.7701 14.9771 43.067 15.8657 43.6609 16.4967C44.2681 17.1149 45.027 17.424 45.9377 17.424Z" fill="#556658"/>
<path d="M35.359 17.3853H40.0115V19.1625H33.1021V5.73695H35.359V17.3853Z" fill="#556658"/>
<path fill-rule="evenodd" clip-rule="evenodd" d="M59.9512 21.1406C60.5213 20.7137 60.9312 20.1153 61.1171 19.438L63.2987 20.0083C62.984 21.1542 62.2907 22.1668 61.3261 22.8889C60.3615 23.6111 59.1797 24.0025 57.9639 24.0025C56.7481 24.0025 55.5663 23.6111 54.6017 22.8889C53.6372 22.1668 52.9438 21.1542 52.6291 20.0083L54.8106 19.438C54.9966 20.1153 55.4065 20.7137 55.9766 21.1406C56.5467 21.5675 57.2453 21.7989 57.9639 21.7989C58.6825 21.7989 59.3811 21.5675 59.9512 21.1406Z" fill="#556658"/>
</svg>
