<svg width="111" height="26" viewBox="0 0 111 26" fill="none" xmlns="http://www.w3.org/2000/svg">
<path d="M32.5559 18.2191H40.5033V15.8791H35.3806V7.0651H32.5559V18.2191Z" fill="#294342"/>
<path d="M45.2119 16.6591C44.0789 16.6591 43.4884 15.6919 43.4884 14.2411C43.4884 12.7903 44.0789 11.8075 45.2119 11.8075C46.345 11.8075 46.9514 12.7903 46.9514 14.2411C46.9514 15.6919 46.345 16.6591 45.2119 16.6591ZM45.2279 18.4687C47.8611 18.4687 49.5846 16.6435 49.5846 14.2411C49.5846 11.8387 47.8611 10.0135 45.2279 10.0135C42.6107 10.0135 40.8552 11.8387 40.8552 14.2411C40.8552 16.6435 42.6107 18.4687 45.2279 18.4687Z" fill="#294342"/>
<path d="M54.1424 20.9803C55.3553 20.9803 56.4245 20.7151 57.1427 20.0911C57.797 19.5139 58.2279 18.6403 58.2279 17.4391V10.2319H55.7383V11.0899H55.7064C55.2276 10.4191 54.4935 9.9979 53.4083 9.9979C51.3816 9.9979 49.9772 11.6515 49.9772 13.9915C49.9772 16.4407 51.6848 17.7823 53.5201 17.7823C54.5095 17.7823 55.1319 17.3923 55.6106 16.8619H55.6745V17.6575C55.6745 18.6247 55.2117 19.1863 54.1105 19.1863C53.2488 19.1863 52.8179 18.8275 52.6742 18.4063H50.1528C50.4081 20.0755 51.8923 20.9803 54.1424 20.9803ZM54.1265 15.8947C53.153 15.8947 52.5147 15.1147 52.5147 13.9135C52.5147 12.6967 53.153 11.9167 54.1265 11.9167C55.2117 11.9167 55.7862 12.8215 55.7862 13.8979C55.7862 15.0211 55.2596 15.8947 54.1265 15.8947Z" fill="#294342"/>
<path d="M63.3469 16.6591C62.2138 16.6591 61.6234 15.6919 61.6234 14.2411C61.6234 12.7903 62.2138 11.8075 63.3469 11.8075C64.48 11.8075 65.0864 12.7903 65.0864 14.2411C65.0864 15.6919 64.48 16.6591 63.3469 16.6591ZM63.3629 18.4687C65.9961 18.4687 67.7193 16.6435 67.7193 14.2411C67.7193 11.8387 65.9961 10.0135 63.3629 10.0135C60.7456 10.0135 58.9902 11.8387 58.9902 14.2411C58.9902 16.6435 60.7456 18.4687 63.3629 18.4687Z" fill="#294342"/>
<path d="M68.4793 18.2191H71.0806V10.2319H68.4793V18.2191ZM68.4793 9.1243H71.0806V7.0651H68.4793V9.1243Z" fill="#294342"/>
<path d="M72.209 20.8555H74.8103V17.3923H74.8422C75.3529 18.0631 76.1029 18.4687 77.1562 18.4687C79.2947 18.4687 80.715 16.8151 80.715 14.2255C80.715 11.8231 79.3904 9.9979 77.22 9.9979C76.1029 9.9979 75.305 10.4815 74.7464 11.1991H74.6985V10.2319H72.209V20.8555ZM76.4859 16.5031C75.3688 16.5031 74.7305 15.6139 74.7305 14.3191C74.7305 13.0243 75.305 12.0415 76.4381 12.0415C77.5552 12.0415 78.0818 12.9463 78.0818 14.3191C78.0818 15.6763 77.4754 16.5031 76.4859 16.5031Z" fill="#294342"/>
<path d="M84.95 18.4687C87.0885 18.4687 88.6684 17.5639 88.6684 15.8167C88.6684 13.7731 86.9768 13.4143 85.5405 13.1803C84.5032 12.9931 83.5776 12.9151 83.5776 12.3535C83.5776 11.8543 84.0723 11.6203 84.7107 11.6203C85.4288 11.6203 85.9235 11.8387 86.0193 12.5563H88.4131C88.2854 10.9807 87.0406 9.9979 84.7266 9.9979C82.7956 9.9979 81.1997 10.8715 81.1997 12.5563C81.1997 14.4283 82.7158 14.8027 84.1361 15.0367C85.2213 15.2239 86.2108 15.3019 86.2108 16.0195C86.2108 16.5343 85.7161 16.8151 84.9341 16.8151C84.0723 16.8151 83.5297 16.4251 83.434 15.6295H80.9763C81.0561 17.3923 82.5562 18.4687 84.95 18.4687Z" fill="#294342"/>
<path d="M92.202 18.4531C93.335 18.4531 94.0532 18.0163 94.6436 17.2363H94.6915V18.2191H97.1811V10.2319H94.5798V14.6935C94.5798 15.6451 94.0372 16.3003 93.1435 16.3003C92.3137 16.3003 91.9147 15.8167 91.9147 14.9431V10.2319H89.3294V15.4735C89.3294 17.2519 90.3188 18.4531 92.202 18.4531Z" fill="#294342"/>
<path d="M98.3128 18.2191H100.914V13.7419C100.914 12.7903 101.393 12.1195 102.207 12.1195C102.989 12.1195 103.356 12.6187 103.356 13.4767V18.2191H105.957V13.7419C105.957 12.7903 106.42 12.1195 107.25 12.1195C108.032 12.1195 108.399 12.6187 108.399 13.4767V18.2191H111V13.0243C111 11.2303 110.074 9.9979 108.223 9.9979C107.17 9.9979 106.292 10.4347 105.654 11.4019H105.622C105.207 10.5439 104.393 9.9979 103.324 9.9979C102.143 9.9979 101.361 10.5439 100.85 11.3707H100.802V10.2319H98.3128V18.2191Z" fill="#294342"/>
<path d="M16.6852 0.685009L14.07 0L11.8661 8.04023L9.87634 0.781456L7.26103 1.46647L9.41081 9.30903L4.05623 4.07484L2.14172 5.94631L8.01502 11.6876L0.700759 9.77183L0 12.3283L7.99174 14.4215C7.90025 14.0358 7.85184 13.6338 7.85184 13.2208C7.85184 10.2974 10.2762 7.92745 13.2669 7.92745C16.2576 7.92745 18.682 10.2974 18.682 13.2208C18.682 13.6311 18.6342 14.0306 18.5438 14.4141L25.8068 16.3165L26.5075 13.76L18.484 11.6585L25.7988 9.74251L25.098 7.18606L17.0748 9.28751L22.4293 4.05335L20.5148 2.18188L14.723 7.84354L16.6852 0.685009Z" fill="#294342"/>
<path d="M18.5367 14.4439C18.3125 15.3705 17.8391 16.203 17.1896 16.87L22.4513 22.0135L24.3658 20.142L18.5367 14.4439Z" fill="#294342"/>
<path d="M17.1364 16.9238C16.479 17.5801 15.6483 18.0699 14.7167 18.3223L16.6313 25.3072L19.2466 24.6221L17.1364 16.9238Z" fill="#294342"/>
<path d="M14.619 18.3478C14.1868 18.4564 13.7338 18.5141 13.2669 18.5141C12.7667 18.5141 12.2824 18.4478 11.8226 18.3238L9.90619 25.315L12.5214 26L14.619 18.3478Z" fill="#294342"/>
<path d="M11.7301 18.2979C10.8128 18.033 9.99682 17.537 9.35289 16.8788L4.07821 22.0349L5.99272 23.9064L11.7301 18.2979Z" fill="#294342"/>
<path d="M9.30887 16.8332C8.67597 16.1709 8.21496 15.3495 7.99553 14.4372L0.708805 16.3458L1.40956 18.9023L9.30887 16.8332Z" fill="#294342"/>
</svg>
