<svg width="111" height="26" viewBox="0 0 111 26" fill="none" xmlns="http://www.w3.org/2000/svg">
<path d="M32.3529 18.525H40.3209V16.185H35.1849V7.37099H32.3529V18.525Z" fill="#294342"/>
<path d="M45.0418 16.965C43.9058 16.965 43.3138 15.9978 43.3138 14.547C43.3138 13.0962 43.9058 12.1134 45.0418 12.1134C46.1778 12.1134 46.7858 13.0962 46.7858 14.547C46.7858 15.9978 46.1778 16.965 45.0418 16.965ZM45.0578 18.7746C47.6978 18.7746 49.4258 16.9494 49.4258 14.547C49.4258 12.1446 47.6978 10.3194 45.0578 10.3194C42.4338 10.3194 40.6737 12.1446 40.6737 14.547C40.6737 16.9494 42.4338 18.7746 45.0578 18.7746Z" fill="#294342"/>
<path d="M53.9954 21.2862C55.2114 21.2862 56.2834 21.021 57.0034 20.397C57.6594 19.8198 58.0914 18.9462 58.0914 17.745V10.5378H55.5954V11.3958H55.5634C55.0834 10.725 54.3474 10.3038 53.2594 10.3038C51.2274 10.3038 49.8194 11.9574 49.8194 14.2974C49.8194 16.7466 51.5314 18.0882 53.3714 18.0882C54.3634 18.0882 54.9874 17.6982 55.4674 17.1678H55.5314V17.9634C55.5314 18.9306 55.0674 19.4922 53.9634 19.4922C53.0994 19.4922 52.6674 19.1334 52.5234 18.7122H49.9954C50.2514 20.3814 51.7394 21.2862 53.9954 21.2862ZM53.9794 16.2006C53.0034 16.2006 52.3634 15.4206 52.3634 14.2194C52.3634 13.0026 53.0034 12.2226 53.9794 12.2226C55.0674 12.2226 55.6434 13.1274 55.6434 14.2038C55.6434 15.327 55.1154 16.2006 53.9794 16.2006Z" fill="#294342"/>
<path d="M63.2237 16.965C62.0877 16.965 61.4957 15.9978 61.4957 14.547C61.4957 13.0962 62.0877 12.1134 63.2237 12.1134C64.3597 12.1134 64.9677 13.0962 64.9677 14.547C64.9677 15.9978 64.3597 16.965 63.2237 16.965ZM63.2397 18.7746C65.8797 18.7746 67.6079 16.9494 67.6079 14.547C67.6079 12.1446 65.8797 10.3194 63.2397 10.3194C60.6157 10.3194 58.8557 12.1446 58.8557 14.547C58.8557 16.9494 60.6157 18.7746 63.2397 18.7746Z" fill="#294342"/>
<path d="M68.3692 18.525H70.9772V10.5378H68.3692V18.525ZM68.3692 9.43019H70.9772V7.37099H68.3692V9.43019Z" fill="#294342"/>
<path d="M72.1086 21.1614H74.7166V17.6982H74.7486C75.2606 18.369 76.0126 18.7746 77.0686 18.7746C79.2126 18.7746 80.6366 17.121 80.6366 14.5314C80.6366 12.129 79.3086 10.3038 77.1326 10.3038C76.0126 10.3038 75.2126 10.7874 74.6526 11.505H74.6046V10.5378H72.1086V21.1614ZM76.3966 16.809C75.2766 16.809 74.6366 15.9198 74.6366 14.625C74.6366 13.3302 75.2126 12.3474 76.3486 12.3474C77.4686 12.3474 77.9966 13.2522 77.9966 14.625C77.9966 15.9822 77.3886 16.809 76.3966 16.809Z" fill="#294342"/>
<path d="M84.8833 18.7746C87.0273 18.7746 88.6113 17.8698 88.6113 16.1226C88.6113 14.079 86.9153 13.7202 85.4753 13.4862C84.4353 13.299 83.5073 13.221 83.5073 12.6594C83.5073 12.1602 84.0033 11.9262 84.6433 11.9262C85.3633 11.9262 85.8593 12.1446 85.9553 12.8622H88.3553C88.2273 11.2866 86.9793 10.3038 84.6593 10.3038C82.7233 10.3038 81.1233 11.1774 81.1233 12.8622C81.1233 14.7342 82.6433 15.1086 84.0673 15.3426C85.1553 15.5298 86.1473 15.6078 86.1473 16.3254C86.1473 16.8402 85.6513 17.121 84.8673 17.121C84.0033 17.121 83.4593 16.731 83.3633 15.9354H80.8992C80.9792 17.6982 82.4833 18.7746 84.8833 18.7746Z" fill="#294342"/>
<path d="M92.1533 18.759C93.2893 18.759 94.0093 18.3222 94.6013 17.5422H94.6493V18.525H97.1453V10.5378H94.5373V14.9994C94.5373 15.951 93.9933 16.6062 93.0973 16.6062C92.2653 16.6062 91.8653 16.1226 91.8653 15.249V10.5378H89.2733V15.7794C89.2733 17.5578 90.2653 18.759 92.1533 18.759Z" fill="#294342"/>
<path d="M98.28 18.525H100.888V14.0478C100.888 13.0962 101.368 12.4254 102.184 12.4254C102.968 12.4254 103.336 12.9246 103.336 13.7826V18.525H105.944V14.0478C105.944 13.0962 106.408 12.4254 107.24 12.4254C108.024 12.4254 108.392 12.9246 108.392 13.7826V18.525H111V13.3302C111 11.5362 110.072 10.3038 108.216 10.3038C107.16 10.3038 106.28 10.7406 105.64 11.7078H105.608C105.192 10.8498 104.376 10.3038 103.304 10.3038C102.12 10.3038 101.336 10.8498 100.824 11.6766H100.776V10.5378H98.28V18.525Z" fill="#294342"/>
<path fill-rule="evenodd" clip-rule="evenodd" d="M5.70183 2.33861C4.74806 2.98885 3.88559 3.75764 3.13689 4.62306C6.19643 4.34611 10.0835 4.79833 14.5963 6.99834C19.4154 9.34758 23.2959 9.427 25.9966 8.9191C25.7515 8.19571 25.443 7.50047 25.0776 6.83955C21.986 7.15746 18.0227 6.73665 13.4037 4.48499C10.4707 3.05512 7.88519 2.4661 5.70183 2.33861ZM23.2716 4.33332C20.8302 1.67375 17.2823 0 13.3333 0C12.1737 0 11.0485 0.14437 9.9758 0.415662C11.4286 0.802156 12.9719 1.36759 14.5963 2.15947C17.978 3.80804 20.8976 4.33885 23.2716 4.33332ZM26.574 11.4583C23.3113 12.0864 18.8059 11.9574 13.4037 9.32385C8.35333 6.86178 4.33363 6.89278 1.6226 7.48019C1.48267 7.51048 1.34603 7.54233 1.21269 7.57548C0.857749 8.32811 0.574424 9.11956 0.371136 9.94142C0.588259 9.88487 0.812622 9.83111 1.04411 9.78093C4.33306 9.06834 8.98006 9.09927 14.5963 11.8372C19.6468 14.2993 23.6664 14.2683 26.3775 13.6809C26.4704 13.6608 26.5619 13.64 26.6519 13.6185C26.6618 13.4136 26.6667 13.2073 26.6667 13C26.6667 12.4784 26.6352 11.9639 26.574 11.4583ZM26.2166 16.362C22.9856 16.9127 18.6114 16.7014 13.4037 14.1627C8.35333 11.7006 4.33363 11.7316 1.6226 12.3191C1.02084 12.4494 0.479494 12.6082 0.00195334 12.7758C0.000651335 12.8504 0 12.9251 0 13C0 20.1797 5.96954 26 13.3333 26C19.5048 26 24.6969 21.9121 26.2166 16.362Z" fill="#294342"/>
</svg>
