<svg width="139" height="26" viewBox="0 0 139 26" fill="none" xmlns="http://www.w3.org/2000/svg">
<path d="M134.187 6.65338L134.264 6.67899C135.262 6.70453 136.133 7.39502 136.389 8.34116L136.415 8.44347L139 18.928H135.57L134.034 12.6884L132.831 16.4986C132.472 17.5471 131.499 18.2887 130.373 18.2887C129.298 18.2887 128.325 17.5982 127.967 16.6009L127.915 16.4986L126.712 12.6884L125.177 18.928H121.771L124.331 8.44347L124.357 8.34116C124.639 7.34387 125.534 6.65338 126.585 6.65338L126.661 6.67899C127.608 6.70453 128.427 7.31826 128.761 8.18776L128.786 8.26446L130.373 13.251L131.96 8.26446L131.986 8.18776C132.319 7.2671 133.189 6.65338 134.187 6.65338Z" fill="#19214F"/>
<path d="M115.481 18.928C112.076 18.928 109.337 16.1918 109.337 12.7907V6.65338H112.639V12.7907C112.639 14.3506 113.919 15.6292 115.481 15.6292C117.017 15.6292 118.297 14.3506 118.297 12.7907V6.65338H121.625V12.7907C121.625 16.1918 118.86 18.928 115.481 18.928Z" fill="#19214F"/>
<path d="M108.735 6.65338V9.97779C107.302 9.97779 106.047 10.9239 105.638 12.3048L105.049 14.2483C104.23 17.0357 101.67 18.928 98.777 18.928V15.6292C100.185 15.6292 101.465 14.6831 101.874 13.3021L102.438 11.3586C103.257 8.57133 105.817 6.65338 108.735 6.65338Z" fill="#19214F"/>
<path d="M95.4603 11.9724C95.9978 11.9724 96.4585 11.5377 96.4585 10.9751C96.4585 10.4381 95.9978 9.97779 95.4603 9.97779H91.7995V11.9724H95.4603ZM95.4603 6.65338C97.8412 6.65338 99.7868 8.59687 99.7868 10.9751C99.7868 13.3533 97.8412 15.2968 95.4603 15.2968H91.7995V18.928H88.4972V9.64532C88.4972 8.00875 89.8285 6.65338 91.467 6.65338H95.4603Z" fill="#19214F"/>
<path d="M83.5766 6.65338H86.8789V18.928H83.5766V6.65338Z" fill="#19214F"/>
<path d="M76.13 9.82433H75.4643C73.8005 9.82433 72.4691 11.1541 72.4691 12.7907C72.4691 14.4529 73.8005 15.7827 75.4643 15.7827H76.13C77.7938 15.7827 79.1252 14.4529 79.1252 12.7907C79.1252 11.1541 77.7938 9.82433 76.13 9.82433ZM75.4643 6.49998H76.13C79.6112 6.49998 82.4275 9.31291 82.4275 12.7907C82.4275 16.2941 79.6112 19.107 76.13 19.107H75.4643C71.9831 19.107 69.1668 16.2941 69.1668 12.7907C69.1668 9.31291 71.9831 6.49998 75.4643 6.49998Z" fill="#19214F"/>
<path d="M67.7639 9.97779H61.313C59.7513 9.97779 58.4714 11.2564 58.4714 12.7907C58.4714 14.3506 59.7513 15.6292 61.313 15.6292H64.5129C64.8457 15.578 65.1273 15.2968 65.1273 14.9388V14.6319H60.1354V11.3076H65.6908C67.2265 11.3076 68.4296 12.535 68.4296 14.0437V14.9388C68.4296 17.1124 66.7143 18.8768 64.5385 18.928H61.313C57.9082 18.928 55.169 16.1918 55.169 12.7907C55.169 9.41522 57.9082 6.65338 61.313 6.65338H67.7639V9.97779Z" fill="#19214F"/>
<path d="M48.2855 9.82433H47.6199C45.9559 9.82433 44.6248 11.1541 44.6248 12.7907C44.6248 14.4529 45.9559 15.7827 47.6199 15.7827H48.2855C49.9495 15.7827 51.2807 14.4529 51.2807 12.7907C51.2807 11.1541 49.9495 9.82433 48.2855 9.82433ZM47.6199 6.49998H48.2855C51.767 6.49998 54.583 9.31291 54.583 12.7907C54.583 16.2941 51.767 19.107 48.2855 19.107H47.6199C44.1384 19.107 41.3224 16.2941 41.3224 12.7907C41.3224 9.31291 44.1384 6.49998 47.6199 6.49998Z" fill="#19214F"/>
<path d="M30.5829 13.967V6.65338H33.8853V13.967C33.8853 14.8876 34.6277 15.6292 35.5493 15.6292H40.5412V18.928H35.5493C32.8101 18.928 30.5829 16.7033 30.5829 13.967Z" fill="#19214F"/>
<path d="M4.95333 1.63225C7.18445 0.395808 9.73051 -0.158256 12.2744 0.0389985C14.8181 0.236261 17.2478 1.17631 19.2611 2.74182C21.2745 4.3074 22.7825 6.43012 23.598 8.84504C24.4136 11.26 24.5009 13.8613 23.8484 16.3251L23.7175 16.784C23.0231 19.064 21.7135 21.1131 19.9283 22.7033L19.5655 23.0143C17.7277 24.5339 15.5043 25.5216 13.1373 25.865L12.6632 25.9253C11.0609 26.098 9.44602 25.9698 7.89924 25.5558L10.1214 23.3361C10.9958 23.4327 11.8833 23.4199 12.763 23.2923C14.783 22.9993 16.6726 22.1197 18.1961 20.7627C19.7195 19.4058 20.81 17.6309 21.332 15.6599C21.8214 13.812 21.7908 11.8674 21.2475 10.0397L21.1319 9.676C20.4794 7.74407 19.273 6.04582 17.6623 4.79338C16.1524 3.61932 14.3496 2.88544 12.4536 2.66819L12.0729 2.63137C10.0378 2.47357 8.00088 2.91683 6.21597 3.90598C5.02713 4.56486 3.98628 5.44787 3.1442 6.49772H0C1.17805 4.46084 2.88793 2.7769 4.95333 1.63225Z" fill="#3754FA"/>
<path d="M6.97212 4.9732C8.47166 4.17262 10.166 3.80778 11.8626 3.91886C13.5592 4.02999 15.1911 4.61298 16.5731 5.60225C17.955 6.5915 19.0324 7.94733 19.683 9.51623C20.3337 11.0853 20.5312 12.8057 20.2544 14.4813C19.9773 16.1569 19.2363 17.7221 18.1154 18.9989C16.9943 20.2758 15.5376 21.2138 13.9106 21.7068L13.6043 21.7944C12.8695 21.9894 12.1159 22.0889 11.3612 22.0966L15.7407 17.7224C15.887 17.5842 16.0279 17.4396 16.1614 17.2876C16.9626 16.3751 17.4923 15.2562 17.6903 14.0585C17.8882 12.861 17.7467 11.6316 17.2817 10.5103C16.8167 9.38883 16.0466 8.41988 15.0589 7.71287L14.8721 7.58333C13.9256 6.95465 12.8291 6.58383 11.6923 6.50934L11.4654 6.4979C11.364 6.49481 11.2623 6.49499 11.161 6.49664H4.89423C5.50837 5.89608 6.20695 5.38179 6.97212 4.9732Z" fill="#3754FA"/>
<path d="M5.53769 20.5746C5.25574 20.8565 5.29472 21.3243 5.61947 21.5557C5.87618 21.7387 6.22766 21.7093 6.45073 21.4867L13.1022 14.8424C14.1213 13.8243 14.1213 12.1736 13.1022 11.1556C12.6128 10.6668 11.9488 10.3921 11.2568 10.3921H3.98564C3.69512 10.3921 3.43901 10.5836 3.35703 10.862C3.23389 11.2808 3.54822 11.7002 3.98519 11.7005L10.8821 11.7063C12.1859 11.7069 12.8385 13.2816 11.9164 14.2028L5.53769 20.5746ZM8.29116 23.3251C7.1687 24.4462 5.39952 24.5931 4.10747 23.6721C2.47318 22.507 2.27768 20.1544 3.69723 18.7361L8.13395 14.3042L3.98385 14.3006C1.80983 14.2992 0.246666 12.2116 0.860102 10.1281C1.26788 8.74325 2.5405 7.79237 3.98564 7.79237H11.2568C12.6391 7.79237 13.9651 8.34071 14.9426 9.31707C16.9782 11.3505 16.9782 14.6474 14.9426 16.6808L8.29116 23.3251Z" fill="#3754FA"/>
</svg>
