<svg width="144" height="26" viewBox="0 0 144 26" fill="none" xmlns="http://www.w3.org/2000/svg">
<path fill-rule="evenodd" clip-rule="evenodd" d="M12.973 0C17.8228 0 20.2478 -0.000133198 22.0541 1.04482C23.2373 1.72942 24.2201 2.71425 24.9033 3.9C25.9461 5.70999 25.9459 8.14008 25.9459 13C25.9459 17.8599 25.9461 20.29 24.9033 22.1C24.2201 23.2857 23.2373 24.2706 22.0541 24.9552C20.2478 26.0001 17.8228 26 12.973 26C8.12316 26 5.69812 26.0001 3.89189 24.9552C2.70861 24.2706 1.72582 23.2857 1.04265 22.1C-0.000132922 20.29 0 17.8599 0 13C0 8.14008 -0.000132922 5.70999 1.04265 3.9C1.72582 2.71425 2.70861 1.72942 3.89189 1.04482C5.69812 -0.000133198 8.12316 0 12.973 0ZM14.2703 2.6C8.53842 2.6 3.89189 7.25621 3.89189 13C3.89189 18.7438 8.53842 23.4 14.2703 23.4C20.0021 23.4 24.6486 18.7438 24.6486 13C24.6486 7.25621 20.0021 2.6 14.2703 2.6Z" fill="#FF4D00"/>
<path d="M23.3514 13C23.3514 16.5898 20.4472 19.5 16.8649 19.5C13.2825 19.5 10.3784 16.5898 10.3784 13C10.3784 9.41018 13.2825 6.5 16.8649 6.5C20.4472 6.5 23.3514 9.41018 23.3514 13Z" fill="#FF4D00"/>
<path d="M139.158 7.31815C140.608 7.31815 141.774 7.76444 142.656 8.65709C143.552 9.5355 144 10.7682 144 12.3551V19.2623H141.014V12.7589C141.014 11.8379 140.779 11.1366 140.31 10.6549C139.84 10.159 139.2 9.911 138.39 9.911C137.579 9.911 136.932 10.159 136.448 10.6549C135.979 11.1366 135.745 11.8379 135.745 12.7589V19.2623H132.758V12.7589C132.758 11.8379 132.523 11.1366 132.054 10.6549C131.585 10.159 130.945 9.911 130.134 9.911C129.309 9.911 128.655 10.159 128.172 10.6549C127.702 11.1366 127.467 11.8379 127.467 12.7589V19.2623H124.481V7.48819H127.467V8.91208C127.851 8.4162 128.342 8.02659 128.94 7.74319C129.551 7.45985 130.219 7.31815 130.945 7.31815C131.869 7.31815 132.694 7.51653 133.419 7.91323C134.144 8.29575 134.706 8.84832 135.104 9.57092C135.488 8.89083 136.043 8.34535 136.768 7.93448C137.508 7.52355 138.304 7.31815 139.158 7.31815Z" fill="#391300"/>
<path d="M122.281 7.48813V19.2623H119.273V17.7746C118.889 18.2846 118.384 18.6884 117.758 18.986C117.147 19.2694 116.478 19.411 115.753 19.411C114.829 19.411 114.011 19.2198 113.3 18.8372C112.589 18.4405 112.027 17.8667 111.615 17.1157C111.217 16.3506 111.018 15.4438 111.018 14.3954V7.48813H114.004V13.9703C114.004 14.9054 114.239 15.628 114.708 16.1381C115.177 16.634 115.818 16.8819 116.628 16.8819C117.453 16.8819 118.1 16.634 118.569 16.1381C119.039 15.628 119.273 14.9054 119.273 13.9703V7.48813H122.281Z" fill="#391300"/>
<path d="M104.769 19.4535C103.802 19.4535 102.934 19.2836 102.166 18.9435C101.398 18.5893 100.787 18.1146 100.332 17.5195C99.8906 16.9244 99.6493 16.2656 99.6065 15.543H102.614C102.671 15.9964 102.892 16.3719 103.275 16.6694C103.674 16.9669 104.165 17.1157 104.748 17.1157C105.317 17.1157 105.757 17.0024 106.07 16.7757C106.397 16.549 106.561 16.2585 106.561 15.9043C106.561 15.5217 106.362 15.2384 105.963 15.0542C105.579 14.8558 104.961 14.6433 104.107 14.4166C103.226 14.2041 102.501 13.9845 101.932 13.7578C101.377 13.531 100.893 13.1839 100.481 12.7164C100.083 12.2488 99.8835 11.6183 99.8835 10.8249C99.8835 10.1731 100.068 9.57801 100.439 9.03961C100.822 8.50122 101.363 8.07619 102.06 7.76444C102.771 7.45277 103.603 7.2969 104.556 7.2969C105.963 7.2969 107.087 7.65108 107.926 8.35952C108.765 9.05378 109.227 9.99602 109.313 11.1862H106.454C106.411 10.7186 106.212 10.3502 105.857 10.081C105.516 9.79764 105.053 9.65594 104.47 9.65594C103.93 9.65594 103.51 9.75513 103.212 9.95351C102.927 10.1519 102.785 10.4281 102.785 10.7824C102.785 11.1791 102.984 11.4837 103.382 11.6962C103.781 11.8946 104.399 12.1001 105.238 12.3126C106.092 12.5251 106.795 12.7447 107.35 12.9714C107.905 13.1981 108.381 13.5523 108.779 14.0341C109.192 14.5016 109.405 15.125 109.419 15.9043C109.419 16.5844 109.227 17.1937 108.843 17.7321C108.474 18.2705 107.933 18.6956 107.222 19.0072C106.525 19.3048 105.708 19.4535 104.769 19.4535Z" fill="#391300"/>
<path d="M89.5219 9.1884C89.9059 8.65 90.432 8.20365 91.1008 7.84946C91.7831 7.48111 92.5583 7.2969 93.4255 7.2969C94.4355 7.2969 95.3455 7.54481 96.1563 8.04076C96.9808 8.53664 97.6281 9.24508 98.0977 10.166C98.581 11.0728 98.8229 12.1284 98.8229 13.3327C98.8229 14.5371 98.581 15.6068 98.0977 16.5419C97.6281 17.4628 96.9808 18.1784 96.1563 18.6885C95.3455 19.1985 94.4355 19.4535 93.4255 19.4535C92.5583 19.4535 91.7903 19.2765 91.1215 18.9222C90.4677 18.568 89.9345 18.1217 89.5219 17.5833V24.873H86.5356V7.48819H89.5219V9.1884ZM95.7723 13.3327C95.7723 12.6243 95.6231 12.0151 95.3241 11.5049C95.04 10.9807 94.656 10.584 94.1721 10.3148C93.7031 10.0456 93.1913 9.911 92.6361 9.911C92.0958 9.911 91.584 10.0527 91.1008 10.336C90.6311 10.6053 90.2471 11.002 89.9488 11.5262C89.664 12.0505 89.5219 12.6668 89.5219 13.3752C89.5219 14.0837 89.664 14.7 89.9488 15.2242C90.2471 15.7485 90.6311 16.1522 91.1008 16.4356C91.584 16.7049 92.0958 16.8394 92.6361 16.8394C93.1913 16.8394 93.7031 16.6978 94.1721 16.4144C94.656 16.131 95.04 15.7272 95.3241 15.203C95.6231 14.6788 95.7723 14.0553 95.7723 13.3327Z" fill="#391300"/>
<path d="M82.8597 6.08548C82.333 6.08548 81.8925 5.92254 81.5371 5.59666C81.1952 5.25662 81.0246 4.83864 81.0246 4.34274C81.0246 3.84684 81.1952 3.43595 81.5371 3.11007C81.8925 2.77002 82.333 2.6 82.8597 2.6C83.3857 2.6 83.8197 2.77002 84.1609 3.11007C84.5163 3.43595 84.6941 3.84684 84.6941 4.34274C84.6941 4.83864 84.5163 5.25662 84.1609 5.59666C83.8197 5.92254 83.3857 6.08548 82.8597 6.08548ZM84.3315 7.48819V19.2623H81.3451V7.48819H84.3315Z" fill="#391300"/>
<path d="M73.7358 19.4535C72.5981 19.4535 71.5738 19.2056 70.6638 18.7097C69.7537 18.1996 69.0357 17.4841 68.509 16.5632C67.9972 15.6422 67.7416 14.5796 67.7416 13.3752C67.7416 12.1709 68.0043 11.1082 68.5304 10.1873C69.0714 9.26633 69.8037 8.5579 70.728 8.06201C71.6523 7.55189 72.683 7.2969 73.8208 7.2969C74.9585 7.2969 75.9898 7.55189 76.9142 8.06201C77.8385 8.5579 78.5637 9.26633 79.0904 10.1873C79.6307 11.1082 79.9005 12.1709 79.9005 13.3752C79.9005 14.5796 79.6236 15.6422 79.069 16.5632C78.5286 17.4841 77.7885 18.1996 76.8499 18.7097C75.9256 19.2056 74.8878 19.4535 73.7358 19.4535ZM73.7358 16.8607C74.2761 16.8607 74.7808 16.7332 75.2504 16.4781C75.7336 16.2089 76.1176 15.8122 76.4024 15.288C76.6865 14.7638 76.8292 14.1262 76.8292 13.3752C76.8292 12.2559 76.5302 11.3987 75.9328 10.8036C75.3496 10.1943 74.6316 9.88975 73.7786 9.88975C72.925 9.88975 72.2069 10.1943 71.6238 10.8036C71.0549 11.3987 70.7708 12.2559 70.7708 13.3752C70.7708 14.4945 71.0478 15.3588 71.6024 15.9681C72.1712 16.5632 72.8822 16.8607 73.7358 16.8607Z" fill="#391300"/>
<path d="M60.8788 19.4535C59.7411 19.4535 58.7172 19.2056 57.807 18.7097C56.8969 18.1996 56.1787 17.4841 55.6524 16.5632C55.1405 15.6422 54.8845 14.5796 54.8845 13.3752C54.8845 12.1709 55.1476 11.1082 55.6738 10.1873C56.2142 9.26633 56.9466 8.5579 57.871 8.06201C58.7954 7.55189 59.8265 7.2969 60.9642 7.2969C62.1019 7.2969 63.133 7.55189 64.0574 8.06201C64.9816 8.5579 65.7068 9.26633 66.2335 10.1873C66.7738 11.1082 67.0437 12.1709 67.0437 13.3752C67.0437 14.5796 66.7667 15.6422 66.2121 16.5632C65.6718 17.4841 64.9317 18.1996 63.9933 18.7097C63.069 19.2056 62.0308 19.4535 60.8788 19.4535ZM60.8788 16.8607C61.4192 16.8607 61.9242 16.7332 62.3934 16.4781C62.8769 16.2089 63.2609 15.8122 63.5454 15.288C63.8298 14.7638 63.9721 14.1262 63.9721 13.3752C63.9721 12.2559 63.6734 11.3987 63.0761 10.8036C62.493 10.1943 61.7748 9.88975 60.9215 9.88975C60.0682 9.88975 59.3501 10.1943 58.767 10.8036C58.1981 11.3987 57.9137 12.2559 57.9137 13.3752C57.9137 14.4945 58.191 15.3588 58.7456 15.9681C59.3145 16.5632 60.0256 16.8607 60.8788 16.8607Z" fill="#391300"/>
<path d="M48.022 19.4535C46.8843 19.4535 45.8604 19.2056 44.9502 18.7097C44.04 18.1996 43.3218 17.4841 42.7956 16.5632C42.2837 15.6422 42.0276 14.5796 42.0276 13.3752C42.0276 12.1709 42.2907 11.1082 42.817 10.1873C43.3574 9.26633 44.0897 8.5579 45.0141 8.06201C45.9386 7.55189 46.9696 7.2969 48.1073 7.2969C49.2451 7.2969 50.2761 7.55189 51.2005 8.06201C52.1249 8.5579 52.8502 9.26633 53.3764 10.1873C53.9168 11.1082 54.1871 12.1709 54.1871 13.3752C54.1871 14.5796 53.9097 15.6422 53.3551 16.5632C52.8147 17.4841 52.0751 18.1996 51.1365 18.7097C50.2122 19.2056 49.174 19.4535 48.022 19.4535ZM48.022 16.8607C48.5624 16.8607 49.0673 16.7332 49.5366 16.4781C50.0201 16.2089 50.4041 15.8122 50.6885 15.288C50.9729 14.7638 51.1152 14.1262 51.1152 13.3752C51.1152 12.2559 50.8166 11.3987 50.2192 10.8036C49.6362 10.1943 48.918 9.88975 48.0647 9.88975C47.2114 9.88975 46.4932 10.1943 45.9101 10.8036C45.3413 11.3987 45.0568 12.2559 45.0568 13.3752C45.0568 14.4945 45.3342 15.3588 45.8888 15.9681C46.4576 16.5632 47.1688 16.8607 48.022 16.8607Z" fill="#391300"/>
<path d="M36.7162 16.9032H41.6227V19.2622H33.7297V4.42773H36.7162V16.9032Z" fill="#391300"/>
<path d="M63.7779 19.9482C64.0186 19.8515 64.2541 19.7415 64.4842 19.618L64.4892 19.6153C65.5051 19.0633 66.3289 18.3007 66.949 17.3391V19.6756C66.8828 22.8208 64.3132 25.35 61.1533 25.35H60.8353C57.6754 25.35 55.1061 22.8208 55.0399 19.6756H58.1841C58.249 21.0842 59.4112 22.2063 60.8353 22.2063H61.1533C62.4843 22.2063 63.5864 21.2262 63.7779 19.9482Z" fill="#391300"/>
</svg>
