<svg width="136" height="26" viewBox="0 0 136 26" fill="none" xmlns="http://www.w3.org/2000/svg">
<path d="M63.0252 2.60103C62.8151 4.0912 63.7837 5.20206 65.293 5.20206C66.8027 5.20206 68.0846 4.0912 68.2948 2.60103C68.505 1.11086 67.536 0 66.0264 0C64.5171 0 63.2352 1.11086 63.0252 2.60103Z" fill="#1B005E"/>
<path d="M63.0629 6.4213L61.7683 15.6047L65.9073 15.4466L67.1794 6.4213H63.0629Z" fill="#1B005E"/>
<path fill-rule="evenodd" clip-rule="evenodd" d="M52.1918 20.1581C55.4568 20.1581 58.232 18.4248 59.6197 15.7994L61.7288 15.8853L61.1761 19.8058H65.293L65.822 16.0522L68.0046 16.1412L66.6816 25.5228H70.7987L71.8106 18.3429C72.4932 19.535 73.7777 20.1581 75.3974 20.1581C77.5864 20.1581 80.1567 19.0313 81.693 16.6992L83.2697 16.7635C83.5385 18.7896 85.4321 20.1581 88.4364 20.1581C91.9217 20.1581 94.4868 18.3158 94.8766 15.5522C95.3236 12.3822 92.4045 11.8674 90.494 11.5965L90.3274 11.571C89.1724 11.3955 88.2907 11.2615 88.4 10.4855C88.4768 9.9437 88.9609 9.4289 89.976 9.4289C90.7998 9.4289 91.299 9.78113 91.3211 10.4043H95.3275C95.5852 7.99292 93.771 6.06924 90.3951 6.06924C87.0192 6.06924 84.5835 7.96582 84.2016 10.6752C83.7474 13.8994 86.7563 14.36 88.5841 14.631L88.685 14.6463L88.8269 14.6676C89.9448 14.835 90.7881 14.9613 90.6704 15.796C90.5903 16.365 90.1172 16.7985 88.8548 16.7985C87.7298 16.7985 87.258 16.4463 87.3296 15.7418L58.1943 15.7412L59.6792 15.6846C60.079 14.8977 60.3555 14.0335 60.4852 13.1137C61.0581 9.04956 58.4593 6.06924 54.178 6.06924C54.1116 6.06924 54.0455 6.06995 53.9795 6.07138L53.9926 6.06261L41.0143 6.06263C40.8284 6.06138 40.6518 6.06137 40.4864 6.06263H41.0143C44.3471 6.08503 50.6985 6.50643 49.8814 7.19297C47.7475 8.41815 46.2459 10.5503 45.8846 13.1137C45.3116 17.1778 47.9104 20.1581 52.1918 20.1581ZM52.7265 16.365C54.5927 16.365 56.0423 15.0374 56.3136 13.1137C56.5848 11.19 55.5095 9.86238 53.6432 9.86238C51.777 9.86238 50.3274 11.19 50.0561 13.1137C49.785 15.0374 50.8603 16.365 52.7265 16.365Z" fill="#1B005E"/>
<path d="M78.8052 13.1137C78.7043 13.8328 78.4382 14.4685 78.0471 14.9828L82.6008 14.8088C82.7576 14.3309 82.8774 13.8202 82.9541 13.2762C83.5613 8.96831 80.9512 6.06924 76.6422 6.06924C72.4984 6.06924 69.0464 8.75154 68.4119 13.2491L68.1145 15.3623L72.8849 15.18C72.5596 14.6349 72.4333 13.9277 72.5479 13.1137C72.8192 11.19 74.269 9.86238 76.1353 9.86238C78.0015 9.86238 79.0765 11.19 78.8052 13.1137Z" fill="#1B005E"/>
<path d="M110.919 17.7489L111.69 12.2738C112.298 7.96581 115.09 6.06924 118.384 6.06924C120.305 6.06924 121.821 6.80075 122.638 8.20969C123.852 6.80075 125.547 6.06924 127.495 6.06924C130.789 6.06924 133.046 7.96581 132.439 12.2738L131.377 19.806H127.26L128.322 12.2738C128.575 10.4855 127.784 9.86238 126.549 9.86238C125.341 9.86238 124.376 10.4855 124.123 12.2738L123.061 19.806H118.945L120.007 12.2738C120.258 10.4855 119.469 9.86238 118.261 9.86238C117.026 9.86238 116.059 10.4855 115.808 12.2738L114.746 19.806H112.279L112.279 19.8075H106.511C108.905 19.5657 110.744 18.9127 110.915 17.7431L110.919 17.7489Z" fill="#1B005E"/>
<path d="M102.136 20.158C98.1289 20.158 95.7603 17.8821 96.398 13.3574L97.119 8.24564C97.2341 6.92523 96.191 6.76026 93.8901 6.42942H97.3747L97.376 6.42128H101.493L100.515 13.3574C100.217 15.4707 101.134 16.3648 102.671 16.3648C104.208 16.3648 105.377 15.4707 105.675 13.3574L106.653 6.42128H110.769L109.791 13.3574C109.157 17.855 106.143 20.158 102.136 20.158Z" fill="#1B005E"/>
<path d="M32.0266 18.2218C31.7356 17.9044 31.4845 17.5533 31.2763 17.1724L28.3371 17.0128C26.8168 18.9457 24.4287 20.1581 21.6979 20.1581C17.4165 20.1581 14.8177 17.1778 15.3906 13.1137C15.9636 9.04956 19.4026 6.06924 23.684 6.06924C27.9654 6.06924 30.5642 9.04956 29.9913 13.1137C29.8603 14.0427 29.5795 14.915 29.1733 15.7081L23.8782 15.9775C24.9092 15.4496 25.6357 14.4188 25.8196 13.1137C26.0909 11.19 25.0155 9.86238 23.1493 9.86238C21.2831 9.86238 19.8334 11.19 19.5623 13.1137C19.3592 14.5537 19.9108 15.6597 20.9838 16.1248L16.3377 16.3613H37.5809V16.3637C39.3981 16.3165 40.8003 15.0024 41.0666 13.1137C41.3377 11.19 40.2624 9.86238 38.3962 9.86238C36.53 9.86238 35.0804 11.19 34.8092 13.1137C34.6786 14.0402 34.8603 14.8285 35.2923 15.3967L30.7066 15.63C30.5393 14.8579 30.5109 14.0123 30.6375 13.1137C31.2105 9.04956 34.6495 6.06924 38.9309 6.06924C43.2123 6.06924 45.8111 9.04956 45.2382 13.1137C44.6847 17.0394 41.457 19.954 37.3791 20.1479C38.3395 20.6868 39.7344 21.1226 40.7598 21.4428C41.1019 21.5498 41.4028 21.6438 41.6327 21.7244C42.5639 21.9539 43.1589 22.8104 43.0149 23.8321C42.8461 25.0294 41.7261 26 40.5133 26H33.9252C31.7717 26 30.196 24.47 30.1057 22.4509L21.98 21.6651H30.1444L30.1445 21.6641H37.1698C35.5635 21.0508 33.8661 19.8239 32.7748 18.8981C32.5027 18.6945 32.2531 18.4688 32.0275 18.2227L32.0266 18.2218Z" fill="#1B005E"/>
<path d="M0 2.08633L3.36278 2.61985L0.940001 19.8058H13.8665L14.4394 15.7417H5.95899L7.88403 2.08629L0 2.08633Z" fill="#1B005E"/>
<path d="M136 5.11999C136 5.98362 135.298 6.68375 134.431 6.68375C133.565 6.68375 132.863 5.98362 132.863 5.11999C132.863 4.25634 133.565 3.55623 134.431 3.55623C135.298 3.55623 136 4.25634 136 5.11999Z" fill="#1B005E"/>
</svg>
