<svg width="18" height="18" viewBox="0 0 18 18" fill="none" xmlns="http://www.w3.org/2000/svg">
<path d="M17.8288 17.0203L13.1816 12.4474C14.3986 11.1252 15.1463 9.37661 15.1463 7.45245C15.1457 3.33631 11.7554 0 7.57286 0C3.39034 0 0 3.33631 0 7.45245C0 11.5686 3.39034 14.9049 7.57286 14.9049C9.37999 14.9049 11.0375 14.2798 12.3394 13.2407L17.0046 17.8316C17.2319 18.0556 17.601 18.0556 17.8283 17.8316C17.8824 17.7788 17.9253 17.7158 17.9547 17.6461C17.984 17.5765 17.9992 17.5017 17.9992 17.4261C17.9993 17.3505 17.9842 17.2757 17.955 17.206C17.9257 17.1363 17.8828 17.0732 17.8288 17.0203ZM7.57286 13.7583C4.03399 13.7583 1.16519 10.9351 1.16519 7.45245C1.16519 3.96982 4.03399 1.1466 7.57286 1.1466C11.1117 1.1466 13.9805 3.96982 13.9805 7.45245C13.9805 10.9351 11.1117 13.7583 7.57286 13.7583Z" fill="#FF8833"/>
</svg>
