<svg width="14" height="9" viewBox="0 0 14 9" fill="none" xmlns="http://www.w3.org/2000/svg">
<path fill-rule="evenodd" clip-rule="evenodd" d="M0.273581 0.294266C0.0984074 0.482742 0 0.738335 0 1.00484C0 1.27134 0.0984074 1.52694 0.273581 1.71541L5.88002 7.74573C6.05524 7.93415 6.29287 8.04 6.54064 8.04C6.78841 8.04 7.02604 7.93415 7.20127 7.74573L12.8077 1.71541C12.9779 1.52586 13.0721 1.27198 13.07 1.00846C13.0678 0.744934 12.9696 0.492854 12.7963 0.306509C12.6231 0.120164 12.3887 0.0144638 12.1437 0.0121738C11.8987 0.0098839 11.6627 0.111188 11.4864 0.294266L6.54064 5.61402L1.59483 0.294266C1.4196 0.105848 1.18198 0 0.934206 0C0.686435 0 0.448808 0.105848 0.273581 0.294266Z" fill="#FF8833"/>
</svg>
