<svg width="353" height="276" viewBox="0 0 353 276" fill="none" xmlns="http://www.w3.org/2000/svg">
<path fill-rule="evenodd" clip-rule="evenodd" d="M119.436 0C126.782 14.0601 130.82 26.4428 131.597 37.2949C132.618 51.5641 127.951 63.0685 118.509 71.2314C109.527 78.996 97.0937 82.9887 83.7325 84.7783C70.2273 86.5872 54.7912 86.2734 38.8292 84.5957C31.5951 83.8353 26.9472 85.721 23.9961 88.2881C20.916 90.9675 18.7703 95.1942 18.167 100.572C16.9591 111.341 22.2201 124.627 34.4004 131.925L34.9854 132.268L35.2598 132.425L35.5215 132.601C51.8788 143.565 69.1896 143.475 88.3926 139.034C98.0906 136.791 107.851 133.54 118.081 130.213C128.13 126.944 138.632 123.604 149.055 121.589L149.77 121.45L150.498 121.429C167.967 120.916 181.399 130.652 186.789 144.369C192.152 158.019 189.192 174.575 176.673 187.257L176.573 187.358L176.471 187.456C160.727 202.43 150.049 221.014 157.883 239.078L158.271 239.938L158.314 240.03L158.354 240.123C164.49 254.081 175.286 258.829 186.614 257.886C198.609 256.887 211.563 249.341 219.545 237.396L219.998 236.72L220.565 236.134C223.923 232.669 227.374 226.814 231.257 218.995C234.761 211.939 239.085 202.245 243.083 194.545C247.225 186.568 252.158 178.331 258.357 172.58C264.823 166.582 273.381 162.733 283.625 165.352L284.114 165.481L284.119 165.482C294.687 168.387 299.175 176.278 301.44 183.229C302.512 186.52 303.233 190.027 303.842 192.842C304.416 195.495 304.916 197.676 305.543 199.583L305.82 200.384L305.859 200.488L305.895 200.595C312.874 221.338 339.523 224.343 350.419 207.323C351.111 206.243 351.996 205.361 352.999 204.691V229.831C330.816 244.249 298.277 234.305 288.85 206.38C287.643 203.025 286.873 199.538 286.248 196.646C285.565 193.489 285.048 191.023 284.325 188.806C283.001 184.741 281.678 183.479 279.348 182.839H279.347C276.537 182.069 274.005 182.617 270.599 185.777C266.821 189.282 263.059 195.132 259.058 202.839C254.912 210.823 251.644 218.411 247.378 227.001C243.628 234.552 239.308 242.408 234.068 248.05C223.246 263.824 205.752 274.354 188.108 275.824C169.58 277.368 151.326 268.775 141.913 247.452C128.053 217.609 147.288 190.419 163.925 174.547C171.666 166.661 172.646 157.594 170.036 150.951C167.507 144.515 161.271 139.378 151.727 139.41C142.777 141.2 133.513 144.122 123.649 147.33C113.693 150.569 103.083 154.112 92.4483 156.571C71.0682 161.516 47.9539 162.473 25.7588 147.723C6.82509 136.721 -1.69803 116.193 0.279349 98.5654C1.28319 89.6172 5.06457 80.8991 12.1827 74.707C19.4298 68.403 29.2517 65.4897 40.711 66.6943C55.8419 68.2846 69.7409 68.4914 81.3428 66.9375C93.0885 65.3643 101.535 62.1115 106.737 57.6143C111.479 53.5152 114.298 47.7403 113.643 38.5801C112.981 29.3367 108.731 16.7212 98.8272 0H119.436Z" fill="white" fill-opacity="0.06"/>
</svg>
