<svg width="133" height="131" viewBox="0 0 133 131" fill="none" xmlns="http://www.w3.org/2000/svg">
<path d="M0.627965 59.4399C2.48796 56.3599 4.35796 54.8799 6.08796 57.6599C6.34796 58.0899 6.60797 59.4799 6.66797 60.5999C7.10797 68.8799 7.05797 76.2999 6.57797 82.8599C6.51797 83.5999 6.24797 84.4699 5.96797 84.7699C4.21797 86.6599 2.68797 87.7799 1.39797 86.2499C1.18797 85.9899 0.947965 85.0199 0.877965 84.1899C0.227965 76.9599 -0.102037 69.6399 0.0279625 62.2399C0.0479625 61.2299 0.317963 59.9399 0.617963 59.4299L0.627965 59.4399Z" fill="#6B8389"/>
<path d="M24.428 93.75H15.988V97.92H24.428V93.75Z" fill="#5E7477"/>
<path d="M34.748 93.5299V95.3699H4.63795V93.5299C4.63795 92.7699 5.25796 92.1499 6.01796 92.1499H33.358C34.118 92.1499 34.738 92.7699 34.738 93.5299H34.748Z" fill="#6B8389"/>
<path d="M20.898 95.7H18.948V111.93H20.898V95.7Z" fill="#5E7477"/>
<path d="M22.198 101.94H17.638V117.56H22.198V101.94Z" fill="#5E7477"/>
<path d="M23.688 116.05H15.988V119.73H23.688V116.05Z" fill="#5E7477"/>
<path d="M20.898 117.89L22.338 118.55L22.378 117.89L36.188 119.62L37.868 123.29H36.188L34.748 121.35L27.438 120.9L32.608 123.29L34.208 125.78L32.458 126.64L31.158 124.83L19.918 119.72L20.898 117.89Z" fill="#5E7477"/>
<path d="M17.978 118.29L19.248 117.34L20.588 118.93L10.918 126L9.79796 128.33L7.90796 127.85L8.94796 125.08C8.94796 125.08 16.618 119.75 17.978 118.26V118.28V118.29Z" fill="#5E7477"/>
<path d="M5.98797 119.62L19.798 117.89L19.838 118.54C18.188 119.7 16.268 119.8 14.378 120.39L7.42797 121.35L5.98797 123.3H4.30797L5.98797 119.62Z" fill="#5E7477"/>
<path d="M35.118 124.07C35.118 124.99 35.868 125.74 36.788 125.74C37.708 125.74 38.458 124.99 38.458 124.07C38.458 123.15 37.708 122.41 36.788 122.41C35.868 122.41 35.118 123.16 35.118 124.07Z" fill="#5E7477"/>
<path d="M31.088 126.64C31.088 127.81 32.038 128.77 33.218 128.77C34.398 128.77 35.348 127.82 35.348 126.64C35.348 125.46 34.398 124.52 33.218 124.52C32.038 124.52 31.088 125.47 31.088 126.64Z" fill="#5E7477"/>
<path d="M6.90796 128.77C6.90796 129.94 7.85796 130.89 9.03796 130.89C10.218 130.89 11.168 129.94 11.168 128.77C11.168 127.6 10.218 126.64 9.03796 126.64C7.85796 126.64 6.90796 127.59 6.90796 128.77Z" fill="#5E7477"/>
<path d="M4.18796 123.29C4.18796 124.16 4.89796 124.87 5.76796 124.87C6.63796 124.87 7.34796 124.16 7.34796 123.29C7.34796 122.42 6.63796 121.71 5.76796 121.71C4.89796 121.71 4.18796 122.42 4.18796 123.29Z" fill="#5E7477"/>
<path d="M131.008 53.5098C126.658 49.9898 122.568 48.0698 118.888 49.8298C118.348 50.0998 117.748 51.1998 117.578 52.1398C116.318 59.4198 116.068 66.6998 116.828 73.9798C116.918 74.8498 117.538 76.0198 118.178 76.5798C122.438 80.2098 126.418 82.9198 129.868 82.1698C130.438 82.0398 131.058 81.0198 131.238 80.0498C132.688 71.9198 133.218 64.0398 132.538 56.4498C132.448 55.4598 131.738 54.1098 131.008 53.5098Z" fill="#6B8389"/>
<path d="M116.158 90.4099H107.728V94.5799H116.158V90.4099Z" fill="#5E7477"/>
<path d="M97.408 90.1798V92.0198H127.508V90.1798C127.508 89.4198 126.888 88.7998 126.128 88.7998H98.798C98.038 88.7998 97.418 89.4198 97.418 90.1798H97.408Z" fill="#6B8389"/>
<path d="M113.198 92.3599H111.248V108.61H113.198V92.3599Z" fill="#5E7477"/>
<path d="M114.508 98.5999H109.948V114.24H114.508V98.5999Z" fill="#5E7477"/>
<path d="M116.158 112.72H108.458V116.4H116.158V112.72Z" fill="#5E7477"/>
<path d="M111.248 114.56L109.818 115.23L109.768 114.56L95.968 116.29L94.288 119.97H95.968L97.408 118.03L104.718 117.58L99.548 119.97L97.948 122.46L99.698 123.33L100.998 121.51L112.228 116.4L111.248 114.56Z" fill="#5E7477"/>
<path d="M114.178 114.96L112.908 114.01L111.568 115.6L121.238 122.68L122.358 125.02L124.248 124.54L123.208 121.77C123.208 121.77 115.548 116.43 114.178 114.95V114.97V114.96Z" fill="#5E7477"/>
<path d="M126.158 116.29L112.358 114.56L112.318 115.21C113.968 116.37 115.888 116.47 117.778 117.06L124.728 118.02L126.168 119.97H127.848L126.168 116.29H126.158Z" fill="#5E7477"/>
<path d="M97.038 120.75C97.038 121.67 96.288 122.42 95.368 122.42C94.448 122.42 93.698 121.67 93.698 120.75C93.698 119.83 94.448 119.08 95.368 119.08C96.288 119.08 97.038 119.83 97.038 120.75Z" fill="#5E7477"/>
<path d="M101.068 123.33C101.068 124.5 100.118 125.46 98.938 125.46C97.758 125.46 96.808 124.51 96.808 123.33C96.808 122.15 97.758 121.2 98.938 121.2C100.118 121.2 101.068 122.15 101.068 123.33Z" fill="#5E7477"/>
<path d="M125.238 125.46C125.238 126.63 124.288 127.59 123.108 127.59C121.928 127.59 120.978 126.64 120.978 125.46C120.978 124.28 121.928 123.33 123.108 123.33C124.288 123.33 125.238 124.28 125.238 125.46Z" fill="#5E7477"/>
<path d="M127.958 119.97C127.958 120.84 127.248 121.55 126.378 121.55C125.508 121.55 124.798 120.84 124.798 119.97C124.798 119.1 125.508 118.39 126.378 118.39C127.248 118.39 127.958 119.1 127.958 119.97Z" fill="#5E7477"/>
<path d="M88.948 84.8999L89.778 84.1699C88.938 84.1099 88.118 83.9299 87.328 83.6399C86.938 83.4999 86.488 83.3199 86.118 83.5199C85.778 83.6999 85.648 84.1199 85.558 84.4899C84.958 86.8799 80.358 107.56 79.918 109.21C79.348 111.39 78.188 113.23 77.318 115.28C76.488 117.21 75.588 119.28 74.468 121.06C74.268 121.38 73.868 121.67 73.458 121.93C73.188 122.11 72.908 122.27 72.678 122.43C72.818 122.63 72.978 122.81 73.168 122.97C73.358 123.13 73.578 123.25 73.808 123.34L75.658 123.42C75.658 123.42 75.688 123.42 75.698 123.42C76.538 123.21 77.138 122.62 77.588 121.91C78.048 121.18 78.168 120.28 78.718 119.6C79.338 118.83 80.258 118.35 81.028 117.75C81.508 117.37 81.958 116.98 82.508 116.7C82.918 116.49 83.358 116.35 83.758 116.13C84.378 115.79 84.198 115.51 84.158 114.86C84.128 114.32 84.128 113.79 84.188 113.17C84.258 112.44 84.488 111.31 84.758 110.63C85.258 109.4 85.778 108.22 86.598 107.16C88.478 104.74 90.078 101.51 90.648 98.4699C90.898 97.1499 90.958 95.8099 90.998 94.4699C91.038 93.1699 90.848 91.5899 91.218 90.3299C91.458 89.4799 92.038 88.6699 92.368 87.8299C92.638 87.1499 92.918 86.4699 93.188 85.7899L88.968 84.9099L88.948 84.8999Z" fill="#9C8071"/>
<path d="M84.608 115.56C84.588 115.27 84.048 114.05 84.198 113.86C82.028 116.67 78.398 118.34 76.888 121.65C76.568 122.35 75.848 122.74 75.058 122.74C74.858 122.74 73.308 122.04 73.448 121.94C73.138 122.14 72.818 122.33 72.578 122.5C72.068 122.88 71.008 123.13 70.738 123.76C70.308 124.75 73.418 124.43 73.848 124.37C74.368 124.3 74.898 124.31 75.418 124.27C76.318 124.2 77.208 123.97 78.078 123.73C78.138 123.71 78.198 123.7 78.238 123.66C78.278 123.62 78.308 123.56 78.328 123.5C78.778 122.27 78.868 120.9 79.408 119.71C79.668 119.19 80.598 118.03 81.238 118C81.488 118 81.708 118.15 81.858 118.37C81.938 118.49 81.998 118.62 82.038 118.75C82.158 119.16 82.158 119.6 82.138 120.03C82.098 120.88 82.028 121.73 81.898 122.57C81.858 122.86 81.658 123.43 81.698 123.8L82.348 123.83C82.648 121.97 82.708 120.22 83.838 118.58C84.428 117.71 84.678 116.62 84.598 115.56H84.608Z" fill="#020202"/>
<path d="M90.018 86.5497L90.808 85.7897C89.968 85.7697 89.138 85.6297 88.338 85.3697C87.938 85.2397 87.478 85.0898 87.118 85.3098C86.788 85.5098 86.678 85.9297 86.598 86.2997C86.098 88.7197 82.418 109.57 82.058 111.24C81.588 113.45 80.508 115.33 79.728 117.42C78.988 119.38 78.178 121.49 77.138 123.32C76.948 123.65 76.568 123.95 76.168 124.23C75.898 124.42 75.628 124.6 75.408 124.76C75.558 124.95 75.728 125.13 75.918 125.28C76.118 125.43 76.338 125.55 76.568 125.62H78.418C78.418 125.62 78.448 125.62 78.458 125.61C79.288 125.37 79.858 124.75 80.278 124.02C80.708 123.27 80.788 122.36 81.308 121.66C81.898 120.87 82.798 120.35 83.528 119.71C83.998 119.3 84.428 118.9 84.958 118.59C85.358 118.36 85.788 118.2 86.178 117.96C86.788 117.59 86.588 117.32 86.518 116.67C86.458 116.14 86.438 115.6 86.468 114.98C86.508 114.25 86.688 113.11 86.928 112.42C87.368 111.17 87.838 109.96 88.608 108.88C90.378 106.38 91.838 103.08 92.268 100.02C92.458 98.6897 92.458 97.3497 92.438 96.0097C92.418 94.7097 92.168 93.1397 92.468 91.8697C92.678 91.0097 93.208 90.1697 93.508 89.3197C93.748 88.6297 93.988 87.9398 94.238 87.2398L89.988 86.5397L90.018 86.5497Z" fill="#AC8F80"/>
<path d="M87.028 117.37C86.998 117.08 86.398 115.89 86.538 115.69C85.508 117.15 83.968 117.95 82.668 119.17C81.948 119.84 81.258 120.87 80.678 121.66C80.328 122.14 80.028 122.65 79.738 123.17C79.568 123.47 79.328 124.29 79.078 124.46C78.588 124.8 78.008 125.02 77.408 124.93C76.908 124.85 76.558 124.45 76.088 124.3C75.558 124.13 73.148 125.02 73.798 125.78C74.058 126.08 74.808 126.09 75.178 126.16C75.958 126.31 76.748 126.37 77.538 126.4C78.158 126.42 79.218 126.59 79.768 126.24C80.748 125.61 81.158 124.52 81.558 123.48C81.858 122.69 82.218 121.89 82.798 121.26C83.088 120.95 83.628 120.34 84.088 120.37C85.258 120.44 84.008 125.33 83.858 126.38C84.108 126.41 84.358 126.44 84.598 126.48C84.958 124.44 85.278 122.2 86.388 120.42C86.938 119.53 87.138 118.42 87.018 117.37H87.028Z" fill="#1C1C1C"/>
<path d="M126.668 79.1198C126.568 78.4798 125.558 74.3598 124.908 73.0098C124.718 75.5198 124.188 77.9598 122.658 79.9298C117.508 86.6498 108.438 86.7598 100.708 87.0998C99.068 87.0998 96.828 87.3998 96.178 89.0198C98.188 88.9898 115.208 88.7798 119.348 88.7798C120.388 88.7798 123.428 89.3398 124.348 88.7798C125.038 88.3498 125.618 87.7398 126.028 86.8598C127.068 84.5998 127.048 81.5398 126.678 79.1298L126.668 79.1198Z" fill="#2C2C2C"/>
<path d="M100.708 87.0898C108.438 86.7498 117.508 86.6398 122.658 79.9198C124.188 77.9498 124.718 75.5198 124.908 72.9998C124.778 72.7298 124.658 72.5698 124.558 72.5698C124.538 72.5698 108.858 73.9598 108.858 73.9598L88.368 78.8298L84.498 84.3898C84.608 84.4698 84.718 84.5498 84.828 84.6298C87.018 86.2298 89.288 87.7498 91.548 89.2698C92.228 89.7298 92.918 90.1098 93.628 90.5098C93.938 90.6898 94.168 90.9498 94.498 90.8598C95.128 90.6898 95.448 88.9898 95.978 88.9798C95.978 88.9798 96.048 88.9798 96.178 88.9798C96.828 87.3598 99.068 87.0598 100.708 87.0598V87.0898Z" fill="#212020"/>
<path d="M42.548 120.1L43.478 117.52L50.698 116.69L50.088 118.52L59.358 121.22C59.358 121.22 60.018 121.67 60.668 122.47C60.988 122.85 60.718 123.43 60.218 123.45L51.288 123.65C50.918 123.59 50.558 123.53 50.208 123.47V123.45H50.138C49.338 123.3 48.568 123.14 47.828 122.98L47.518 123.51L42.968 123.61C42.898 123.59 42.818 123.57 42.748 123.54C42.308 123.38 42.538 120.11 42.538 120.11L42.548 120.1Z" fill="#231F20"/>
<path d="M33.448 120.97L34.478 118.43L41.718 117.88L41.038 119.69C41.808 120.41 43.368 121.67 45.688 122.35C47.578 122.91 49.268 123.1 50.268 123C50.978 123.11 51.308 123.53 51.658 124C51.978 124.42 51.428 125.03 50.908 125.02C50.908 125.02 41.958 126.09 38.608 124.06L38.278 124.58L33.048 122.96C32.978 122.94 33.438 120.98 33.438 120.98L33.448 120.97Z" fill="#414042"/>
<path d="M53.788 89.01C53.788 87.8 53.738 86.57 53.528 85.32C53.098 82.75 50.248 82.16 48.058 81.63C44.848 80.85 41.648 80.08 38.438 79.3C34.258 78.29 30.078 77.28 25.898 76.26L8.85797 76.64C13.798 76.53 19.238 77.89 23.848 79.52C27.038 80.65 30.138 82.16 32.778 84.29C34.088 85.35 35.228 86.55 36.238 87.89C37.628 89.73 39.378 90.73 41.488 91.59C41.988 91.79 42.488 92 42.898 92.35C43.048 92.48 43.178 92.64 43.308 92.8C42.658 102 42.918 119.74 42.918 119.74C42.918 119.74 44.048 119.68 52.518 119.64C52.578 113.83 52.888 108.03 53.248 102.24C53.408 99.69 53.668 97.13 53.638 94.58C53.618 92.67 53.768 90.85 53.788 89V89.01Z" fill="#0D212F"/>
<path d="M52.028 85.5999C51.068 83.5099 48.528 83.4599 45.858 82.7199C43.048 81.9499 40.248 81.1699 37.438 80.3999C33.858 79.4099 30.278 78.4199 26.698 77.4299L7.94797 76.3499C7.26797 76.3099 6.42797 80.4699 6.37797 80.9099C5.95797 84.3599 4.15797 88.9799 7.02797 90.8599C8.21797 91.7399 11.778 92.2999 16.048 92.6499H36.278C36.278 92.6499 38.358 92.8099 39.388 92.7999C36.858 102.45 33.248 119.08 33.248 119.08C33.248 119.08 34.208 120.54 44.418 120.73C45.558 115.61 46.878 110.53 48.228 105.47C49.278 101.54 50.598 97.6199 51.288 93.6099C52.538 91.2499 53.018 87.7999 52.018 85.6099L52.028 85.5999Z" fill="#0E2C40"/>
<path d="M25.458 72.9499C19.128 73.1799 13.068 76.1899 6.58797 76.8599C6.31797 81.0799 5.85797 85.0099 5.27797 88.5899H26.708C26.648 82.8499 25.418 78.0499 25.438 74.9699C25.438 74.2699 25.448 73.5999 25.458 72.9399V72.9499Z" fill="#0F2E4F"/>
<path d="M108.728 76.0898H23.548V81.5398H108.728V76.0898Z" fill="#D1D3D4"/>
<path d="M39.338 61.3599L23.548 76.1299H108.728L92.938 61.3599H39.338Z" fill="#A7A9AC"/>
<path d="M67.708 63.8499L65.748 71.3799H99.958L92.318 64.0699L67.708 63.8499Z" fill="white"/>
<path d="M59.768 68.4199L60.198 75.0599H30.298L36.978 68.6599L59.768 68.4199Z" fill="white"/>
<path d="M23.288 36.4298C23.288 36.4298 21.598 40.1798 20.408 41.0498C19.218 41.9298 12.688 39.6698 12.688 39.6698C12.688 39.6698 15.048 33.5998 14.738 32.6398C14.428 31.6798 16.388 30.8398 16.388 30.8398L23.288 36.4198V36.4298Z" fill="#9C7C70"/>
<path d="M16.368 32.1199C17.008 32.6999 17.398 33.6399 18.148 34.0599C18.558 34.2899 18.498 34.4499 19.918 35.5099C20.328 35.8199 20.858 35.9299 21.358 36.0699C22.408 36.3899 23.468 36.6999 24.528 37.0199C24.798 37.0999 25.088 37.1899 25.368 37.1599C25.958 37.1099 26.418 36.6199 26.748 36.1299C26.808 36.0399 26.858 35.9599 26.878 35.8599C26.968 35.4499 26.438 35.0499 26.588 34.6599C26.668 34.4599 26.878 34.3599 26.998 34.1899C27.158 33.9399 27.068 33.5999 26.968 33.3199C27.218 33.3599 27.418 33.0799 27.458 32.8299C27.498 32.5799 27.458 32.2999 27.578 32.0799C27.768 31.7199 28.238 31.6599 28.618 31.4899C28.768 31.4199 28.838 31.2499 28.788 31.0999C28.588 30.5499 28.298 30.0199 27.948 29.5499C27.638 29.1299 27.248 28.6799 27.288 28.1499C27.318 27.8199 27.518 27.5299 27.608 27.2099C27.778 26.5299 27.398 25.8499 27.248 25.1599C27.138 24.6399 27.168 24.0999 27.128 23.5699C27.078 23.0399 26.928 22.4899 26.548 22.1199C25.418 21.0599 24.908 19.7899 23.508 19.1199C21.038 17.9299 18.018 18.3399 15.618 19.6599C14.878 20.0699 14.168 20.5599 13.648 21.2199C13.228 21.7399 12.938 22.3599 12.728 22.9899C12.258 24.3899 12.158 25.9199 12.518 27.3599C12.878 28.7899 13.698 30.1199 14.868 31.0199C15.368 31.3999 15.928 31.7099 16.388 32.1299L16.368 32.1199Z" fill="#AC8F80"/>
<path d="M40.138 52.28C40.108 52.12 40.468 51.64 40.538 51.5C40.798 50.99 41.058 50.47 41.328 49.96C41.848 48.98 42.688 48.22 43.218 47.26C43.378 46.97 43.758 45.97 44.118 45.88C44.198 45.86 44.288 45.91 44.348 45.97C45.348 46.87 44.188 48.07 43.708 48.85C43.528 49.14 43.418 49.52 43.258 49.83C44.118 49.29 44.968 48.74 45.828 48.2C46.318 47.89 48.758 46.24 49.118 46.85C49.298 47.16 48.908 47.49 48.698 47.66C47.818 48.42 46.888 49.12 45.908 49.74C46.748 49.23 47.588 48.72 48.428 48.21C48.818 47.98 50.378 47.14 50.698 47.77C50.788 47.94 50.728 48.16 50.588 48.28C49.508 49.19 48.248 49.86 46.958 50.43C47.928 49.97 48.898 49.5 49.868 49.04C50.118 48.92 50.638 48.72 50.898 49C51.218 49.33 50.788 49.75 50.558 49.92C49.528 50.65 48.558 51.23 47.418 51.77C48.358 51.61 50.988 50.2 50.728 51.04C50.658 51.28 50.448 51.43 50.258 51.57C49.088 52.42 48.408 52.95 47.238 53.8C46.758 54.15 45.938 54.63 45.398 54.88C44.728 55.19 44.218 55.44 43.568 55.79C42.668 56.27 41.948 56.28 40.938 56.47L40.158 52.26L40.138 52.28Z" fill="#AC8F80"/>
<path d="M48.228 61.9C48.308 61.76 48.888 61.61 49.028 61.54C49.558 61.3 50.078 61.06 50.608 60.83C51.628 60.39 52.758 60.32 53.768 59.91C54.078 59.79 54.998 59.24 55.338 59.4C55.418 59.44 55.448 59.53 55.458 59.62C55.678 60.95 54.018 61.16 53.158 61.47C52.828 61.59 52.508 61.81 52.188 61.95C53.198 62.06 54.198 62.17 55.208 62.28C55.788 62.34 58.718 62.58 58.618 63.28C58.568 63.63 58.048 63.64 57.788 63.65C56.628 63.7 55.458 63.65 54.308 63.53C55.278 63.66 56.258 63.79 57.228 63.92C57.678 63.98 59.418 64.3 59.278 64.99C59.238 65.18 59.068 65.31 58.868 65.32C57.458 65.36 56.048 65.09 54.688 64.73C55.738 64.97 56.788 65.22 57.828 65.46C58.098 65.52 58.628 65.69 58.658 66.07C58.698 66.53 58.098 66.59 57.818 66.57C56.558 66.5 55.438 66.34 54.208 66.05C55.048 66.51 57.978 67.06 57.248 67.55C57.038 67.69 56.788 67.68 56.548 67.67C55.098 67.6 54.238 67.59 52.788 67.52C52.188 67.49 51.258 67.35 50.678 67.21C49.958 67.04 49.408 66.91 48.678 66.78C47.678 66.6 47.108 66.15 46.198 65.67L48.218 61.9H48.228Z" fill="#AC8F80"/>
<path d="M14.158 33.7699C13.968 33.4299 13.768 33.0999 13.618 32.7299C13.118 31.4199 12.688 30.0699 12.328 28.7099C11.958 27.3199 11.668 25.8899 11.698 24.4399C11.728 22.9999 12.088 21.5299 12.938 20.3599C13.748 19.2499 14.958 18.4599 16.258 18.0199C17.558 17.5799 18.958 17.4699 20.338 17.5399C21.378 17.5899 22.418 17.7499 23.418 18.0199C23.868 18.1399 24.478 18.2499 24.878 18.4999C25.278 18.7499 25.508 19.1099 25.968 19.2899C26.538 19.5199 27.158 19.6299 27.778 19.6099C27.878 19.6099 27.978 19.6099 28.058 19.6599C28.188 19.7599 28.138 19.9699 28.078 20.1199C26.958 22.8799 23.258 22.6199 22.258 25.4999C22.028 26.1599 21.968 26.8499 21.868 27.5399C21.778 28.2199 21.508 28.9099 21.468 29.5799C21.448 29.9999 21.708 30.5599 21.238 30.8399C21.028 30.9599 20.198 30.6399 20.198 30.5399C20.188 29.9299 20.178 29.3099 20.008 28.7199C19.838 28.1299 19.498 27.5699 18.968 27.2699C18.438 26.9599 17.708 26.9799 17.268 27.3999C16.738 27.8999 16.778 28.7499 16.898 29.4699C17.068 30.5099 17.618 31.6799 18.768 31.8899C18.318 32.0099 18.058 32.4799 17.928 32.9199C17.898 33.0299 17.858 33.1499 17.768 33.2099C17.688 33.2599 17.598 33.2599 17.508 33.2499C16.048 33.2099 15.458 33.6899 14.538 34.7399C14.458 34.3799 14.308 34.0599 14.148 33.7599L14.158 33.7699Z" fill="#594A42"/>
<path d="M22.118 39.05C22.368 39.79 22.728 40.92 23.118 42.3C24.568 47.49 25.018 51.5 25.138 52.61C25.268 53.91 25.418 55.71 25.438 57.88C21.678 52.87 18.278 50.17 16.398 47.66C13.958 44.4 12.318 41.7 12.158 40.8C11.998 39.92 12.178 38.97 13.088 38.1C15.358 35.92 20.328 39.84 20.328 39.84L22.108 39.05H22.118Z" fill="#BCBEC0"/>
<path d="M13.388 43.6299C18.438 39.8999 22.538 45.4299 24.778 49.3299C26.158 51.7299 27.568 54.1699 29.598 56.0499C30.448 55.8799 40.608 52.0299 40.148 51.1299C41.208 53.2099 42.638 54.5999 43.358 56.6399C40.328 59.5299 32.048 64.3599 28.938 65.6099C25.898 66.8299 18.738 56.3899 15.698 53.6699C12.878 51.1399 9.52797 46.4599 13.378 43.6199L13.388 43.6299Z" fill="#0F2E4F"/>
<path d="M14.178 35.46L22.118 39.05L20.548 42.52L12.688 38.55L14.178 35.46Z" fill="#E6E7E8"/>
<path d="M24.228 49.5C22.038 45.18 18.968 42.33 16.818 40.64L12.678 38.55L8.95797 44.82L7.56797 50.5C6.68797 54.08 6.36797 57.77 6.59797 61.44C6.77797 64.28 6.85797 67.28 6.82797 70.43C6.80797 72.64 6.71797 74.78 6.57797 76.86C13.048 76.19 19.108 73.1701 25.448 72.9501C25.638 59.39 26.978 54.93 24.228 49.5Z" fill="#0F2E4F"/>
<path d="M13.598 36.52C13.598 36.52 21.978 44.11 25.108 51.17C19.608 45.68 17.408 45.67 17.408 45.67V41.8L15.108 43.76L12.688 38.55L13.598 36.52Z" fill="#16405E"/>
<path d="M45.928 60.2199C46.608 60.1899 47.788 60.2099 48.928 60.3199C48.978 60.5899 49.018 60.8599 49.058 61.1399C49.348 63.1599 49.218 65.6299 49.268 67.6699C47.388 67.7299 44.788 67.1699 42.908 67.3599C38.198 67.8199 25.628 65.2999 24.518 64.4399C21.148 61.8599 17.778 59.2499 14.318 56.8099C12.388 55.4399 8.84797 52.5799 9.10797 49.7099C9.12797 49.4899 9.16797 49.2799 9.22797 49.0799C10.498 44.7599 16.218 46.4899 18.768 47.9899C20.878 49.2299 22.658 50.9699 24.418 52.6899C27.268 55.4799 26.618 56.8199 30.608 57.4899C34.838 58.1999 41.668 60.3999 45.928 60.2299V60.2199Z" fill="#16405E"/>
<path d="M113.768 31.9099C112.718 32.9899 111.798 33.8699 111.018 34.5999C108.118 37.2999 106.978 37.8499 106.978 37.8499C106.928 38.0099 108.368 40.2899 107.488 43.5899C110.818 40.4899 112.998 36.3699 113.768 31.8999V31.9099Z" fill="#CCA692"/>
<path d="M117.468 42.3499C117.088 41.9699 116.718 41.5799 116.368 41.1599C115.648 40.2899 115.058 39.3299 114.678 38.2599C113.958 36.2299 113.708 34.0099 113.808 31.8599C113.798 31.8699 113.778 31.8899 113.768 31.8999C112.998 36.3699 110.828 40.4799 107.488 43.5899C107.448 43.7299 107.408 43.8699 107.368 44.0099C106.248 45.9699 105.238 47.4799 106.638 48.3799C107.758 49.0999 111.948 47.5799 113.558 46.9599C113.958 46.8099 114.198 46.7099 114.198 46.7099C114.488 46.5899 114.848 45.4299 114.998 45.1399C115.228 44.7099 115.468 44.1999 115.838 43.8699C116.118 43.6299 116.388 43.5499 116.738 43.4899C117.078 43.4299 117.838 43.5699 118.098 43.3999C118.558 43.1099 117.788 42.6699 117.468 42.3499Z" fill="#9C8071"/>
<path d="M107.608 43.0898L106.578 43.6098C105.338 44.2398 104.368 45.2998 103.858 46.5898L98.388 60.3698L83.9079 62.8298L84.498 66.8098L98.7979 66.7498C100.148 66.6098 101.348 65.8198 102.028 64.6398L106.828 59.1698L107.618 43.0798L107.608 43.0898Z" fill="#21414F"/>
<path d="M103.748 35.84C103.478 35.91 103.408 36.28 103.508 36.54C103.608 36.8 103.808 37.02 103.888 37.29C103.968 37.57 103.888 37.88 103.928 38.17C104.008 38.8 104.628 39.27 105.258 39.37C105.888 39.48 106.528 39.3 107.138 39.1C109.448 38.35 111.728 37.13 113.108 35.12C114.358 33.3 114.748 31.04 115.008 28.86C115.168 27.51 115.288 26.13 114.948 24.82C114.848 24.44 114.708 24.07 114.528 23.71C112.878 20.47 109.158 20.09 106.098 21.22C103.118 22.32 101.308 25.72 101.988 28.78C102.068 29.14 102.248 29.48 102.308 29.84C102.428 30.63 101.978 31.35 101.638 32.02C101.408 32.46 100.728 33.71 101.398 34.04C101.758 34.22 102.138 34.04 102.468 34.35C102.748 34.62 102.888 35.06 102.898 35.44C102.898 35.5 102.898 35.57 102.928 35.62C102.998 35.75 103.598 35.83 103.738 35.82L103.748 35.84Z" fill="#AC8F80"/>
<path d="M106.188 46.25C106.188 46.25 108.138 48.19 113.268 46.42C112.808 56.85 112.108 61.64 112.108 61.64L105.968 63.69L103.848 56.91L106.188 46.25Z" fill="white"/>
<path d="M123.258 49.76L121.878 48.33L113.928 47.77C113.928 47.77 108.158 55.78 105.968 56.52C106.018 56.5 105.958 55.58 105.958 55.48C105.958 55.11 105.958 54.74 105.958 54.37C105.958 53.62 105.968 52.87 105.998 52.11C106.048 50.72 106.148 49.33 106.348 47.94C106.438 47.26 106.558 46.59 106.708 45.92C106.778 45.6 106.818 45.26 106.928 44.96C106.988 44.78 107.088 44.62 107.158 44.45C107.218 44.3 107.288 44.15 107.348 43.99C107.328 43.99 107.308 44.01 107.288 44.03C107.168 44.14 107.078 44.24 106.998 44.39C106.908 44.55 106.818 44.7 106.748 44.87C106.598 45.25 106.448 45.64 106.288 46.02C106.018 46.69 105.778 47.36 105.558 48.04C105.108 49.4 104.708 50.78 104.258 52.14C103.858 53.37 103.448 54.59 103.068 55.83C102.898 56.4 102.568 57.1 102.568 57.7C102.568 58.5 108.888 73.99 108.888 73.99C108.888 73.99 114.058 73.66 124.588 72.6C122.908 67.05 123.278 49.77 123.278 49.77L123.258 49.76Z" fill="#25485B"/>
<path d="M119.348 32.0899C119.468 31.1799 119.348 30.2499 119.198 29.3499C118.768 26.9799 117.608 24.3199 115.878 22.5999C113.998 20.7299 111.248 19.7699 108.618 20.0799C107.048 20.2599 105.538 20.8799 104.288 21.8299C101.908 23.6199 101.278 25.9399 101.558 28.7999C102.348 28.7699 103.138 28.7999 103.928 28.8699C103.808 28.1799 103.878 27.4599 104.128 26.7999C104.378 27.5799 104.558 28.3699 104.678 29.1799C105.508 29.2399 106.328 29.4499 107.088 29.7999C107.118 29.8199 107.538 28.4099 107.938 28.4599C108.358 28.5199 108.948 29.8599 109.118 30.1999C109.788 31.5199 110.148 32.9799 110.318 34.4399C110.568 36.6499 110.458 39.1899 110.148 41.1099C111.218 40.7599 118.588 37.7599 119.358 32.0899H119.348Z" fill="#2B0D04"/>
<path d="M94.908 68.0599L91.108 67.2499L87.858 66.6399C87.548 66.5799 87.218 66.6099 86.928 66.7299C85.838 67.1699 84.708 67.4199 83.668 67.9999C82.978 68.3899 82.668 68.6399 83.508 69.1499C84.068 69.4899 84.668 69.4499 85.208 69.0899C85.008 69.2299 84.738 69.4099 84.738 69.6799C84.738 70.2199 85.298 70.0699 85.628 70.0199C86.318 69.8999 87.008 69.7799 87.698 69.6699C88.118 69.5999 88.548 69.6699 88.928 69.8799L91.608 71.3499C91.938 71.5299 92.298 71.6199 92.668 71.6099L95.158 71.5499L94.908 68.0599Z" fill="#9C8071"/>
<path d="M77.548 64.6798C77.308 65.0198 77.148 65.4498 76.978 65.8798C76.818 66.2898 76.548 66.6398 76.468 67.0698C76.418 67.3598 76.628 67.6598 76.958 67.5498C77.088 67.5098 77.188 67.4098 77.288 67.3398C77.428 67.7798 77.748 67.6198 77.948 67.3198C78.348 66.7498 78.448 66.0898 79.138 66.0198C79.628 65.9698 80.148 66.0198 80.648 66.0098C81.488 66.0098 82.338 65.9998 83.178 65.9898C83.158 65.9898 82.918 64.9798 82.898 64.8998C82.748 64.3098 82.628 63.8698 81.968 63.8798C81.148 63.8898 80.338 63.8998 79.518 63.9098C79.108 63.9098 78.688 63.9198 78.318 64.0598C77.978 64.1898 77.738 64.3998 77.548 64.6698V64.6798Z" fill="#9C8071"/>
<path d="M80.298 64.4198C80.458 64.4398 80.598 64.4998 80.748 64.5398C80.888 64.5798 81.078 64.5398 81.198 64.5898C81.058 64.5398 80.928 64.5898 80.788 64.6298C80.498 64.7098 80.178 64.6798 79.878 64.6998C79.578 64.7298 78.548 65.0998 78.848 65.5598C79.118 65.9798 79.758 65.8798 80.098 65.8198C80.728 65.7198 81.398 66.0898 82.028 66.2798C83.668 66.7698 85.228 66.1698 86.738 65.7998L85.608 63.7198L80.428 62.2698C79.928 62.4298 79.438 62.5898 78.938 62.7498C78.238 62.9798 77.638 63.2398 77.048 63.6698C76.808 63.8398 76.718 64.0998 76.588 64.3798C76.428 64.7198 76.258 65.0598 76.088 65.3898C75.948 65.6498 75.378 66.3698 75.748 66.7198C75.948 66.9098 76.318 66.6498 76.438 66.4998C76.798 66.0298 77.078 65.1598 77.568 64.8498C78.278 64.3998 79.438 64.3198 80.298 64.4298V64.4198Z" fill="#AC8F80"/>
<path d="M117.638 42.3899C115.758 42.0299 113.718 44.8699 113.268 46.4199C112.668 48.4799 112.468 50.6899 111.998 52.7799C111.448 55.2499 110.538 57.6199 110.228 60.1499C110.108 61.1199 110.108 62.0499 109.818 63.0099C109.388 64.4399 108.298 64.6099 106.978 65.2199C103.498 66.8299 93.578 67.6199 93.428 67.6899L94.948 72.3699C95.198 72.2899 112.728 74.1899 115.638 69.6999C116.278 68.7099 116.778 67.4799 117.278 66.4299C118.198 64.4999 119.108 62.5699 120.028 60.6399C120.468 59.7199 120.908 58.7999 121.338 57.8699C121.628 57.2499 122.108 55.4799 122.658 55.0999C122.798 55.0099 122.888 54.9299 122.908 54.8799C124.868 49.2399 121.058 43.0299 117.628 42.3799L117.638 42.3899Z" fill="#2C546F"/>
<path d="M63.008 69.52L62.988 69.9C62.988 70.04 63.098 70.17 63.238 70.17L63.618 70.19L63.648 69.55L62.998 69.51L63.008 69.52Z" fill="#9BA6B1"/>
<path d="M63.308 68.98C63.158 68.98 63.038 69.08 63.028 69.23L63.008 69.53L63.658 69.57L63.688 69.01L63.308 68.99V68.98Z" fill="#BCBEC0"/>
<path d="M75.448 70.8401H75.498V70.8201L75.448 70.8401Z" fill="#FF8833"/>
<path d="M75.508 69.6399L75.558 69.6599V69.6399H75.508Z" fill="#F9773D"/>
<path d="M65.138 69.6401L64.198 69.5901L64.168 70.2201L64.838 70.2601L75.448 70.8401L75.478 70.2001L65.138 69.6401Z" fill="#FF8833"/>
<path d="M64.898 69.06L64.228 69.03L64.198 69.59L65.138 69.64L75.478 70.2L75.508 69.64L64.898 69.06Z" fill="#F9773D"/>
<path d="M63.798 69H63.688L63.658 69.56L63.768 69.57L64.198 69.59L64.228 69.03L63.798 69Z" fill="#4D8C57"/>
<path d="M63.768 69.5701L63.658 69.5601L63.618 70.1901L63.738 70.2001L64.168 70.2201L64.198 69.5901L63.768 69.5701Z" fill="#4D8C57"/>
<path d="M76.118 70.24L76.0979 70.66L77.2679 70.34L77.158 70.3L76.118 70.24Z" fill="#42454C"/>
<path d="M76.118 70.2399L77.158 70.2999L76.138 69.8899L76.118 70.2399Z" fill="#58595B"/>
<path d="M75.528 70.2099L75.478 70.2L75.448 70.84L75.498 70.8199L76.098 70.66L76.118 70.24L75.528 70.2099Z" fill="#E8CB37"/>
<path d="M75.558 69.6599L75.508 69.6399L75.478 70.1999L75.528 70.2099L76.118 70.2399L76.138 69.8899L75.558 69.6599Z" fill="#F7DC54"/>
<path d="M77.838 66.6499C77.588 66.6699 77.198 66.6999 76.518 66.7599C76.538 66.4599 76.558 66.1599 76.578 65.8699C77.248 66.0199 77.628 66.1099 77.868 66.1599L77.838 66.6499Z" fill="#4D8C57"/>
<path d="M65.218 64.6798L63.848 64.5898L64.418 66.2798L65.398 66.3498L65.218 64.6798Z" fill="#4D8C57"/>
<path d="M69.368 66.6699L69.488 64.9399C69.658 64.9599 69.828 64.9699 69.998 64.9899L69.878 66.6899C69.708 66.6899 69.538 66.6799 69.368 66.6699Z" fill="#414042"/>
<path d="M70.618 65.0598C72.388 65.2598 74.108 65.5098 76.638 65.8198C76.618 66.1498 76.588 66.4698 76.568 66.7998C74.018 66.7598 72.278 66.7598 70.508 66.7098L70.628 65.0598H70.618Z" fill="#58595B"/>
<path d="M65.438 64.8499C65.438 64.8499 65.398 64.5499 65.738 64.3299C66.108 64.0799 66.768 64.0199 67.718 64.1299C69.608 64.3199 71.988 64.4299 72.008 64.4299C72.008 64.4299 71.568 65.1699 70.618 64.7499C69.948 64.6999 67.078 64.6099 67.058 64.6099C67.058 64.6099 66.848 64.6099 66.728 64.6899C66.668 64.7299 66.588 64.8099 66.668 65.0199C66.738 65.1899 66.688 65.2699 66.638 65.2999C66.428 65.4399 65.698 65.0199 65.478 64.8899L65.448 64.8699V64.8399L65.438 64.8499Z" fill="#58595B"/>
<path d="M69.878 66.69L69.998 64.99C70.208 65.01 70.418 65.03 70.618 65.06L70.498 66.71C70.288 66.71 70.088 66.7 69.878 66.69Z" fill="#4D8C57"/>
<path d="M64.988 66.3699C65.028 65.7899 65.068 65.2099 65.108 64.6299C66.868 64.7199 68.228 64.8199 69.488 64.9399L69.368 66.6699C68.108 66.6199 66.738 66.5299 64.988 66.3699Z" fill="#58595B"/>
<path d="M77.868 66.1499C77.958 66.1699 78.058 66.1899 78.168 66.2299C78.338 66.2899 78.468 66.3699 78.568 66.4399C78.468 66.4899 78.338 66.5399 78.188 66.5799C78.058 66.6099 77.938 66.6299 77.838 66.6399C77.848 66.4799 77.858 66.3099 77.868 66.1499Z" fill="#414042"/>
<path d="M54.288 72.76C54.528 72.71 54.908 72.63 55.578 72.49C55.598 72.79 55.608 73.08 55.628 73.38C54.948 73.31 54.558 73.27 54.318 73.25L54.288 72.76Z" fill="#4D8C57"/>
<path d="M66.988 73.17L68.348 73.1L67.578 71.5L66.598 71.55L66.988 73.17Z" fill="#4D8C57"/>
<path d="M62.648 71.71L62.738 73.43C62.568 73.43 62.398 73.43 62.228 73.44L62.138 71.75C62.308 71.74 62.478 71.72 62.648 71.71Z" fill="#414042"/>
<path d="M61.608 73.4501C59.838 73.4701 58.118 73.4301 55.578 73.4301C55.558 73.1001 55.548 72.7801 55.528 72.4501C58.048 72.1901 59.768 71.9701 61.528 71.8101L61.618 73.4501H61.608Z" fill="#58595B"/>
<path d="M66.738 73.0301C66.738 73.0301 66.808 73.3201 66.508 73.5801C66.178 73.8701 65.528 74.0101 64.578 74.0201C62.688 74.0601 60.328 74.2401 60.308 74.2401C60.308 74.2401 60.648 73.4601 61.638 73.7501C62.308 73.7101 65.148 73.4601 65.168 73.4601C65.168 73.4601 65.378 73.4401 65.488 73.3401C65.548 73.2901 65.608 73.2001 65.498 73.0101C65.408 72.8501 65.448 72.7701 65.498 72.7301C65.688 72.5701 66.458 72.8901 66.688 72.9901H66.718V73.0301H66.738Z" fill="#58595B"/>
<path d="M62.138 71.75L62.228 73.44C62.018 73.44 61.818 73.44 61.608 73.44L61.518 71.8C61.728 71.78 61.928 71.76 62.138 71.74V71.75Z" fill="#4D8C57"/>
<path d="M67.008 71.48C67.038 72.06 67.068 72.63 67.098 73.21C65.358 73.34 63.998 73.4 62.738 73.43L62.648 71.71C63.898 71.61 65.258 71.53 67.008 71.48Z" fill="#58595B"/>
<path d="M54.318 73.25C54.228 73.25 54.128 73.23 54.008 73.21C53.838 73.17 53.688 73.1 53.588 73.05C53.678 72.99 53.798 72.93 53.948 72.87C54.078 72.82 54.188 72.79 54.288 72.77C54.288 72.93 54.308 73.1 54.318 73.26V73.25Z" fill="#414042"/>
<path d="M62.268 0H46.008C42.198 0 39.088 2.74 39.088 6.55V11.97C39.088 14.03 40.008 15.89 41.448 17.16C41.938 17.59 42.048 18.3 41.738 18.87L38.728 28.65C38.728 28.65 48.898 18.9 49.668 18.9H62.268C66.078 18.9 69.188 15.78 69.188 11.98V6.56C69.188 2.75 66.068 0.00999832 62.268 0.00999832V0Z" fill="#D1EAF2"/>
<path d="M70.928 4.56006H87.188C90.998 4.56006 94.108 7.30006 94.108 11.1101V16.5301C94.108 18.5901 93.188 20.4501 91.748 21.7201C91.258 22.1501 91.148 22.8601 91.458 23.4301L93.288 33.0901C93.288 33.0901 84.298 23.4601 83.518 23.4601H70.918C67.108 23.4601 63.998 20.3401 63.998 16.5401V11.1201C63.998 7.31006 67.118 4.57006 70.918 4.57006L70.928 4.56006Z" fill="#FF8833"/>
<path d="M70.208 14.3201H53.948C50.138 14.3201 47.028 17.0601 47.028 20.8701V26.2901C47.028 28.3501 47.948 30.2101 49.388 31.4801C49.878 31.9101 49.988 32.6201 49.678 33.1901L45.318 44.1901C45.318 44.1901 56.838 33.2101 57.618 33.2101H70.218C74.028 33.2101 77.138 30.0901 77.138 26.2901V20.8701C77.138 17.0601 74.018 14.3201 70.218 14.3201H70.208Z" fill="#4D8C57"/>
<path d="M51.548 20.2901H72.398C72.848 20.2901 73.228 19.9201 73.228 19.4601C73.228 19.0001 72.858 18.6301 72.398 18.6301H51.548C51.098 18.6301 50.718 19.0001 50.718 19.4601C50.718 19.9201 51.088 20.2901 51.548 20.2901Z" fill="#16405E"/>
<path d="M72.398 22.77H51.548C51.098 22.77 50.718 23.14 50.718 23.6C50.718 24.06 51.088 24.43 51.548 24.43H72.398C72.848 24.43 73.228 24.06 73.228 23.6C73.228 23.14 72.858 22.77 72.398 22.77Z" fill="#16405E"/>
<path d="M72.398 26.9001H51.548C51.098 26.9001 50.718 27.2701 50.718 27.7301C50.718 28.1901 51.088 28.5601 51.548 28.5601H72.398C72.848 28.5601 73.228 28.1901 73.228 27.7301C73.228 27.2701 72.858 26.9001 72.398 26.9001Z" fill="#16405E"/>
</svg>
