<svg width="35" height="42" viewBox="0 0 35 42" fill="none" xmlns="http://www.w3.org/2000/svg">
<path d="M0.181329 37.3254C0.00385821 37.8595 -0.0442389 38.4281 0.0409965 38.9843C0.126232 39.5406 0.342363 40.0687 0.671599 40.5252C1.00083 40.9816 1.43376 41.3533 1.93475 41.6097C2.43573 41.8661 2.99044 41.9999 3.55323 42H31.4398C32.0025 41.9999 32.5572 41.8661 33.0581 41.6097C33.559 41.3534 33.9919 40.9817 34.3211 40.5254C34.6503 40.069 34.8665 39.541 34.9518 38.9848C35.0371 38.4286 34.9891 37.8601 34.8117 37.3261L32.1867 29.449C32.0022 28.9107 31.7776 28.3871 31.5147 27.8824L31.7058 27.1558C31.7882 26.8425 31.7976 26.5145 31.7332 26.1971C31.6689 25.8796 31.5326 25.5811 31.3349 25.3246C31.1371 25.0681 30.8831 24.8604 30.5925 24.7174C30.3018 24.5744 29.9822 24.5001 29.6583 24.5H28.8792C26.8169 22.6962 24.1704 21.7013 21.4305 21.7H20.9965V21.1932C22.2588 20.5319 23.3299 19.5571 24.1066 18.3624C24.5078 17.486 24.7629 16.5499 24.8619 15.5911C25.3609 15.4498 25.8002 15.1497 26.1132 14.7362C26.4262 14.3228 26.5959 13.8186 26.5965 13.3V9.1C26.5965 6.68653 25.6378 4.37191 23.9312 2.66533C22.2246 0.958747 19.91 0 17.4965 0C15.0831 0 12.7684 0.958747 11.0619 2.66533C9.35528 4.37191 8.39653 6.68653 8.39653 9.1V13.3C8.39716 13.8186 8.56685 14.3228 8.87987 14.7362C9.19289 15.1497 9.63218 15.4498 10.1311 15.5911C10.2301 16.55 10.4855 17.4861 10.8871 18.3624C11.6636 19.5571 12.7344 20.5319 13.9965 21.1932V21.7H13.5625C10.8226 21.7013 8.17616 22.6962 6.11383 24.5H5.33473C5.01076 24.5 4.6911 24.5743 4.40036 24.7172C4.10962 24.8601 3.85554 25.0678 3.65769 25.3243C3.45985 25.5809 3.3235 25.8794 3.25915 26.1969C3.19481 26.5144 3.20417 26.8425 3.28653 27.1558L3.47833 27.8831C3.2149 28.3882 2.9898 28.9123 2.80493 29.4511L0.181329 37.3254ZM6.29653 40.6V39.2H28.6965V40.6H6.29653ZM33.4845 37.7699C33.5914 38.0935 33.6199 38.4378 33.5679 38.7746C33.5158 39.1114 33.3846 39.431 33.185 39.7072C32.9855 39.9834 32.7232 40.2084 32.4198 40.3636C32.1165 40.5188 31.7806 40.5998 31.4398 40.6H30.0965V39.2C30.0952 38.8647 29.9736 38.541 29.7538 38.2878C29.534 38.0347 29.2306 37.8687 28.8988 37.8203L30.9288 30.1035L33.4845 37.7699ZM26.5062 24.5H20.2762C20.5944 24.0879 20.8157 23.6094 20.9237 23.1H21.4284C23.2162 23.1007 24.9706 23.5844 26.5062 24.5ZM17.4965 1.4C19.538 1.40241 21.4951 2.21443 22.9386 3.65794C24.3821 5.10145 25.1941 7.05857 25.1965 9.1V11.13C25.0866 11.0791 24.9729 11.037 24.8563 11.004C24.7307 10.3487 24.3974 9.75119 23.9057 9.30008C23.414 8.84898 22.7901 8.56823 22.1263 8.4994C20.7333 8.31388 19.4083 7.78465 18.2707 6.9594C18.0436 6.80327 17.7746 6.71969 17.499 6.71969C17.2234 6.71969 16.9543 6.80327 16.7272 6.9594C15.6008 7.79104 14.2807 8.32114 12.8919 8.4994C12.2226 8.56076 11.5914 8.83868 11.0943 9.29103C10.5971 9.74338 10.2609 10.3455 10.1367 11.0061C10.0209 11.0389 9.90784 11.0808 9.79863 11.1314V9.1C9.80104 7.05894 10.6128 5.10213 12.0558 3.65868C13.4989 2.21523 15.4555 1.40296 17.4965 1.4ZM12.1359 17.7296C11.7572 16.8461 11.5339 15.9038 11.4758 14.9443C11.4667 14.7649 11.3889 14.5959 11.2586 14.4722C11.1283 14.3486 10.9555 14.2798 10.7758 14.28C10.5159 14.28 10.2667 14.1768 10.0829 13.993C9.89908 13.8092 9.79583 13.5599 9.79583 13.3C9.79583 13.0401 9.89908 12.7908 10.0829 12.607C10.2667 12.4232 10.5159 12.32 10.7758 12.32C10.9615 12.32 11.1395 12.2462 11.2708 12.115C11.4021 11.9837 11.4758 11.8057 11.4758 11.62C11.4743 11.1932 11.6308 10.7809 11.9151 10.4626C12.1995 10.1443 12.5915 9.9424 13.0158 9.8959C14.6289 9.69475 16.1628 9.0809 17.4692 8.1137C18.8039 9.08157 20.3621 9.69544 21.9982 9.898C22.4198 9.94555 22.8087 10.1481 23.0893 10.4664C23.3699 10.7846 23.5222 11.1958 23.5165 11.62C23.5165 11.8057 23.5903 11.9837 23.7216 12.115C23.8528 12.2462 24.0309 12.32 24.2165 12.32C24.4764 12.32 24.7257 12.4232 24.9095 12.607C25.0933 12.7908 25.1965 13.0401 25.1965 13.3C25.1965 13.5599 25.0933 13.8092 24.9095 13.993C24.7257 14.1768 24.4764 14.28 24.2165 14.28C24.0369 14.2798 23.8641 14.3486 23.7338 14.4722C23.6035 14.5959 23.5257 14.7649 23.5165 14.9443C23.4584 15.9037 23.2354 16.846 22.8571 17.7296C22.176 19.0743 19.019 21 17.4965 21C15.974 21 12.817 19.0743 12.1359 17.7296ZM17.4965 22.4C18.2221 22.3623 18.9343 22.1895 19.5965 21.8904V22.4C19.5965 22.957 19.3753 23.4911 18.9815 23.8849C18.5876 24.2787 18.0535 24.5 17.4965 24.5C16.9396 24.5 16.4054 24.2787 16.0116 23.8849C15.6178 23.4911 15.3965 22.957 15.3965 22.4V21.8904C16.0587 22.1895 16.7709 22.3623 17.4965 22.4ZM13.5625 23.1H14.0665C14.1745 23.6094 14.3958 24.0879 14.714 24.5H8.48403C10.0198 23.5843 11.7745 23.1006 13.5625 23.1ZM4.76633 26.18C4.83317 26.0928 4.91922 26.0221 5.0178 25.9736C5.11639 25.925 5.22484 25.8998 5.33473 25.9H29.6583C29.768 25.8999 29.8762 25.925 29.9747 25.9734C30.0731 26.0217 30.1592 26.092 30.2262 26.1788C30.2932 26.2657 30.3394 26.3667 30.3612 26.4742C30.383 26.5817 30.3799 26.6927 30.352 26.7988L27.4568 37.8H7.53623L4.64103 26.7988C4.61297 26.693 4.60968 26.5821 4.63141 26.4748C4.65314 26.3674 4.69931 26.2666 4.76633 26.18ZM6.09633 37.821C5.7643 37.869 5.46053 38.0346 5.24032 38.2877C5.02011 38.5408 4.89811 38.8645 4.89653 39.2V40.6H3.55323C3.21238 40.5998 2.87642 40.5188 2.57297 40.3636C2.26952 40.2083 2.00723 39.9833 1.80765 39.707C1.60807 39.4307 1.47689 39.111 1.42489 38.7741C1.37289 38.4372 1.40156 38.0928 1.50853 37.7692L4.06283 30.1035L6.09633 37.821Z" fill="#FF8833"/>
<path d="M17.4965 35.7001C19.4264 35.7001 20.9965 34.4443 20.9965 32.9001C20.9965 31.3559 19.4264 30.1001 17.4965 30.1001C15.5666 30.1001 13.9965 31.3559 13.9965 32.9001C13.9965 34.4443 15.5666 35.7001 17.4965 35.7001ZM17.4965 31.5001C18.6347 31.5001 19.5965 32.1413 19.5965 32.9001C19.5965 33.6589 18.6347 34.3001 17.4965 34.3001C16.3583 34.3001 15.3965 33.6589 15.3965 32.9001C15.3965 32.1413 16.3583 31.5001 17.4965 31.5001Z" fill="#FF8833"/>
</svg>
