<svg width="43" height="42" viewBox="0 0 43 42" fill="none" xmlns="http://www.w3.org/2000/svg">
<path d="M36.7981 21.163C34.9685 21.163 33.4808 22.6498 33.4808 24.4769C33.4808 26.3039 34.9694 27.7908 36.7981 27.7908C38.6268 27.7908 40.1153 26.3039 40.1153 24.4769C40.1153 22.6498 38.6268 21.163 36.7981 21.163ZM36.7981 26.4535C35.7065 26.4535 34.8181 25.5667 34.8181 24.4769C34.8181 23.387 35.7065 22.5002 36.7981 22.5002C37.8896 22.5002 38.778 23.387 38.778 24.4769C38.778 25.5667 37.8896 26.4535 36.7981 26.4535ZM5.18355 17.1261C6.59353 14.2067 8.7975 11.7612 11.5581 10.0529C11.6327 10.0066 11.7157 9.97556 11.8024 9.96142C11.889 9.94728 11.9776 9.95035 12.0631 9.97045C12.1485 9.99055 12.2292 10.0273 12.3004 10.0786C12.3717 10.1299 12.4321 10.1947 12.4783 10.2693C12.5245 10.344 12.5556 10.427 12.5697 10.5136C12.5839 10.6002 12.5808 10.6888 12.5607 10.7743C12.5406 10.8597 12.5039 10.9404 12.4526 11.0116C12.4013 11.0829 12.3365 11.1433 12.2618 11.1895C9.7177 12.7641 7.68674 15.0174 6.38792 17.707C6.33321 17.8203 6.24764 17.9158 6.14104 17.9827C6.03443 18.0495 5.91114 18.0849 5.78532 18.0848C5.68753 18.0848 5.58891 18.063 5.4953 18.0179C5.16266 17.8583 5.02308 17.4579 5.18355 17.1261ZM9.41264 35.5034C9.67341 35.765 9.67341 36.1879 9.41264 36.4487C9.28226 36.5791 9.11092 36.6443 8.93958 36.6443C8.76825 36.6443 8.59691 36.5791 8.46653 36.4479C7.21201 35.1925 6.16811 33.7591 5.36408 32.1862C5.28333 32.0282 5.2686 31.8447 5.32314 31.6759C5.37769 31.5071 5.49703 31.3669 5.65494 31.286C5.8129 31.2054 5.99641 31.1907 6.16518 31.2453C6.33394 31.2998 6.47417 31.4191 6.55508 31.5769C7.29475 33.027 8.25675 34.3475 9.41264 35.5034ZM35.2978 32.7721C34.5398 34.1182 33.6024 35.3551 32.5113 36.4487C32.4493 36.5112 32.3754 36.5607 32.2941 36.5945C32.2127 36.6282 32.1255 36.6454 32.0374 36.6451C31.9053 36.6453 31.776 36.6063 31.666 36.533C31.5561 36.4597 31.4703 36.3555 31.4196 36.2334C31.3688 36.1114 31.3554 35.9771 31.3811 35.8474C31.4067 35.7178 31.4702 35.5986 31.5635 35.5051C32.5689 34.497 33.4329 33.3572 34.1319 32.1168C34.175 32.0402 34.2327 31.9729 34.3018 31.9187C34.3709 31.8644 34.45 31.8243 34.5346 31.8006C34.6192 31.777 34.7076 31.7702 34.7948 31.7807C34.8821 31.7912 34.9664 31.8188 35.0429 31.8619C35.3655 32.0424 35.4792 32.4503 35.2978 32.7721ZM29.4197 10.0529C31.8636 11.5665 33.8962 13.686 35.2987 16.1834C35.4792 16.5051 35.3647 16.913 35.0429 17.0935C34.9393 17.152 34.8273 17.1796 34.7161 17.1796C34.4821 17.1796 34.2548 17.0568 34.1327 16.8386C32.8406 14.5385 30.9676 12.5853 28.716 11.1904C28.4017 10.9956 28.3048 10.5836 28.4995 10.2702C28.5455 10.1953 28.6059 10.1303 28.6771 10.0789C28.7483 10.0274 28.829 9.99053 28.9145 9.97034C29 9.95015 29.0886 9.94704 29.1753 9.9612C29.262 9.97536 29.3451 10.0065 29.4197 10.0529ZM17.025 11.5732C17.4069 12.1599 17.768 12.7157 17.9485 13.3776V14.3689C17.9485 15.768 19.0877 16.9063 20.4885 16.9063C21.8893 16.9063 23.0285 15.768 23.0285 14.3689V13.3776C23.209 12.7157 23.5709 12.1599 23.952 11.5732C24.5304 10.6839 25.1865 9.67508 25.1865 8.21663C25.1865 5.62903 23.0786 3.52284 20.4877 3.52284C17.8967 3.52284 15.7889 5.62819 15.7889 8.21663C15.7905 9.67508 16.4458 10.6839 17.025 11.5732ZM20.4885 15.5699C19.8249 15.5699 19.2858 15.0316 19.2858 14.3697V13.9618H21.692V14.3697C21.692 15.0308 21.1521 15.5699 20.4885 15.5699ZM20.1809 8.21663C20.1809 8.0478 20.3188 7.91073 20.4885 7.91073C20.654 7.91073 20.7936 8.05114 20.7936 8.21663C20.7936 8.38128 20.654 8.52085 20.4885 8.52085C20.3222 8.52085 20.1809 8.38128 20.1809 8.21663ZM20.4885 4.86094C22.3423 4.86094 23.85 6.36619 23.85 8.21746C23.85 9.27891 23.3778 10.0052 22.832 10.8452C22.4777 11.3893 22.1141 11.9493 21.8675 12.6246H21.1571V9.7152C21.7305 9.45861 22.1308 8.88442 22.1308 8.21746C22.1308 7.31147 21.3937 6.57431 20.4885 6.57431C19.5817 6.57431 18.8437 7.31147 18.8437 8.21746C18.8437 8.88442 19.2457 9.45944 19.8199 9.7152V12.6237H19.1094C18.8629 11.9484 18.4993 11.3884 18.1449 10.8443C17.5983 10.0044 17.127 9.27891 17.127 8.21663C17.1278 6.36619 18.6356 4.86094 20.4885 4.86094ZM19.8199 2.04852V0.66863C19.8199 0.299212 20.1191 0 20.4885 0C20.8579 0 21.1571 0.299212 21.1571 0.66863V2.04852C21.1571 2.41793 20.8579 2.71715 20.4885 2.71715C20.1191 2.71715 19.8199 2.41793 19.8199 2.04852ZM14.6723 3.35234C14.4106 3.09158 14.4098 2.66867 14.6706 2.40707C14.9313 2.14547 15.3543 2.14463 15.6159 2.4054L16.5946 3.37993C16.6568 3.44186 16.7062 3.51546 16.7399 3.59649C16.7737 3.67753 16.7911 3.76443 16.7913 3.85222C16.7914 3.94 16.7743 4.02696 16.7408 4.10812C16.7074 4.18928 16.6582 4.26304 16.5962 4.3252C16.5341 4.38763 16.4603 4.43713 16.379 4.47085C16.2976 4.50456 16.2104 4.52181 16.1223 4.52161C15.9518 4.52161 15.7813 4.45642 15.6501 4.32687L14.6723 3.35234ZM24.3816 4.32604C24.1208 4.06444 24.1217 3.64069 24.3833 3.38076L25.362 2.40623C25.6236 2.14547 26.0465 2.1463 26.3073 2.4079C26.568 2.66951 26.5672 3.09325 26.3056 3.35318L25.3269 4.32771C25.1965 4.45809 25.026 4.52245 24.8547 4.52245C24.6833 4.52245 24.512 4.45726 24.3816 4.32604ZM26.665 7.548H28.0465C28.4159 7.548 28.7152 7.84721 28.7152 8.21663C28.7152 8.58605 28.4159 8.88526 28.0465 8.88526H26.665C26.2955 8.88526 25.9963 8.58605 25.9963 8.21663C25.9963 7.84721 26.2955 7.548 26.665 7.548ZM12.2627 8.21663C12.2627 7.84721 12.5619 7.548 12.9313 7.548H14.3129C14.6823 7.548 14.9815 7.84721 14.9815 8.21663C14.9815 8.58605 14.6823 8.88526 14.3129 8.88526H12.9313C12.5619 8.88526 12.2627 8.58605 12.2627 8.21663ZM42.4747 23.224L41.9139 22.878L41.5453 21.9912L41.6983 21.356C41.7526 21.1295 41.6857 20.8913 41.5211 20.7267L40.5524 19.7589C40.4718 19.6784 40.372 19.6199 40.2625 19.5887C40.1529 19.5576 40.0373 19.5549 39.9264 19.5808L39.2854 19.7321L38.3961 19.3652L38.0526 18.8069C37.9928 18.7097 37.9091 18.6293 37.8094 18.5736C37.7098 18.5179 37.5976 18.4886 37.4834 18.4885H36.1144C35.882 18.4885 35.6664 18.6088 35.5452 18.8069L35.2017 19.3652L34.3124 19.7321L33.6714 19.5808C33.4457 19.5273 33.2092 19.595 33.0454 19.758L32.0767 20.7259C31.9956 20.8067 31.9367 20.9071 31.9057 21.0173C31.8746 21.1276 31.8725 21.2439 31.8995 21.3552L32.0525 21.9904L31.683 22.878L31.1247 23.224C31.0279 23.2839 30.9479 23.3675 30.8924 23.467C30.837 23.5665 30.8079 23.6785 30.808 23.7924V25.1597C30.808 25.3921 30.9283 25.6077 31.1264 25.7289L31.6839 26.0724L32.0525 26.9592L31.8995 27.5969C31.8452 27.8234 31.9129 28.0624 32.0775 28.2262L33.0462 29.1916C33.127 29.2718 33.2268 29.3301 33.3363 29.3611C33.4458 29.3921 33.5614 29.3947 33.6722 29.3687L34.3133 29.2175L35.2025 29.5844L35.546 30.1427C35.6059 30.2399 35.6896 30.3202 35.7892 30.376C35.8888 30.4317 36.0011 30.461 36.1152 30.4611H37.4842C37.7166 30.4611 37.9322 30.3408 38.0534 30.1427L38.3969 29.5844L39.2862 29.2175L39.9272 29.3687C40.1521 29.4222 40.3894 29.3554 40.5532 29.1916L41.5219 28.2262C41.603 28.1453 41.6619 28.045 41.693 27.9348C41.7242 27.8246 41.7266 27.7082 41.6999 27.5969L41.547 26.9592L41.9156 26.0724L42.4747 25.7289C42.5721 25.669 42.6524 25.5851 42.7082 25.4854C42.7639 25.3856 42.7932 25.2732 42.7932 25.1589V23.7915C42.7925 23.6777 42.7629 23.5659 42.7072 23.4667C42.6515 23.3674 42.5715 23.2839 42.4747 23.224ZM41.4551 24.787L41.0296 25.0477C40.9098 25.1215 40.8162 25.2312 40.7622 25.3611L40.2265 26.6483C40.172 26.7789 40.1605 26.9235 40.1939 27.0611L40.31 27.5459L39.8704 27.9838L39.3823 27.8685C39.2458 27.8361 39.1025 27.8475 38.9728 27.9011L37.684 28.4335C37.5536 28.4872 37.4436 28.5808 37.3697 28.7009L37.1081 29.1255H36.4855L36.2239 28.7009C36.1502 28.5807 36.0401 28.487 35.9096 28.4335L34.6208 27.9011C34.4911 27.8474 34.3478 27.836 34.2113 27.8685L33.7232 27.9838L33.2836 27.5459L33.3997 27.0611C33.4323 26.9232 33.4215 26.7786 33.3671 26.6483L32.8314 25.3611C32.7774 25.2316 32.6842 25.1223 32.5648 25.0486L32.141 24.7878V24.166L32.5656 23.9027C32.6843 23.8288 32.7772 23.7199 32.8314 23.5909L33.3671 22.3038C33.4215 22.1734 33.4332 22.028 33.3997 21.8909L33.2836 21.4087L33.7232 20.9691L34.2113 21.0844C34.3475 21.117 34.4904 21.1053 34.6208 21.0518L35.9096 20.5194C36.04 20.4657 36.15 20.3721 36.2239 20.252L36.4855 19.8274H37.109L37.3706 20.252C37.4441 20.3723 37.5544 20.4659 37.6848 20.5194L38.9736 21.0518C39.1032 21.1053 39.2461 21.117 39.3831 21.0844L39.8712 20.9691L40.3109 21.4087L40.1947 21.8909C40.1613 22.0289 40.173 22.1734 40.2273 22.3038L40.763 23.5909C40.8167 23.7206 40.9101 23.83 41.0296 23.9035L41.4559 24.1668V24.787H41.4551ZM8.36456 29.235V26.9491C8.36456 26.5797 8.06535 26.2805 7.69593 26.2805H6.41885C6.11713 26.2805 5.86305 26.0264 5.86305 25.7255C5.86305 25.4247 6.11797 25.1706 6.41885 25.1706H7.69593C8.06535 25.1706 8.36456 24.8714 8.36456 24.5019V22.2161C8.36456 21.8467 8.06535 21.5474 7.69593 21.5474H6.07534V20.9382C6.07534 19.8951 5.22618 19.0459 4.18145 19.0459C3.13755 19.0459 2.28839 19.8943 2.28839 20.9382V21.5474H0.66863C0.299212 21.5474 0 21.8467 0 22.2161V29.2342C0 29.6036 0.299212 29.9028 0.66863 29.9028H7.69593C8.06451 29.9036 8.36456 29.6044 8.36456 29.235ZM7.0273 28.5664H1.33726V22.8855H2.95702C3.32643 22.8855 3.62565 22.5863 3.62565 22.2169V20.939C3.62565 20.6381 3.88056 20.384 4.18145 20.384C4.48233 20.384 4.73808 20.6381 4.73808 20.939V22.2169C4.73808 22.5863 5.03729 22.8855 5.40671 22.8855H7.02647V23.8342H6.41885C5.37495 23.8342 4.52579 24.6825 4.52579 25.7264C4.52579 26.7703 5.37495 27.6186 6.41885 27.6186H7.0273V28.5664ZM25.53 31.1882C24.7368 31.1882 23.723 31.0537 23.2491 30.4352V30.1736C23.8985 29.6103 24.3749 28.8531 24.5864 27.9922H24.8212C25.5843 27.9922 26.2053 27.372 26.2053 26.609V25.5442C26.2053 24.9165 25.7849 24.3858 25.2099 24.2178V23.7907C25.2099 22.6407 24.6808 21.5491 23.784 20.8278C23.5224 20.1182 22.8922 19.3744 21.4045 19.3744H19.5708C17.4721 19.3744 15.7655 21.0794 15.7655 23.1756V24.2178C15.1913 24.3866 14.77 24.9165 14.77 25.5442V26.609C14.77 27.372 15.391 27.9922 16.1541 27.9922H16.389C16.6004 28.8531 17.0768 29.6103 17.7262 30.1736V30.4352C17.2523 31.0537 16.2385 31.1882 15.4454 31.1882C12.933 31.1882 10.8886 33.2301 10.8886 35.7399V41.3314C10.8886 41.7008 11.1879 42 11.5573 42H29.4155C29.785 42 30.0842 41.7008 30.0842 41.3314V35.7399C30.0867 33.2301 28.0423 31.1882 25.53 31.1882ZM17.6059 26.9876V24.8655C19.0702 24.7485 20.2403 24.2571 21.275 23.6795C21.8132 24.3431 22.4977 24.7234 23.3711 24.8471V26.9876C23.3711 27.0369 23.3695 27.0862 23.3678 27.1355C23.3661 27.1765 23.3628 27.2158 23.3586 27.2509L23.3486 27.3394C23.1739 28.762 21.9586 29.8685 20.4885 29.8685C18.8997 29.8677 17.6059 28.5756 17.6059 26.9876ZM20.6155 33.2986C20.5763 33.3153 20.5336 33.3254 20.4885 33.3254C20.4434 33.3254 20.4007 33.3153 20.3615 33.2994L20.4885 33.2033L20.6155 33.2986ZM20.4885 31.4967L20.1149 31.1882C20.2378 31.1991 20.3623 31.2058 20.4885 31.2058C20.6147 31.2058 20.7384 31.1991 20.8621 31.1882L20.4885 31.4967ZM18.4885 31.5786L19.4112 32.3408L18.9022 32.7269L18.384 31.6705C18.4199 31.6404 18.455 31.6095 18.4885 31.5786ZM22.0748 32.7269L21.5658 32.3408L22.4885 31.5786C22.522 31.6095 22.5571 31.6404 22.593 31.6705L22.0748 32.7269ZM24.8689 26.609C24.8689 26.6324 24.8463 26.6549 24.8221 26.6549H24.7092V25.4982H24.8221C24.8463 25.4982 24.8689 25.5208 24.8689 25.5442V26.609ZM19.5716 20.7117H21.4054C22.3038 20.7117 22.4727 21.0552 22.5679 21.4079C22.6085 21.5577 22.6998 21.6888 22.8262 21.779C23.4154 22.1977 23.7907 22.8479 23.8609 23.5517C23.0084 23.5132 22.4768 23.1873 22.0531 22.4551C21.9628 22.2997 21.8149 22.1868 21.641 22.1425C21.4672 22.0982 21.2825 22.125 21.1295 22.2177C19.8458 22.9934 18.6615 23.5166 17.1044 23.5517V23.1756C17.1036 21.8166 18.211 20.7117 19.5716 20.7117ZM16.109 26.609V25.5442C16.109 25.5208 16.1315 25.4982 16.1558 25.4982H16.2686V26.6549H16.1558C16.1315 26.6549 16.109 26.6324 16.109 26.609ZM12.2284 35.7399C12.2284 33.9672 13.6726 32.5255 15.4479 32.5255C16.1541 32.5255 16.7291 32.4361 17.1997 32.2907L18.0605 34.0441C18.1038 34.1327 18.1663 34.2106 18.2433 34.2722C18.3203 34.3337 18.4101 34.3775 18.506 34.4002C18.557 34.4127 18.6088 34.4186 18.6606 34.4186C18.8052 34.4186 18.9473 34.3718 19.0643 34.2832L19.2674 34.1294C19.3217 34.1879 19.3811 34.2414 19.4429 34.2915L18.1633 40.6627H15.5039V37.7985C15.5039 37.4291 15.2046 37.1299 14.8352 37.1299C14.4658 37.1299 14.1666 37.4291 14.1666 37.7985V40.6627H12.2301V35.7399H12.2284ZM20.4885 35.8695L21.4513 40.6619H19.5257L20.4885 35.8695ZM28.7494 40.6627H26.8129V37.7985C26.8129 37.4291 26.5137 37.1299 26.1443 37.1299C25.7749 37.1299 25.4756 37.4291 25.4756 37.7985V40.6627H22.8162L21.5357 34.2899C21.5976 34.2397 21.6561 34.1862 21.7104 34.1286L21.9144 34.2832C22.0314 34.3718 22.1734 34.4186 22.318 34.4186C22.3699 34.4186 22.4217 34.4127 22.4727 34.4002C22.5687 34.3776 22.6584 34.3339 22.7355 34.2723C22.8125 34.2107 22.8749 34.1328 22.9181 34.0441L23.779 32.2907C24.2495 32.4352 24.8246 32.5255 25.5308 32.5255C27.306 32.5255 28.7503 33.9672 28.7503 35.7399V40.6627H28.7494Z" fill="#FF8833"/>
</svg>
