<svg width="39" height="42" viewBox="0 0 39 42" fill="none" xmlns="http://www.w3.org/2000/svg">
<path fill-rule="evenodd" clip-rule="evenodd" d="M22.3144 38.9714H1.43782C0.643717 38.9714 0 38.3253 0 37.5364V1.43782C0 0.644395 0.644395 0 1.43782 0H24.6849C25.0798 0 25.4215 0.143444 25.699 0.420931L29.9575 4.67936C30.235 4.95685 30.3784 5.29869 30.3784 5.69354V21.2003C33.593 21.2294 36.212 23.8684 36.212 27.0896V28.6012H36.7041C37.6034 28.6012 38.3326 29.3342 38.3326 30.2297V40.3715C38.3326 41.2708 37.6034 42 36.7041 42H23.9452C23.0464 42 22.3144 41.2703 22.3144 40.3715V38.9714ZM29.0236 21.3458V6.05833H25.3777C24.798 6.05833 24.3201 5.58041 24.3201 5.00071V1.35484H1.43782C1.41581 1.35484 1.39471 1.36358 1.37914 1.37914C1.36358 1.39471 1.35484 1.41581 1.35484 1.43782V37.5364C1.35484 37.5812 1.39269 37.6166 1.43782 37.6166H22.3144V34.3888H3.96527C3.59142 34.3888 3.28785 34.0852 3.28785 33.7113C3.28785 33.3375 3.59142 33.0339 3.96527 33.0339H22.3144V30.9668H3.96527C3.59142 30.9668 3.28785 30.6633 3.28785 30.2894C3.28785 29.9155 3.59142 29.6119 3.96527 29.6119H22.4369C22.6814 29.0206 23.2655 28.6012 23.9452 28.6012H24.4351V27.0896C24.4351 24.2973 26.405 21.9423 29.0236 21.3458ZM28.0656 4.70349L25.675 2.31288V4.70349H28.0656ZM34.8572 28.6012V27.0896C34.8572 24.5957 32.8185 22.5548 30.3247 22.5548C27.8308 22.5548 25.7899 24.5957 25.7899 27.0896V28.6012H26.8227V27.0896C26.8227 25.1664 28.4042 23.5855 30.3247 23.5855C32.2451 23.5855 33.8266 25.1664 33.8266 27.0896V28.6012H34.8572ZM28.1775 28.6012H32.4718V27.0896C32.4718 25.9102 31.5024 24.9403 30.3247 24.9403C29.147 24.9403 28.1775 25.9102 28.1775 27.0896V28.6012ZM23.9452 29.956C23.7937 29.956 23.6693 30.0788 23.6693 30.2297V40.3715C23.6693 40.5231 23.7937 40.6452 23.9452 40.6452H36.7041C36.7767 40.6452 36.8463 40.6163 36.8976 40.565C36.9489 40.5137 36.9778 40.4441 36.9778 40.3715V30.2297C36.9777 30.1571 36.9488 30.0876 36.8975 30.0363C36.8462 29.985 36.7767 29.9561 36.7041 29.956H23.9452ZM30.3247 31.0042C31.7225 31.0042 32.8557 32.1396 32.8557 33.5374C32.8565 33.9023 32.7782 34.263 32.6262 34.5946C32.4742 34.9263 32.2521 35.2211 31.9752 35.4587V37.9464C31.9752 38.8558 31.2304 39.5969 30.3247 39.5969C29.4152 39.5969 28.6741 38.8558 28.6741 37.9464L28.6741 35.4588C28.1336 34.9947 27.7915 34.3067 27.7915 33.5374C27.7915 32.1398 28.927 31.0042 30.3247 31.0042ZM30.3247 32.3591C29.6745 32.3591 29.1463 32.8874 29.1463 33.5374C29.1463 33.9622 29.3707 34.3334 29.7071 34.5409C29.8055 34.6015 29.8867 34.6864 29.943 34.7873C29.9993 34.8882 30.0289 35.0018 30.0289 35.1174V37.9464C30.029 38.0248 30.0602 38.1 30.1157 38.1554C30.1711 38.2108 30.2463 38.242 30.3247 38.2421C30.403 38.2419 30.4781 38.2106 30.5335 38.1552C30.5889 38.0998 30.6201 38.0248 30.6204 37.9464V35.1174C30.6204 35.0018 30.65 34.8882 30.7063 34.7873C30.7626 34.6864 30.8439 34.6015 30.9422 34.5409C31.1134 34.4353 31.2546 34.2877 31.3524 34.112C31.4502 33.9363 31.5013 33.7385 31.5008 33.5374C31.5008 32.8875 30.9746 32.3591 30.3247 32.3591ZM15.4545 3.47796L23.2585 6.8195C23.3804 6.87169 23.4843 6.95852 23.5573 7.06922C23.6304 7.17991 23.6693 7.30961 23.6693 7.44221V14.174C23.6693 19.0725 20.1198 23.3216 15.3112 24.212C15.2296 24.2271 15.146 24.2271 15.0645 24.212C10.2588 23.3216 6.70908 19.0725 6.70908 14.174V7.44221C6.70908 7.30962 6.748 7.17994 6.821 7.06924C6.894 6.95855 6.99788 6.87172 7.11976 6.8195L14.9212 3.47804C15.0054 3.44193 15.0961 3.4233 15.1878 3.42329C15.2795 3.42327 15.3702 3.44187 15.4545 3.47796ZM15.1879 4.83762L8.06392 7.88906V14.174C8.06392 18.3805 11.0824 22.0345 15.1879 22.856C19.2958 22.0346 22.3144 18.3806 22.3144 14.174V7.88906L15.1879 4.83762ZM17.3883 13.4375C19.1843 14.2138 20.4882 15.9121 20.7044 17.9355C20.7145 18.03 20.7046 18.1256 20.6754 18.216C20.6461 18.3064 20.5982 18.3897 20.5347 18.4604C20.4711 18.531 20.3935 18.5876 20.3067 18.6262C20.2199 18.6649 20.1259 18.6849 20.0309 18.6849H10.3476C10.2525 18.6849 10.1585 18.6649 10.0717 18.6262C9.98489 18.5875 9.9072 18.5309 9.84367 18.4602C9.78014 18.3895 9.73221 18.3062 9.70299 18.2157C9.67377 18.1253 9.66391 18.0297 9.67406 17.9352C9.89134 15.9117 11.1956 14.2135 12.9912 13.4374C12.4113 12.867 12.0507 12.074 12.0507 11.1996C12.0507 9.47066 13.4602 8.05985 15.1892 8.05985C16.9197 8.05985 18.329 9.47075 18.329 11.1996C18.329 12.0741 17.9685 12.8672 17.3883 13.4375ZM15.1892 14.3394C13.2919 14.3394 11.6889 15.6003 11.1719 17.3301H19.2069C18.6908 15.6002 17.0875 14.3394 15.1892 14.3394ZM15.1892 12.9845C16.173 12.9845 16.9742 12.1825 16.9742 11.1996C16.9742 10.2168 16.173 9.41469 15.1892 9.41469C14.2064 9.41469 13.4055 10.2168 13.4055 11.1996C13.4055 12.1824 14.2064 12.9845 15.1892 12.9845ZM6.73016 27.5449C6.35631 27.5449 6.05274 27.2413 6.05274 26.8675C6.05274 26.4936 6.35631 26.19 6.73016 26.19H22.998C23.3719 26.19 23.6755 26.4936 23.6755 26.8675C23.6755 27.2413 23.3719 27.5449 22.998 27.5449H6.73016Z" fill="#FF8833"/>
</svg>
