<svg width="46" height="43" viewBox="0 0 46 43" fill="none" xmlns="http://www.w3.org/2000/svg">
<path d="M25.6255 42.5H5.83978V9.54221C5.83979 9.09165 5.98126 8.65247 6.24426 8.28664C6.50725 7.9208 6.87848 7.64679 7.30556 7.50325L25.6255 1.34528V42.5Z" stroke="#FF8833" stroke-miterlimit="10" stroke-linecap="round" stroke-linejoin="round"/>
<path d="M36.7612 38.3657V42.5H25.6254V20.1709H37.9121C38.7264 20.1709 39.3856 20.8302 39.3856 21.6444V33.4642" stroke="#FF8833" stroke-miterlimit="10" stroke-linecap="round" stroke-linejoin="round"/>
<path d="M25.6255 42.5H43.5369C44.0888 42.5 44.5361 42.0527 44.5361 41.5009V38.3659H25.6255V42.5Z" stroke="#FF8833" stroke-miterlimit="10" stroke-linecap="round" stroke-linejoin="round"/>
<path d="M40.461 33.3044H40.8362C42.8796 33.3044 44.5361 34.9609 44.5361 37.0043V38.366H36.7611V37.0043C36.7611 34.9609 38.4176 33.3044 40.461 33.3044Z" stroke="#FF8833" stroke-miterlimit="10" stroke-linecap="round" stroke-linejoin="round"/>
<path d="M1.4991 42.5H5.8398V38.3659H0.5V41.5009C0.5 42.0527 0.947272 42.5 1.4991 42.5Z" stroke="#FF8833" stroke-miterlimit="10" stroke-linecap="round" stroke-linejoin="round"/>
<path d="M5.31739 33.3044H5.83989V38.366H0.5V38.1218C0.5 35.4612 2.65688 33.3044 5.31739 33.3044Z" stroke="#FF8833" stroke-miterlimit="10" stroke-linecap="round" stroke-linejoin="round"/>
<path d="M32.5058 20.1704H25.6255V1.3451L31.8497 7.36157C32.0573 7.56218 32.2223 7.8025 32.335 8.06821C32.4477 8.33393 32.5058 8.61961 32.5058 8.90824V17.0379" stroke="#FF8833" stroke-miterlimit="10" stroke-linecap="round" stroke-linejoin="round"/>
<path d="M10.6797 6.36914V1.88136C10.6797 1.11848 11.2981 0.500022 12.0619 0.500022H12.2019C12.9648 0.500022 13.5832 1.11848 13.5832 1.88136V5.39273" stroke="#FF8833" stroke-miterlimit="10" stroke-linecap="round" stroke-linejoin="round"/>
<path d="M25.6254 6.36825L10.6797 11.3921" stroke="#FF8833" stroke-miterlimit="10" stroke-linecap="round" stroke-linejoin="round"/>
<path d="M25.6254 11.151L10.6797 16.1748" stroke="#FF8833" stroke-miterlimit="10" stroke-linecap="round" stroke-linejoin="round"/>
<path d="M25.6254 15.9339L10.6797 20.9578" stroke="#FF8833" stroke-miterlimit="10" stroke-linecap="round" stroke-linejoin="round"/>
<path d="M25.6254 20.7166L10.6797 25.7405" stroke="#FF8833" stroke-miterlimit="10" stroke-linecap="round" stroke-linejoin="round"/>
<path d="M13.147 29.6941L10.6797 30.5234" stroke="#FF8833" stroke-miterlimit="10" stroke-linecap="round" stroke-linejoin="round"/>
<path d="M25.6254 25.4994L16.1229 28.6936" stroke="#FF8833" stroke-miterlimit="10" stroke-linecap="round" stroke-linejoin="round"/>
<path d="M18.5555 42.5H10.6798V36.8546C10.6798 36.4169 10.9713 36.0328 11.3929 35.9151L17.5781 34.1884C18.0691 34.0513 18.5555 34.4205 18.5555 34.9303V42.5Z" stroke="#FF8833" stroke-miterlimit="10" stroke-linecap="round" stroke-linejoin="round"/>
<path d="M35.7172 25.6519H29.2003C29.0793 25.6519 28.9633 25.6038 28.8777 25.5183C28.7922 25.4327 28.7441 25.3167 28.7441 25.1957V23.5962C28.7441 23.5362 28.7559 23.4769 28.7788 23.4216C28.8018 23.3662 28.8354 23.3159 28.8777 23.2736C28.9201 23.2312 28.9704 23.1976 29.0257 23.1747C29.081 23.1517 29.1404 23.1399 29.2003 23.1399H35.7172C35.8382 23.1399 35.9542 23.188 36.0398 23.2736C36.1253 23.3591 36.1734 23.4752 36.1734 23.5962V25.1957C36.1734 25.2556 36.1616 25.315 36.1387 25.3703C36.1157 25.4256 36.0821 25.4759 36.0398 25.5183C35.9974 25.5606 35.9471 25.5942 35.8918 25.6172C35.8364 25.6401 35.7771 25.6519 35.7172 25.6519Z" stroke="#FF8833" stroke-miterlimit="10" stroke-linecap="round" stroke-linejoin="round"/>
<path d="M35.7172 30.7051H29.2003C29.1404 30.7051 29.081 30.6933 29.0257 30.6703C28.9704 30.6474 28.9201 30.6138 28.8777 30.5714C28.8354 30.5291 28.8018 30.4788 28.7788 30.4234C28.7559 30.3681 28.7441 30.3088 28.7441 30.2489V28.6493C28.7441 28.5283 28.7922 28.4123 28.8777 28.3268C28.9633 28.2412 29.0793 28.1932 29.2003 28.1932H35.7172C35.7771 28.1931 35.8364 28.2049 35.8918 28.2279C35.9471 28.2508 35.9974 28.2844 36.0398 28.3267C36.0821 28.3691 36.1157 28.4194 36.1387 28.4747C36.1616 28.5301 36.1734 28.5894 36.1734 28.6493V30.2489C36.1734 30.3699 36.1253 30.4859 36.0398 30.5715C35.9542 30.657 35.8382 30.7051 35.7172 30.7051Z" stroke="#FF8833" stroke-miterlimit="10" stroke-linecap="round" stroke-linejoin="round"/>
<path d="M31.3558 35.8098H29.2003C29.1404 35.8098 29.0811 35.798 29.0257 35.7751C28.9704 35.7522 28.9201 35.7186 28.8777 35.6762C28.8354 35.6339 28.8018 35.5836 28.7789 35.5282C28.7559 35.4729 28.7441 35.4136 28.7441 35.3537V33.7541C28.7441 33.6942 28.7559 33.6349 28.7788 33.5795C28.8018 33.5242 28.8354 33.4739 28.8777 33.4315C28.9201 33.3892 28.9704 33.3556 29.0257 33.3326C29.081 33.3097 29.1404 33.2979 29.2003 33.2979H31.3558C31.4768 33.2979 31.5929 33.346 31.6784 33.4315C31.764 33.5171 31.812 33.6331 31.812 33.7541V35.3537C31.812 35.4136 31.8002 35.4729 31.7773 35.5283C31.7544 35.5836 31.7208 35.6339 31.6784 35.6762C31.6361 35.7186 31.5858 35.7522 31.5304 35.7751C31.4751 35.798 31.4157 35.8098 31.3558 35.8098Z" stroke="#FF8833" stroke-miterlimit="10" stroke-linecap="round" stroke-linejoin="round"/>
<path d="M14.6176 35.0148V42.5" stroke="#FF8833" stroke-miterlimit="10" stroke-linecap="round" stroke-linejoin="round"/>
</svg>
