<svg width="42" height="42" viewBox="0 0 42 42" fill="none" xmlns="http://www.w3.org/2000/svg">
<path d="M41.3178 32.5165V3.11186C41.3178 1.39602 39.9219 0 38.206 0H3.11194C1.3961 0 0.000183105 1.39591 0.000183105 3.11186V32.5165C0.000183105 34.2323 1.3961 35.6283 3.11194 35.6283H7.48436C6.88716 36.4921 6.53833 37.5238 6.53833 38.6318C6.53833 38.7209 6.54109 38.8094 6.54543 38.8976C6.55008 38.9913 6.57387 39.083 6.61531 39.1672C6.65675 39.2514 6.71498 39.3262 6.7864 39.387C8.28085 40.66 10.2117 41.3611 12.2235 41.3611C13.3514 41.3611 14.4399 41.1444 15.4636 40.7219C17.0516 41.5546 18.8467 41.9998 20.6937 41.9998C22.503 41.9998 24.2486 41.5782 25.8027 40.7859C26.7812 41.1662 27.8167 41.3611 28.8848 41.3611C31.0152 41.3611 33.0297 40.5856 34.5569 39.1774C34.6254 39.114 34.6804 39.0373 34.7185 38.9521C34.7566 38.8668 34.777 38.7747 34.7785 38.6813C34.7791 38.6649 34.7795 38.6485 34.7795 38.6318C34.7795 37.5238 34.4308 36.4921 33.8336 35.6283H38.206C39.9219 35.6283 41.3178 34.2324 41.3178 32.5165ZM3.11194 1.37581H38.206C39.1633 1.37581 39.942 2.15462 39.942 3.11186V6.97883H1.37599V3.11176C1.37599 2.15462 2.1547 1.37581 3.11194 1.37581ZM12.2235 39.9854C10.6434 39.9854 9.1257 39.4714 7.91541 38.5323C7.97224 36.308 9.93002 34.5148 12.3284 34.5148C12.9916 34.5143 13.6474 34.6553 14.252 34.9281C13.599 35.9913 13.2229 37.225 13.2229 38.541C13.2229 38.6503 13.2259 38.7643 13.2321 38.8893C13.2367 38.983 13.2605 39.0748 13.302 39.159C13.3434 39.2432 13.4017 39.318 13.4731 39.3789C13.6336 39.5146 13.7981 39.6456 13.9663 39.7716C13.3963 39.914 12.811 39.9858 12.2235 39.9854ZM14.5987 38.524C14.6086 35.3148 17.4028 32.7068 20.836 32.7068C24.1853 32.7068 26.9265 35.189 27.0676 38.291C25.3239 39.7978 23.0728 40.624 20.6937 40.624C18.452 40.624 16.2999 39.8803 14.5987 38.524ZM28.8848 39.9854C28.3643 39.9854 27.8537 39.9291 27.3564 39.8214C27.6587 39.5965 27.9491 39.3559 28.2262 39.1006C28.2957 39.0361 28.3512 38.958 28.3894 38.8712C28.4275 38.7844 28.4475 38.6907 28.4481 38.5958C28.4488 38.5776 28.4492 38.5594 28.4492 38.541C28.4492 37.1764 28.0469 35.8995 27.3486 34.8102C27.8736 34.6148 28.4294 34.5147 28.9896 34.5148C31.33 34.5148 33.2509 36.2226 33.3951 38.3678C32.1531 39.4131 30.5635 39.9854 28.8848 39.9854ZM38.206 34.2525H32.4795C31.5085 33.5542 30.2994 33.139 28.9896 33.139C28.1123 33.139 27.2459 33.3284 26.4623 33.689C25.0689 32.2412 23.0626 31.331 20.836 31.331C18.5492 31.331 16.4963 32.2922 15.0996 33.8088C14.2527 33.3703 13.3007 33.139 12.3284 33.139C11.0186 33.139 9.80958 33.5542 8.83837 34.2525H3.11194C2.1547 34.2525 1.37599 33.4737 1.37599 32.5165V8.35464H39.942V32.5165C39.942 33.4737 39.1633 34.2525 38.206 34.2525Z" fill="#FF8833"/>
<path d="M4.51806 4.8802H4.78666C4.9691 4.8802 5.14407 4.80773 5.27308 4.67872C5.40208 4.54971 5.47456 4.37474 5.47456 4.1923C5.47456 4.00985 5.40208 3.83488 5.27308 3.70588C5.14407 3.57687 4.9691 3.50439 4.78666 3.50439H4.51806C4.33561 3.50439 4.16064 3.57687 4.03163 3.70588C3.90263 3.83488 3.83015 4.00985 3.83015 4.1923C3.83015 4.37474 3.90263 4.54971 4.03163 4.67872C4.16064 4.80773 4.33561 4.8802 4.51806 4.8802ZM10.2918 4.8802H10.5603C10.7427 4.8802 10.9177 4.80773 11.0467 4.67872C11.1757 4.54971 11.2482 4.37474 11.2482 4.1923C11.2482 4.00985 11.1757 3.83488 11.0467 3.70588C10.9177 3.57687 10.7427 3.50439 10.5603 3.50439H10.2918C10.1093 3.50439 9.93437 3.57687 9.80537 3.70588C9.67636 3.83488 9.60388 4.00985 9.60388 4.1923C9.60388 4.37474 9.67636 4.54971 9.80537 4.67872C9.93437 4.80773 10.1093 4.8802 10.2918 4.8802ZM7.40492 4.8802H7.67352C7.85597 4.8802 8.03094 4.80773 8.15994 4.67872C8.28895 4.54971 8.36142 4.37474 8.36142 4.1923C8.36142 4.00985 8.28895 3.83488 8.15994 3.70588C8.03094 3.57687 7.85597 3.50439 7.67352 3.50439H7.40492C7.22248 3.50439 7.04751 3.57687 6.9185 3.70588C6.78949 3.83488 6.71702 4.00985 6.71702 4.1923C6.71702 4.37474 6.78949 4.54971 6.9185 4.67872C7.04751 4.80773 7.22248 4.8802 7.40492 4.8802ZM21.1246 4.8802H35.9236C36.106 4.8802 36.281 4.80773 36.41 4.67872C36.539 4.54971 36.6115 4.37474 36.6115 4.1923C36.6115 4.00985 36.539 3.83488 36.41 3.70588C36.281 3.57687 36.106 3.50439 35.9236 3.50439H21.1246C20.9421 3.50439 20.7672 3.57687 20.6382 3.70588C20.5091 3.83488 20.4367 4.00985 20.4367 4.1923C20.4367 4.37474 20.5091 4.54971 20.6382 4.67872C20.7672 4.80773 20.9421 4.8802 21.1246 4.8802ZM20.6936 21.2309C18.124 21.2309 16.0338 23.3214 16.0338 25.8909C16.0338 28.4604 18.1242 30.5507 20.6936 30.5507C23.2631 30.5507 25.3536 28.4604 25.3536 25.8909C25.3536 23.3214 23.2631 21.2309 20.6936 21.2309ZM20.6936 29.1749C18.8829 29.1749 17.4096 27.7018 17.4096 25.8909C17.4096 24.08 18.8828 22.6067 20.6936 22.6067C22.5045 22.6067 23.9778 24.0799 23.9778 25.8909C23.9778 27.7017 22.5046 29.1749 20.6936 29.1749ZM28.8848 25.5332C26.8917 25.5332 25.2706 27.1545 25.2706 29.1473C25.2706 31.1401 26.8917 32.7617 28.8848 32.7617C30.8778 32.7617 32.4989 31.1403 32.4989 29.1473C32.4989 27.1543 30.8776 25.5332 28.8848 25.5332ZM28.8848 31.3859C27.6505 31.3859 26.6464 30.3816 26.6464 29.1473C26.6464 27.9131 27.6505 26.909 28.8848 26.909C30.1191 26.909 31.1231 27.9131 31.1231 29.1473C31.1231 30.3816 30.119 31.3859 28.8848 31.3859ZM12.2234 25.5332C10.2305 25.5332 8.60928 27.1545 8.60928 29.1473C8.60928 31.1401 10.2305 32.7617 12.2234 32.7617C14.2163 32.7617 15.8377 31.1403 15.8377 29.1473C15.8377 27.1543 14.2163 25.5332 12.2234 25.5332ZM12.2234 31.3859C10.9892 31.3859 9.98509 30.3816 9.98509 29.1473C9.98509 27.9131 10.9892 26.909 12.2234 26.909C13.4577 26.909 14.4619 27.9131 14.4619 29.1473C14.4619 30.3816 13.4577 31.3859 12.2234 31.3859ZM6.40566 12.6508H10.8033C10.9857 12.6508 11.1607 12.5783 11.2897 12.4493C11.4187 12.3203 11.4912 12.1453 11.4912 11.9629C11.4912 11.7804 11.4187 11.6054 11.2897 11.4764C11.1607 11.3474 10.9857 11.275 10.8033 11.275H6.40566C6.22322 11.275 6.04825 11.3474 5.91924 11.4764C5.79023 11.6054 5.71776 11.7804 5.71776 11.9629C5.71776 12.1453 5.79023 12.3203 5.91924 12.4493C6.04825 12.5783 6.22322 12.6508 6.40566 12.6508ZM34.3346 14.8782H6.40577C6.22333 14.8782 6.04835 14.9507 5.91935 15.0797C5.79034 15.2087 5.71786 15.3836 5.71786 15.5661C5.71786 15.7485 5.79034 15.9235 5.91935 16.0525C6.04835 16.1815 6.22333 16.254 6.40577 16.254H34.3346C34.5171 16.254 34.6921 16.1815 34.8211 16.0525C34.9501 15.9235 35.0225 15.7485 35.0225 15.5661C35.0225 15.3836 34.9501 15.2087 34.8211 15.0797C34.6921 14.9507 34.5171 14.8782 34.3346 14.8782ZM34.3346 18.4814H31.2042C31.0217 18.4814 30.8467 18.5539 30.7177 18.6829C30.5887 18.8119 30.5163 18.9869 30.5163 19.1693C30.5163 19.3518 30.5887 19.5267 30.7177 19.6558C30.8467 19.7848 31.0217 19.8572 31.2042 19.8572H34.3346C34.5171 19.8572 34.6921 19.7848 34.8211 19.6558C34.9501 19.5267 35.0225 19.3518 35.0225 19.1693C35.0225 18.9869 34.9501 18.8119 34.8211 18.6829C34.6921 18.5539 34.5171 18.4814 34.3346 18.4814ZM25.5648 19.8572C25.7473 19.8572 25.9222 19.7848 26.0513 19.6558C26.1803 19.5267 26.2527 19.3518 26.2527 19.1693C26.2527 18.9869 26.1803 18.8119 26.0513 18.6829C25.9222 18.5539 25.7473 18.4814 25.5648 18.4814H6.40556C6.22311 18.4814 6.04814 18.5539 5.91914 18.6829C5.79013 18.8119 5.71765 18.9869 5.71765 19.1693C5.71765 19.3518 5.79013 19.5267 5.91914 19.6558C6.04814 19.7848 6.22311 19.8572 6.40556 19.8572H25.5648ZM34.3346 11.275H32.2111C32.0287 11.275 31.8537 11.3474 31.7247 11.4764C31.5957 11.6054 31.5232 11.7804 31.5232 11.9629C31.5232 12.1453 31.5957 12.3203 31.7247 12.4493C31.8537 12.5783 32.0287 12.6508 32.2111 12.6508H34.3346C34.5171 12.6508 34.6921 12.5783 34.8211 12.4493C34.9501 12.3203 35.0225 12.1453 35.0225 11.9629C35.0225 11.7804 34.9501 11.6054 34.8211 11.4764C34.6921 11.3474 34.5171 11.275 34.3346 11.275ZM6.40566 29.4917H4.28226C4.09982 29.4917 3.92485 29.5642 3.79584 29.6932C3.66684 29.8222 3.59436 29.9972 3.59436 30.1796C3.59436 30.362 3.66684 30.537 3.79584 30.666C3.92485 30.795 4.09982 30.8675 4.28226 30.8675H6.40566C6.58811 30.8675 6.76308 30.795 6.89208 30.666C7.02109 30.537 7.09357 30.362 7.09357 30.1796C7.09357 29.9972 7.02109 29.8222 6.89208 29.6932C6.76308 29.5642 6.58811 29.4917 6.40566 29.4917Z" fill="#FF8833"/>
</svg>
