<svg width="42" height="42" viewBox="0 0 42 42" fill="none" xmlns="http://www.w3.org/2000/svg">
<path d="M39.4837 13.8859C39.4688 13.8009 39.4373 13.7197 39.391 13.647C39.3447 13.5742 39.2845 13.5112 39.2139 13.4618C39.1432 13.4123 39.0635 13.3772 38.9793 13.3585C38.8951 13.3399 38.808 13.338 38.7231 13.353L35.493 13.922C35.4079 13.9369 35.3267 13.9684 35.2539 14.0147C35.181 14.0611 35.1181 14.1213 35.0686 14.192C35.0191 14.2628 34.984 14.3425 34.9654 14.4268C34.9468 14.5111 34.945 14.5982 34.9601 14.6832L35.1005 15.478L33.263 15.7989L32.1572 15.6296V5.90637C32.1572 5.21016 31.8806 4.54247 31.3883 4.05018C30.896 3.55788 30.2283 3.28132 29.5321 3.28132H24.9383V1.96879C24.9383 1.44663 24.7309 0.945865 24.3616 0.576645C23.9924 0.207425 23.4916 0 22.9695 0L19.0319 0C18.5098 0 18.009 0.207425 17.6398 0.576645C17.2705 0.945865 17.0631 1.44663 17.0631 1.96879V3.28132H12.4693C11.7731 3.28132 11.1054 3.55788 10.6131 4.05018C10.1208 4.54247 9.84423 5.21016 9.84423 5.90637V15.6315L8.73383 15.8015L6.90155 15.4786L7.04133 14.6832C7.05644 14.5982 7.05463 14.5111 7.03601 14.4268C7.01739 14.3425 6.98233 14.2628 6.93283 14.192C6.88333 14.1213 6.82036 14.0611 6.74754 14.0147C6.67472 13.9684 6.59347 13.9369 6.50845 13.922L3.2816 13.353C3.19661 13.3379 3.10948 13.3397 3.0252 13.3583C2.94091 13.3769 2.86112 13.412 2.79041 13.4615C2.7197 13.511 2.65944 13.574 2.6131 13.6468C2.56675 13.7196 2.53523 13.8008 2.52033 13.8859L0.0101275 28.1025C-0.00497844 28.1875 -0.00317018 28.2746 0.0154487 28.3589C0.0340675 28.4432 0.0691312 28.523 0.118631 28.5937C0.168132 28.6644 0.231096 28.7247 0.303918 28.771C0.37674 28.8174 0.45799 28.8489 0.543013 28.8638L3.7738 29.4327C3.85873 29.4478 3.9458 29.4459 4.03001 29.4272C4.11422 29.4086 4.19393 29.3735 4.26457 29.324C4.33521 29.2745 4.3954 29.2116 4.4417 29.1388C4.48801 29.066 4.51951 28.9848 4.53441 28.8999L4.59413 28.5474L5.1362 28.6433C5.63583 29.7438 6.3627 30.726 7.26905 31.5256C7.23432 32.1181 7.40302 32.7048 7.74722 33.1884C8.09141 33.672 8.59046 34.0235 9.16172 34.1847C8.8547 34.6947 8.73119 35.2942 8.81168 35.8839C8.89217 36.4737 9.17182 37.0182 9.60426 37.4272C10.0367 37.8362 10.5959 38.0851 11.1892 38.1326C11.7826 38.1802 12.3743 38.0235 12.8663 37.6885C12.9316 38.1243 13.1067 38.5363 13.3751 38.8857C13.6436 39.2352 13.9965 39.5105 14.4008 39.6858C14.805 39.8612 15.2473 39.9307 15.6858 39.888C16.1244 39.8452 16.5448 39.6915 16.9076 39.4414C16.969 39.8433 17.1239 40.2252 17.36 40.5563C17.596 40.8874 17.9064 41.1584 18.2664 41.3476C18.6263 41.5367 19.0256 41.6386 19.4322 41.6452C19.8387 41.6517 20.2411 41.5627 20.6069 41.3853V41.3892L20.8695 41.5638C21.1569 41.7541 21.4791 41.8859 21.8176 41.9517C22.156 42.0176 22.5041 42.016 22.842 41.9473C23.1798 41.8786 23.5008 41.7439 23.7867 41.5511C24.0725 41.3583 24.3175 41.111 24.5078 40.8235C24.7951 40.3861 24.9421 39.8714 24.9291 39.3482C25.142 39.4062 25.3614 39.4366 25.5821 39.4388C25.9289 39.4398 26.2724 39.3721 26.5928 39.2394C26.9132 39.1067 27.2041 38.9117 27.4485 38.6657C27.693 38.4198 27.8862 38.1278 28.017 37.8066C28.1478 37.4854 28.2135 37.1415 28.2104 36.7947C28.4193 36.8496 28.6343 36.8783 28.8503 36.88C29.1966 36.88 29.5395 36.8115 29.8592 36.6784C30.179 36.5453 30.4692 36.3502 30.7132 36.1044C30.9572 35.8587 31.1502 35.567 31.281 35.2463C31.4118 34.9257 31.4778 34.5823 31.4753 34.2359C31.8754 34.3402 32.2945 34.3476 32.6981 34.2577C33.1016 34.1677 33.4779 33.9829 33.7957 33.7186C34.1136 33.4543 34.364 33.118 34.5261 32.7377C34.6881 32.3573 34.7573 31.9439 34.7278 31.5315C35.635 30.7307 36.3619 29.7465 36.8606 28.6439L37.4073 28.5507L37.469 28.8999C37.4839 28.9849 37.5154 29.0661 37.5617 29.139C37.6081 29.2118 37.6683 29.2747 37.739 29.3242C37.8098 29.3737 37.8895 29.4088 37.9738 29.4274C38.0581 29.446 38.1453 29.4479 38.2302 29.4327L41.4604 28.8638C41.5454 28.8489 41.6266 28.8174 41.6995 28.771C41.7723 28.7247 41.8352 28.6644 41.8847 28.5937C41.9342 28.523 41.9693 28.4432 41.9879 28.3589C42.0065 28.2746 42.0084 28.1875 41.9933 28.1025L39.4837 13.8859ZM18.3757 1.96879C18.3757 1.79474 18.4448 1.62781 18.5679 1.50474C18.6909 1.38167 18.8579 1.31253 19.0319 1.31253H22.9695C23.1435 1.31253 23.3105 1.38167 23.4335 1.50474C23.5566 1.62781 23.6258 1.79474 23.6258 1.96879V3.28132H18.3757V1.96879ZM11.1568 5.90637C11.1568 5.55826 11.295 5.22442 11.5412 4.97827C11.7873 4.73213 12.1212 4.59384 12.4693 4.59384H29.5321C29.8802 4.59384 30.2141 4.73213 30.4602 4.97827C30.7064 5.22442 30.8447 5.55826 30.8447 5.90637V7.87516C30.8447 8.39731 30.6372 8.89808 30.268 9.2673C29.8988 9.63652 29.398 9.84395 28.8759 9.84395V9.18768C28.8759 9.01363 28.8067 8.84671 28.6836 8.72364C28.5606 8.60056 28.3937 8.53142 28.2196 8.53142H25.5945C25.4205 8.53142 25.2536 8.60056 25.1305 8.72364C25.0074 8.84671 24.9383 9.01363 24.9383 9.18768V9.84395H17.0631V9.18768C17.0631 9.01363 16.994 8.84671 16.8709 8.72364C16.7478 8.60056 16.5809 8.53142 16.4069 8.53142H13.7818C13.6078 8.53142 13.4408 8.60056 13.3178 8.72364C13.1947 8.84671 13.1255 9.01363 13.1255 9.18768V9.84395C12.6034 9.84395 12.1026 9.63652 11.7334 9.2673C11.3642 8.89808 11.1568 8.39731 11.1568 7.87516V5.90637ZM27.5633 9.84395V11.1565H26.2508V9.84395H27.5633ZM15.7506 9.84395V11.1565H14.4381V9.84395H15.7506ZM11.1568 10.4831C11.7214 10.9175 12.4132 11.1541 13.1255 11.1565V11.8127C13.1255 11.9868 13.1947 12.1537 13.3178 12.2768C13.4408 12.3999 13.6078 12.469 13.7818 12.469H16.4069C16.5809 12.469 16.7478 12.3999 16.8709 12.2768C16.994 12.1537 17.0631 11.9868 17.0631 11.8127V11.1565H24.9383V11.8127C24.9383 11.9868 25.0074 12.1537 25.1305 12.2768C25.2536 12.3999 25.4205 12.469 25.5945 12.469H28.2196C28.3937 12.469 28.5606 12.3999 28.6836 12.2768C28.8067 12.1537 28.8759 11.9868 28.8759 11.8127V11.1565C29.5882 11.1541 30.28 10.9175 30.8447 10.4831V15.4287L25.8571 14.6662C24.7725 14.5028 23.6639 14.6434 22.6545 15.0724L21.0007 15.7772L19.3515 15.0744C18.3405 14.6435 17.2294 14.5033 16.143 14.6695L11.1568 15.4314V10.4831ZM3.35576 28.027L1.41716 27.6845L3.6957 14.7561L5.63496 15.098L3.35576 28.027ZM8.87952 32.5047C8.65586 32.2381 8.54723 31.8936 8.5775 31.5469C8.60778 31.2003 8.77448 30.8798 9.04097 30.656L11.5551 28.5474C11.6871 28.4366 11.8397 28.3529 12.0041 28.301C12.1685 28.2491 12.3415 28.2302 12.5132 28.2452C12.6849 28.2601 12.852 28.3088 13.005 28.3884C13.1579 28.468 13.2936 28.5769 13.4045 28.7089C13.5153 28.8409 13.599 28.9935 13.6509 29.1579C13.7028 29.3223 13.7217 29.4953 13.7068 29.667C13.6918 29.8387 13.6431 30.0058 13.5635 30.1587C13.484 30.3117 13.375 30.4474 13.243 30.5582L10.7289 32.6681C10.5967 32.7789 10.4441 32.8625 10.2796 32.9142C10.1151 32.9659 9.94208 32.9847 9.77035 32.9695C9.59861 32.9544 9.43154 32.9055 9.27869 32.8257C9.12584 32.746 8.9902 32.6369 8.87952 32.5047ZM12.254 36.527C12.122 36.6378 11.9693 36.7215 11.8049 36.7734C11.6405 36.8252 11.4674 36.8442 11.2957 36.8291C11.1239 36.8141 10.9568 36.7654 10.8039 36.6858C10.6509 36.6062 10.5152 36.4973 10.4044 36.3652C10.2935 36.2331 10.2098 36.0805 10.1579 35.9161C10.1061 35.7516 10.0871 35.5786 10.1022 35.4068C10.1172 35.2351 10.1659 35.068 10.2455 34.915C10.3251 34.7621 10.434 34.6263 10.5661 34.5155L13.5849 31.9843C13.853 31.7745 14.1921 31.677 14.5307 31.7125C14.8693 31.748 15.1808 31.9136 15.3996 32.1744C15.6183 32.4352 15.7272 32.7709 15.7032 33.1104C15.6792 33.45 15.5242 33.767 15.2709 33.9944L12.254 36.527ZM16.2933 38.2779C16.1613 38.3886 16.0087 38.4723 15.8442 38.5241C15.6798 38.576 15.5068 38.5949 15.3351 38.5798C15.1634 38.5648 14.9963 38.516 14.8434 38.4364C14.6905 38.3568 14.5548 38.2478 14.444 38.1158C14.3332 37.9837 14.2495 37.8311 14.1977 37.6667C14.1459 37.5023 14.127 37.3292 14.142 37.1575C14.1571 36.9858 14.2058 36.8187 14.2854 36.6658C14.365 36.5129 14.474 36.3772 14.6061 36.2664L16.6175 34.5792C16.8847 34.3599 17.2276 34.2548 17.5717 34.2868C17.9159 34.3187 18.2336 34.4852 18.4558 34.75C18.6779 35.0148 18.7867 35.3565 18.7584 35.701C18.7302 36.0455 18.5671 36.3649 18.3048 36.59L16.2933 38.2779ZM20.332 40.0321C20.0649 40.2527 19.7214 40.3587 19.3764 40.3272C19.0314 40.2956 18.7129 40.1289 18.4904 39.8634C18.2678 39.598 18.1592 39.2553 18.1882 38.9101C18.2172 38.5649 18.3816 38.2451 18.6454 38.0206L20.6562 36.3334C20.7882 36.2225 20.9408 36.1388 21.1052 36.0869C21.2695 36.035 21.4425 36.016 21.6143 36.031C21.786 36.046 21.9531 36.0947 22.106 36.1742C22.2589 36.2538 22.3947 36.3628 22.5055 36.4948C22.6163 36.6269 22.7 36.7795 22.7519 36.9439C22.8037 37.1083 22.8226 37.2813 22.8076 37.453C22.7925 37.6248 22.7438 37.7919 22.6641 37.9448C22.5845 38.0977 22.4755 38.2334 22.3434 38.3441L20.332 40.0321ZM23.4118 40.1016C23.2379 40.3668 22.973 40.5592 22.6671 40.6426C22.3611 40.726 22.0352 40.6946 21.7508 40.5544L23.1874 39.3495C23.3233 39.2359 23.4473 39.1088 23.5575 38.9702C23.6196 39.157 23.6388 39.3554 23.6136 39.5506C23.5883 39.7458 23.5194 39.9328 23.4118 40.0977V40.1016ZM33.2157 32.4194C33.1206 32.5632 32.9981 32.6868 32.8552 32.7832C32.7123 32.8796 32.5518 32.9469 32.3828 32.9813C32.2139 33.0157 32.0398 33.0164 31.8706 32.9835C31.7014 32.9506 31.5403 32.8847 31.3966 32.7895L25.9227 29.1689C25.8509 29.1169 25.7694 29.08 25.683 29.0604C25.5965 29.0407 25.507 29.0388 25.4199 29.0547C25.3327 29.0706 25.2496 29.104 25.1757 29.1529C25.1018 29.2017 25.0385 29.265 24.9897 29.339C24.9409 29.413 24.9076 29.4961 24.8918 29.5833C24.876 29.6705 24.8781 29.76 24.8978 29.8464C24.9175 29.9328 24.9545 30.0143 25.0066 30.086C25.0587 30.1577 25.1247 30.2181 25.2008 30.2636L29.5807 33.1623C29.8708 33.3547 30.0727 33.6545 30.1418 33.9957C30.2109 34.3369 30.1416 34.6916 29.9492 34.9818C29.7568 35.2719 29.457 35.4738 29.1158 35.5429C28.7745 35.612 28.4198 35.5427 28.1297 35.3503L23.7504 32.4522C23.6775 32.4033 23.5953 32.3698 23.5089 32.3538C23.3599 32.3257 23.2058 32.3501 23.0727 32.4228C22.9396 32.4955 22.8358 32.6121 22.779 32.7527C22.7221 32.8933 22.7157 33.0492 22.7609 33.194C22.806 33.3388 22.8999 33.4635 23.0266 33.5469L26.3079 35.7211C26.5963 35.9141 26.7964 36.2136 26.8646 36.5539C26.9328 36.8942 26.8634 37.2476 26.6717 37.5369C26.4799 37.8261 26.1814 38.0277 25.8414 38.0974C25.5015 38.1672 25.1477 38.0994 24.8576 37.909L24.1094 37.4142C24.1275 36.9327 24.0115 36.4556 23.7744 36.0361C23.5373 35.6167 23.1884 35.2713 22.7666 35.0384C22.3447 34.8056 21.8665 34.6944 21.3852 34.7174C20.9038 34.7404 20.4384 34.8965 20.0406 35.1685C19.9897 34.8273 19.871 34.4997 19.6916 34.2051C19.5122 33.9104 19.2756 33.6547 18.9958 33.4529C18.716 33.251 18.3987 33.1073 18.0625 33.03C17.7263 32.9527 17.378 32.9434 17.0382 33.0028C17.0497 32.3816 16.836 31.7773 16.4366 31.3014C16.0372 30.8255 15.4791 30.5103 14.8653 30.4139C15.0574 29.872 15.0657 29.282 14.8889 28.735C14.7122 28.1879 14.3603 27.7143 13.8875 27.3872C13.4148 27.0601 12.8475 26.8978 12.2732 26.9253C11.699 26.9528 11.1498 27.1686 10.7105 27.5394L8.19635 29.6493C8.02059 29.8007 7.86606 29.9751 7.73697 30.1678C7.08018 29.4906 6.56247 28.6913 6.21313 27.8151C6.17175 27.7108 6.10436 27.619 6.0174 27.5482C5.93043 27.4774 5.82678 27.4301 5.71634 27.4108L4.82316 27.2533L6.67185 16.7695L8.61046 17.1114C8.68103 17.1235 8.75316 17.1235 8.82374 17.1114L16.3412 15.9669C17.1856 15.8374 18.0494 15.9465 18.835 16.2819L19.3233 16.4899L16.7028 17.6056C16.1141 17.8573 15.6121 18.2763 15.2591 18.8105L12.7895 22.5335C12.5038 22.9707 12.4024 23.5031 12.5074 24.0148C12.6123 24.5265 12.9152 24.976 13.35 25.2655C14.0761 25.7439 14.9623 25.915 15.8143 25.7411C16.6663 25.5673 17.4146 25.0628 17.8953 24.3382L19.0221 22.6411L21.4181 22.1509C21.6763 22.947 22.115 23.6728 22.6999 24.2716C23.2848 24.8704 24.0001 25.3259 24.79 25.6028C25.0699 25.7026 25.3571 25.781 25.649 25.8371L32.8449 30.6016C33.135 30.7936 33.337 31.0929 33.4066 31.4337C33.4761 31.7746 33.4075 32.1291 33.2157 32.4194ZM36.2838 27.4121C36.1729 27.4314 36.0688 27.4789 35.9816 27.5501C35.8943 27.6212 35.8269 27.7136 35.7857 27.8183C35.4361 28.6987 34.9165 29.5015 34.2566 30.1809C34.0718 29.915 33.8387 29.6861 33.5695 29.5062L27.9912 25.8161C28.7161 25.6712 29.4066 25.3892 30.0256 24.9853L31.0566 24.3093C31.2021 24.2136 31.3037 24.064 31.3389 23.8934C31.3741 23.7228 31.34 23.5452 31.2443 23.3997C31.1486 23.2542 30.999 23.1527 30.8284 23.1175C30.6578 23.0823 30.4802 23.1163 30.3347 23.212L29.307 23.888C28.7126 24.2784 28.0355 24.525 27.3293 24.6082C26.623 24.6915 25.9071 24.6092 25.2382 24.3677C24.6226 24.1532 24.0665 23.7963 23.6152 23.3259C23.1639 22.8556 22.8302 22.2852 22.6414 21.6613C22.6004 21.5265 22.5658 21.3898 22.5377 21.2518C22.5021 21.0819 22.4008 20.9331 22.2558 20.8378C22.1108 20.7424 21.9339 20.7084 21.7639 20.7432L18.4951 21.4126C18.325 21.4473 18.1756 21.5481 18.0797 21.6928L16.8072 23.615C16.5186 24.0494 16.0698 24.352 15.5588 24.4564C15.0478 24.5608 14.5163 24.4586 14.0804 24.1721C13.935 24.0753 13.8336 23.925 13.7982 23.7539C13.7628 23.5827 13.7963 23.4046 13.8914 23.258L16.3596 19.5356C16.5713 19.216 16.8717 18.9651 17.2239 18.8138L23.1703 16.2806C23.9564 15.9469 24.8196 15.8376 25.6641 15.9649L33.1783 17.1134C33.2486 17.1242 33.3201 17.1242 33.3903 17.1134L35.3328 16.7734L37.1776 27.2572L36.2838 27.4121ZM38.6463 28.0257L36.3671 15.0973L38.3064 14.7554L40.5849 27.6838L38.6463 28.0257Z" fill="#FF8833"/>
</svg>
