<svg width="16" height="18" viewBox="0 0 16 18" fill="none" xmlns="http://www.w3.org/2000/svg">
<path d="M15.1332 4.31513C14.1481 4.31513 13.2393 3.9888 12.5094 3.43828C11.6723 2.80719 11.0709 1.88146 10.8585 0.814481C10.8053 0.546197 10.7773 0.27351 10.7749 0H7.96099V7.68902L7.95761 11.9007C7.95761 13.0266 7.22438 13.9814 6.20796 14.3171C5.90351 14.4178 5.58285 14.4603 5.26268 14.4425C4.83926 14.4193 4.44247 14.2915 4.0976 14.0852C3.36369 13.6463 2.8661 12.85 2.85261 11.9391C2.83138 10.5154 3.9823 9.35473 5.40495 9.35473C5.68577 9.35473 5.95546 9.40058 6.20796 9.48384V6.62676C5.94164 6.58731 5.6706 6.56675 5.39652 6.56675C3.83936 6.56675 2.38301 7.21402 1.34198 8.38012C0.555145 9.26135 0.0831773 10.3856 0.0103595 11.5645C-0.0850453 13.1133 0.481652 14.5855 1.58066 15.6717C1.74214 15.8311 1.91171 15.9791 2.08904 16.1157C3.03129 16.8408 4.18322 17.2339 5.39652 17.2339C5.6706 17.2339 5.94164 17.2137 6.20796 17.1742C7.34136 17.0063 8.3871 16.4875 9.21237 15.6717C10.2264 14.6694 10.7867 13.3388 10.7928 11.9226L10.7783 5.63327C11.2632 6.00729 11.7944 6.31708 12.3587 6.55495C13.2416 6.92747 14.1778 7.11626 15.1413 7.11592V4.31446C15.142 4.31513 15.1339 4.31513 15.1332 4.31513Z" fill="#FF8833"/>
</svg>
