<svg width="19" height="20" viewBox="0 0 19 20" fill="none" xmlns="http://www.w3.org/2000/svg">
<path d="M12.9527 7.68625C13.114 7.35371 13.3396 7.05643 13.6165 6.81158C13.8933 6.56673 14.2159 6.37916 14.5657 6.25972C14.8589 6.16219 15.1662 6.11371 15.4752 6.11622V2.11025C15.4752 0.9468 14.5284 0 13.3649 0H2.11025C0.9468 0 0 0.9468 0 2.11025V16.1786C0 17.3421 0.9468 18.2889 2.11025 18.2889H9.10856L9.03259 18.068C8.88098 17.6309 8.81765 17.1681 8.84627 16.7063C8.87488 16.2446 8.99488 15.7931 9.1993 15.3781L12.9527 7.68625ZM2.81367 4.22051H11.2547C11.4412 4.22051 11.6202 4.29462 11.7521 4.42653C11.884 4.55845 11.9581 4.73737 11.9581 4.92392C11.9581 5.11048 11.884 5.2894 11.7521 5.42132C11.6202 5.55323 11.4412 5.62734 11.2547 5.62734H2.81367C2.62711 5.62734 2.4482 5.55323 2.31628 5.42132C2.18436 5.2894 2.11025 5.11048 2.11025 4.92392C2.11025 4.73737 2.18436 4.55845 2.31628 4.42653C2.4482 4.29462 2.62711 4.22051 2.81367 4.22051ZM2.81367 7.03418H10.5513C10.7378 7.03418 10.9167 7.10829 11.0487 7.2402C11.1806 7.37212 11.2547 7.55104 11.2547 7.7376C11.2547 7.92415 11.1806 8.10307 11.0487 8.23499C10.9167 8.3669 10.7378 8.44101 10.5513 8.44101H2.81367C2.62711 8.44101 2.4482 8.3669 2.31628 8.23499C2.18436 8.10307 2.11025 7.92415 2.11025 7.7376C2.11025 7.55104 2.18436 7.37212 2.31628 7.2402C2.4482 7.10829 2.62711 7.03418 2.81367 7.03418ZM7.7376 14.0684H2.81367C2.62711 14.0684 2.4482 13.9942 2.31628 13.8623C2.18436 13.7304 2.11025 13.5515 2.11025 13.3649C2.11025 13.1784 2.18436 12.9995 2.31628 12.8675C2.4482 12.7356 2.62711 12.6615 2.81367 12.6615H7.7376C7.92415 12.6615 8.10307 12.7356 8.23499 12.8675C8.3669 12.9995 8.44101 13.1784 8.44101 13.3649C8.44101 13.5515 8.3669 13.7304 8.23499 13.8623C8.10307 13.9942 7.92415 14.0684 7.7376 14.0684ZM2.81367 11.2547C2.62711 11.2547 2.4482 11.1806 2.31628 11.0487C2.18436 10.9167 2.11025 10.7378 2.11025 10.5513C2.11025 10.3647 2.18436 10.1858 2.31628 10.0539C2.4482 9.92196 2.62711 9.84785 2.81367 9.84785H9.14443C9.33099 9.84785 9.50991 9.92196 9.64182 10.0539C9.77374 10.1858 9.84785 10.3647 9.84785 10.5513C9.84785 10.7378 9.77374 10.9167 9.64182 11.0487C9.50991 11.1806 9.33099 11.2547 9.14443 11.2547H2.81367ZM18.0103 10.1538L14.2555 17.8485C14.1344 18.098 13.965 18.321 13.7572 18.5046C13.5494 18.6882 13.3073 18.8289 13.0449 18.9184L11.7147 19.3756C11.5384 19.4361 11.3453 19.4242 11.1778 19.3424C11.0103 19.2607 10.8821 19.1157 10.8214 18.9395L10.3635 17.6094C10.2725 17.3473 10.2345 17.0698 10.2517 16.7929C10.2688 16.516 10.3408 16.2453 10.4633 15.9964L14.2182 8.30314C14.3821 7.9655 14.6691 7.71227 15.0243 7.58988C15.1988 7.52899 15.3836 7.50348 15.568 7.51483C15.7524 7.52618 15.9328 7.57417 16.0984 7.656L17.3632 8.2729C17.7008 8.4375 17.954 8.72449 18.0764 9.07972C18.1988 9.43494 18.1756 9.81619 18.0103 10.1538Z" fill="#4D8C57"/>
</svg>
